G04 #@! TF.GenerationSoftware,KiCad,Pcbnew,5.1.9-73d0e3b20d~88~ubuntu20.04.1*
G04 #@! TF.CreationDate,2021-01-03T21:21:44+01:00*
G04 #@! TF.ProjectId,test,74657374-2e6b-4696-9361-645f70636258,rev?*
G04 #@! TF.SameCoordinates,Original*
G04 #@! TF.FileFunction,Legend,Bot*
G04 #@! TF.FilePolarity,Positive*
%FSLAX46Y46*%
G04 Gerber Fmt 4.6, Leading zero omitted, Abs format (unit mm)*
G04 Created by KiCad (PCBNEW 5.1.9-73d0e3b20d~88~ubuntu20.04.1) date 2021-01-03 21:21:44*
%MOMM*%
%LPD*%
G01*
G04 APERTURE LIST*
%ADD10C,0.150000*%
G04 APERTURE END LIST*
D10*
X110210666Y-98401666D02*
X109734476Y-98401666D01*
X110305904Y-98687380D02*
X109972571Y-97687380D01*
X109639238Y-98687380D01*
X109448761Y-97687380D02*
X108877333Y-97687380D01*
X109163047Y-98687380D02*
X109163047Y-97687380D01*
X108544000Y-98687380D02*
X108544000Y-98020714D01*
X108544000Y-98115952D02*
X108496380Y-98068333D01*
X108401142Y-98020714D01*
X108258285Y-98020714D01*
X108163047Y-98068333D01*
X108115428Y-98163571D01*
X108115428Y-98687380D01*
X108115428Y-98163571D02*
X108067809Y-98068333D01*
X107972571Y-98020714D01*
X107829714Y-98020714D01*
X107734476Y-98068333D01*
X107686857Y-98163571D01*
X107686857Y-98687380D01*
X106829714Y-98639761D02*
X106924952Y-98687380D01*
X107115428Y-98687380D01*
X107210666Y-98639761D01*
X107258285Y-98544523D01*
X107258285Y-98163571D01*
X107210666Y-98068333D01*
X107115428Y-98020714D01*
X106924952Y-98020714D01*
X106829714Y-98068333D01*
X106782095Y-98163571D01*
X106782095Y-98258809D01*
X107258285Y-98354047D01*
X105924952Y-98020714D02*
X105924952Y-98830238D01*
X105972571Y-98925476D01*
X106020190Y-98973095D01*
X106115428Y-99020714D01*
X106258285Y-99020714D01*
X106353523Y-98973095D01*
X105924952Y-98639761D02*
X106020190Y-98687380D01*
X106210666Y-98687380D01*
X106305904Y-98639761D01*
X106353523Y-98592142D01*
X106401142Y-98496904D01*
X106401142Y-98211190D01*
X106353523Y-98115952D01*
X106305904Y-98068333D01*
X106210666Y-98020714D01*
X106020190Y-98020714D01*
X105924952Y-98068333D01*
X105020190Y-98687380D02*
X105020190Y-98163571D01*
X105067809Y-98068333D01*
X105163047Y-98020714D01*
X105353523Y-98020714D01*
X105448761Y-98068333D01*
X105020190Y-98639761D02*
X105115428Y-98687380D01*
X105353523Y-98687380D01*
X105448761Y-98639761D01*
X105496380Y-98544523D01*
X105496380Y-98449285D01*
X105448761Y-98354047D01*
X105353523Y-98306428D01*
X105115428Y-98306428D01*
X105020190Y-98258809D01*
X104639238Y-97687380D02*
X104020190Y-97687380D01*
X104353523Y-98068333D01*
X104210666Y-98068333D01*
X104115428Y-98115952D01*
X104067809Y-98163571D01*
X104020190Y-98258809D01*
X104020190Y-98496904D01*
X104067809Y-98592142D01*
X104115428Y-98639761D01*
X104210666Y-98687380D01*
X104496380Y-98687380D01*
X104591619Y-98639761D01*
X104639238Y-98592142D01*
X103639238Y-97782619D02*
X103591619Y-97735000D01*
X103496380Y-97687380D01*
X103258285Y-97687380D01*
X103163047Y-97735000D01*
X103115428Y-97782619D01*
X103067809Y-97877857D01*
X103067809Y-97973095D01*
X103115428Y-98115952D01*
X103686857Y-98687380D01*
X103067809Y-98687380D01*
X102496380Y-98115952D02*
X102591619Y-98068333D01*
X102639238Y-98020714D01*
X102686857Y-97925476D01*
X102686857Y-97877857D01*
X102639238Y-97782619D01*
X102591619Y-97735000D01*
X102496380Y-97687380D01*
X102305904Y-97687380D01*
X102210666Y-97735000D01*
X102163047Y-97782619D01*
X102115428Y-97877857D01*
X102115428Y-97925476D01*
X102163047Y-98020714D01*
X102210666Y-98068333D01*
X102305904Y-98115952D01*
X102496380Y-98115952D01*
X102591619Y-98163571D01*
X102639238Y-98211190D01*
X102686857Y-98306428D01*
X102686857Y-98496904D01*
X102639238Y-98592142D01*
X102591619Y-98639761D01*
X102496380Y-98687380D01*
X102305904Y-98687380D01*
X102210666Y-98639761D01*
X102163047Y-98592142D01*
X102115428Y-98496904D01*
X102115428Y-98306428D01*
X102163047Y-98211190D01*
X102210666Y-98163571D01*
X102305904Y-98115952D01*
X101686857Y-98687380D02*
X101686857Y-97687380D01*
X101305904Y-97687380D01*
X101210666Y-97735000D01*
X101163047Y-97782619D01*
X101115428Y-97877857D01*
X101115428Y-98020714D01*
X101163047Y-98115952D01*
X101210666Y-98163571D01*
X101305904Y-98211190D01*
X101686857Y-98211190D01*
X99924952Y-98687380D02*
X99924952Y-97687380D01*
X99686857Y-97687380D01*
X99544000Y-97735000D01*
X99448761Y-97830238D01*
X99401142Y-97925476D01*
X99353523Y-98115952D01*
X99353523Y-98258809D01*
X99401142Y-98449285D01*
X99448761Y-98544523D01*
X99544000Y-98639761D01*
X99686857Y-98687380D01*
X99924952Y-98687380D01*
X98544000Y-98639761D02*
X98639238Y-98687380D01*
X98829714Y-98687380D01*
X98924952Y-98639761D01*
X98972571Y-98544523D01*
X98972571Y-98163571D01*
X98924952Y-98068333D01*
X98829714Y-98020714D01*
X98639238Y-98020714D01*
X98544000Y-98068333D01*
X98496380Y-98163571D01*
X98496380Y-98258809D01*
X98972571Y-98354047D01*
X98163047Y-98020714D02*
X97924952Y-98687380D01*
X97686857Y-98020714D01*
X96924952Y-98639761D02*
X97020190Y-98687380D01*
X97210666Y-98687380D01*
X97305904Y-98639761D01*
X97353523Y-98544523D01*
X97353523Y-98163571D01*
X97305904Y-98068333D01*
X97210666Y-98020714D01*
X97020190Y-98020714D01*
X96924952Y-98068333D01*
X96877333Y-98163571D01*
X96877333Y-98258809D01*
X97353523Y-98354047D01*
X96305904Y-98687380D02*
X96401142Y-98639761D01*
X96448761Y-98544523D01*
X96448761Y-97687380D01*
X95782095Y-98687380D02*
X95877333Y-98639761D01*
X95924952Y-98592142D01*
X95972571Y-98496904D01*
X95972571Y-98211190D01*
X95924952Y-98115952D01*
X95877333Y-98068333D01*
X95782095Y-98020714D01*
X95639238Y-98020714D01*
X95544000Y-98068333D01*
X95496380Y-98115952D01*
X95448761Y-98211190D01*
X95448761Y-98496904D01*
X95496380Y-98592142D01*
X95544000Y-98639761D01*
X95639238Y-98687380D01*
X95782095Y-98687380D01*
X95020190Y-98020714D02*
X95020190Y-99020714D01*
X95020190Y-98068333D02*
X94924952Y-98020714D01*
X94734476Y-98020714D01*
X94639238Y-98068333D01*
X94591619Y-98115952D01*
X94544000Y-98211190D01*
X94544000Y-98496904D01*
X94591619Y-98592142D01*
X94639238Y-98639761D01*
X94734476Y-98687380D01*
X94924952Y-98687380D01*
X95020190Y-98639761D01*
X94115428Y-98687380D02*
X94115428Y-98020714D01*
X94115428Y-98115952D02*
X94067809Y-98068333D01*
X93972571Y-98020714D01*
X93829714Y-98020714D01*
X93734476Y-98068333D01*
X93686857Y-98163571D01*
X93686857Y-98687380D01*
X93686857Y-98163571D02*
X93639238Y-98068333D01*
X93544000Y-98020714D01*
X93401142Y-98020714D01*
X93305904Y-98068333D01*
X93258285Y-98163571D01*
X93258285Y-98687380D01*
X92401142Y-98639761D02*
X92496380Y-98687380D01*
X92686857Y-98687380D01*
X92782095Y-98639761D01*
X92829714Y-98544523D01*
X92829714Y-98163571D01*
X92782095Y-98068333D01*
X92686857Y-98020714D01*
X92496380Y-98020714D01*
X92401142Y-98068333D01*
X92353523Y-98163571D01*
X92353523Y-98258809D01*
X92829714Y-98354047D01*
X91924952Y-98020714D02*
X91924952Y-98687380D01*
X91924952Y-98115952D02*
X91877333Y-98068333D01*
X91782095Y-98020714D01*
X91639238Y-98020714D01*
X91544000Y-98068333D01*
X91496380Y-98163571D01*
X91496380Y-98687380D01*
X91163047Y-98020714D02*
X90782095Y-98020714D01*
X91020190Y-97687380D02*
X91020190Y-98544523D01*
X90972571Y-98639761D01*
X90877333Y-98687380D01*
X90782095Y-98687380D01*
X89686857Y-98687380D02*
X89686857Y-97687380D01*
X89686857Y-98068333D02*
X89591619Y-98020714D01*
X89401142Y-98020714D01*
X89305904Y-98068333D01*
X89258285Y-98115952D01*
X89210666Y-98211190D01*
X89210666Y-98496904D01*
X89258285Y-98592142D01*
X89305904Y-98639761D01*
X89401142Y-98687380D01*
X89591619Y-98687380D01*
X89686857Y-98639761D01*
X88639238Y-98687380D02*
X88734476Y-98639761D01*
X88782095Y-98592142D01*
X88829714Y-98496904D01*
X88829714Y-98211190D01*
X88782095Y-98115952D01*
X88734476Y-98068333D01*
X88639238Y-98020714D01*
X88496380Y-98020714D01*
X88401142Y-98068333D01*
X88353523Y-98115952D01*
X88305904Y-98211190D01*
X88305904Y-98496904D01*
X88353523Y-98592142D01*
X88401142Y-98639761D01*
X88496380Y-98687380D01*
X88639238Y-98687380D01*
X87448761Y-98687380D02*
X87448761Y-98163571D01*
X87496380Y-98068333D01*
X87591619Y-98020714D01*
X87782095Y-98020714D01*
X87877333Y-98068333D01*
X87448761Y-98639761D02*
X87544000Y-98687380D01*
X87782095Y-98687380D01*
X87877333Y-98639761D01*
X87924952Y-98544523D01*
X87924952Y-98449285D01*
X87877333Y-98354047D01*
X87782095Y-98306428D01*
X87544000Y-98306428D01*
X87448761Y-98258809D01*
X86972571Y-98687380D02*
X86972571Y-98020714D01*
X86972571Y-98211190D02*
X86924952Y-98115952D01*
X86877333Y-98068333D01*
X86782095Y-98020714D01*
X86686857Y-98020714D01*
X85924952Y-98687380D02*
X85924952Y-97687380D01*
X85924952Y-98639761D02*
X86020190Y-98687380D01*
X86210666Y-98687380D01*
X86305904Y-98639761D01*
X86353523Y-98592142D01*
X86401142Y-98496904D01*
X86401142Y-98211190D01*
X86353523Y-98115952D01*
X86305904Y-98068333D01*
X86210666Y-98020714D01*
X86020190Y-98020714D01*
X85924952Y-98068333D01*
X106972571Y-100718333D02*
X107020190Y-100670714D01*
X107115428Y-100527857D01*
X107163047Y-100432619D01*
X107210666Y-100289761D01*
X107258285Y-100051666D01*
X107258285Y-99861190D01*
X107210666Y-99623095D01*
X107163047Y-99480238D01*
X107115428Y-99385000D01*
X107020190Y-99242142D01*
X106972571Y-99194523D01*
X106163047Y-100289761D02*
X106258285Y-100337380D01*
X106448761Y-100337380D01*
X106544000Y-100289761D01*
X106591619Y-100242142D01*
X106639238Y-100146904D01*
X106639238Y-99861190D01*
X106591619Y-99765952D01*
X106544000Y-99718333D01*
X106448761Y-99670714D01*
X106258285Y-99670714D01*
X106163047Y-99718333D01*
X105829714Y-100718333D02*
X105782095Y-100670714D01*
X105686857Y-100527857D01*
X105639238Y-100432619D01*
X105591619Y-100289761D01*
X105544000Y-100051666D01*
X105544000Y-99861190D01*
X105591619Y-99623095D01*
X105639238Y-99480238D01*
X105686857Y-99385000D01*
X105782095Y-99242142D01*
X105829714Y-99194523D01*
X104353523Y-99432619D02*
X104305904Y-99385000D01*
X104210666Y-99337380D01*
X103972571Y-99337380D01*
X103877333Y-99385000D01*
X103829714Y-99432619D01*
X103782095Y-99527857D01*
X103782095Y-99623095D01*
X103829714Y-99765952D01*
X104401142Y-100337380D01*
X103782095Y-100337380D01*
X103163047Y-99337380D02*
X103067809Y-99337380D01*
X102972571Y-99385000D01*
X102924952Y-99432619D01*
X102877333Y-99527857D01*
X102829714Y-99718333D01*
X102829714Y-99956428D01*
X102877333Y-100146904D01*
X102924952Y-100242142D01*
X102972571Y-100289761D01*
X103067809Y-100337380D01*
X103163047Y-100337380D01*
X103258285Y-100289761D01*
X103305904Y-100242142D01*
X103353523Y-100146904D01*
X103401142Y-99956428D01*
X103401142Y-99718333D01*
X103353523Y-99527857D01*
X103305904Y-99432619D01*
X103258285Y-99385000D01*
X103163047Y-99337380D01*
X102448761Y-99432619D02*
X102401142Y-99385000D01*
X102305904Y-99337380D01*
X102067809Y-99337380D01*
X101972571Y-99385000D01*
X101924952Y-99432619D01*
X101877333Y-99527857D01*
X101877333Y-99623095D01*
X101924952Y-99765952D01*
X102496380Y-100337380D01*
X101877333Y-100337380D01*
X100924952Y-100337380D02*
X101496380Y-100337380D01*
X101210666Y-100337380D02*
X101210666Y-99337380D01*
X101305904Y-99480238D01*
X101401142Y-99575476D01*
X101496380Y-99623095D01*
X99448761Y-99337380D02*
X99448761Y-100051666D01*
X99496380Y-100194523D01*
X99591619Y-100289761D01*
X99734476Y-100337380D01*
X99829714Y-100337380D01*
X98591619Y-100289761D02*
X98686857Y-100337380D01*
X98877333Y-100337380D01*
X98972571Y-100289761D01*
X99020190Y-100194523D01*
X99020190Y-99813571D01*
X98972571Y-99718333D01*
X98877333Y-99670714D01*
X98686857Y-99670714D01*
X98591619Y-99718333D01*
X98544000Y-99813571D01*
X98544000Y-99908809D01*
X99020190Y-100004047D01*
X98115428Y-100337380D02*
X98115428Y-99670714D01*
X98115428Y-99861190D02*
X98067809Y-99765952D01*
X98020190Y-99718333D01*
X97924952Y-99670714D01*
X97829714Y-99670714D01*
X97353523Y-100337380D02*
X97448761Y-100289761D01*
X97496380Y-100242142D01*
X97544000Y-100146904D01*
X97544000Y-99861190D01*
X97496380Y-99765952D01*
X97448761Y-99718333D01*
X97353523Y-99670714D01*
X97210666Y-99670714D01*
X97115428Y-99718333D01*
X97067809Y-99765952D01*
X97020190Y-99861190D01*
X97020190Y-100146904D01*
X97067809Y-100242142D01*
X97115428Y-100289761D01*
X97210666Y-100337380D01*
X97353523Y-100337380D01*
X96210666Y-100289761D02*
X96305904Y-100337380D01*
X96496380Y-100337380D01*
X96591619Y-100289761D01*
X96639238Y-100194523D01*
X96639238Y-99813571D01*
X96591619Y-99718333D01*
X96496380Y-99670714D01*
X96305904Y-99670714D01*
X96210666Y-99718333D01*
X96163047Y-99813571D01*
X96163047Y-99908809D01*
X96639238Y-100004047D01*
X95734476Y-99670714D02*
X95734476Y-100337380D01*
X95734476Y-99765952D02*
X95686857Y-99718333D01*
X95591619Y-99670714D01*
X95448761Y-99670714D01*
X95353523Y-99718333D01*
X95305904Y-99813571D01*
X95305904Y-100337380D01*
X94210666Y-99337380D02*
X93877333Y-100337380D01*
X93544000Y-99337380D01*
X92829714Y-100289761D02*
X92924952Y-100337380D01*
X93115428Y-100337380D01*
X93210666Y-100289761D01*
X93258285Y-100194523D01*
X93258285Y-99813571D01*
X93210666Y-99718333D01*
X93115428Y-99670714D01*
X92924952Y-99670714D01*
X92829714Y-99718333D01*
X92782095Y-99813571D01*
X92782095Y-99908809D01*
X93258285Y-100004047D01*
X92353523Y-99670714D02*
X92353523Y-100337380D01*
X92353523Y-99765952D02*
X92305904Y-99718333D01*
X92210666Y-99670714D01*
X92067809Y-99670714D01*
X91972571Y-99718333D01*
X91924952Y-99813571D01*
X91924952Y-100337380D01*
X91067809Y-100289761D02*
X91163047Y-100337380D01*
X91353523Y-100337380D01*
X91448761Y-100289761D01*
X91496380Y-100194523D01*
X91496380Y-99813571D01*
X91448761Y-99718333D01*
X91353523Y-99670714D01*
X91163047Y-99670714D01*
X91067809Y-99718333D01*
X91020190Y-99813571D01*
X91020190Y-99908809D01*
X91496380Y-100004047D01*
X90591619Y-100337380D02*
X90591619Y-99670714D01*
X90591619Y-99765952D02*
X90544000Y-99718333D01*
X90448761Y-99670714D01*
X90305904Y-99670714D01*
X90210666Y-99718333D01*
X90163047Y-99813571D01*
X90163047Y-100337380D01*
X90163047Y-99813571D02*
X90115428Y-99718333D01*
X90020190Y-99670714D01*
X89877333Y-99670714D01*
X89782095Y-99718333D01*
X89734476Y-99813571D01*
X89734476Y-100337380D01*
X88829714Y-100337380D02*
X88829714Y-99813571D01*
X88877333Y-99718333D01*
X88972571Y-99670714D01*
X89163047Y-99670714D01*
X89258285Y-99718333D01*
X88829714Y-100289761D02*
X88924952Y-100337380D01*
X89163047Y-100337380D01*
X89258285Y-100289761D01*
X89305904Y-100194523D01*
X89305904Y-100099285D01*
X89258285Y-100004047D01*
X89163047Y-99956428D01*
X88924952Y-99956428D01*
X88829714Y-99908809D01*
M02*
