G04 #@! TF.GenerationSoftware,KiCad,Pcbnew,5.1.9-73d0e3b20d~88~ubuntu20.04.1*
G04 #@! TF.CreationDate,2021-01-16T14:01:42+01:00*
G04 #@! TF.ProjectId,test,74657374-2e6b-4696-9361-645f70636258,rev?*
G04 #@! TF.SameCoordinates,Original*
G04 #@! TF.FileFunction,Legend,Bot*
G04 #@! TF.FilePolarity,Positive*
%FSLAX46Y46*%
G04 Gerber Fmt 4.6, Leading zero omitted, Abs format (unit mm)*
G04 Created by KiCad (PCBNEW 5.1.9-73d0e3b20d~88~ubuntu20.04.1) date 2021-01-16 14:01:42*
%MOMM*%
%LPD*%
G01*
G04 APERTURE LIST*
%ADD10C,0.150000*%
G04 APERTURE END LIST*
D10*
X112901142Y-98401666D02*
X112424952Y-98401666D01*
X112996380Y-98687380D02*
X112663047Y-97687380D01*
X112329714Y-98687380D01*
X112139238Y-97687380D02*
X111567809Y-97687380D01*
X111853523Y-98687380D02*
X111853523Y-97687380D01*
X111234476Y-98687380D02*
X111234476Y-98020714D01*
X111234476Y-98115952D02*
X111186857Y-98068333D01*
X111091619Y-98020714D01*
X110948761Y-98020714D01*
X110853523Y-98068333D01*
X110805904Y-98163571D01*
X110805904Y-98687380D01*
X110805904Y-98163571D02*
X110758285Y-98068333D01*
X110663047Y-98020714D01*
X110520190Y-98020714D01*
X110424952Y-98068333D01*
X110377333Y-98163571D01*
X110377333Y-98687380D01*
X109520190Y-98639761D02*
X109615428Y-98687380D01*
X109805904Y-98687380D01*
X109901142Y-98639761D01*
X109948761Y-98544523D01*
X109948761Y-98163571D01*
X109901142Y-98068333D01*
X109805904Y-98020714D01*
X109615428Y-98020714D01*
X109520190Y-98068333D01*
X109472571Y-98163571D01*
X109472571Y-98258809D01*
X109948761Y-98354047D01*
X108615428Y-98020714D02*
X108615428Y-98830238D01*
X108663047Y-98925476D01*
X108710666Y-98973095D01*
X108805904Y-99020714D01*
X108948761Y-99020714D01*
X109044000Y-98973095D01*
X108615428Y-98639761D02*
X108710666Y-98687380D01*
X108901142Y-98687380D01*
X108996380Y-98639761D01*
X109044000Y-98592142D01*
X109091619Y-98496904D01*
X109091619Y-98211190D01*
X109044000Y-98115952D01*
X108996380Y-98068333D01*
X108901142Y-98020714D01*
X108710666Y-98020714D01*
X108615428Y-98068333D01*
X107710666Y-98687380D02*
X107710666Y-98163571D01*
X107758285Y-98068333D01*
X107853523Y-98020714D01*
X108044000Y-98020714D01*
X108139238Y-98068333D01*
X107710666Y-98639761D02*
X107805904Y-98687380D01*
X108044000Y-98687380D01*
X108139238Y-98639761D01*
X108186857Y-98544523D01*
X108186857Y-98449285D01*
X108139238Y-98354047D01*
X108044000Y-98306428D01*
X107805904Y-98306428D01*
X107710666Y-98258809D01*
X107329714Y-97687380D02*
X106710666Y-97687380D01*
X107044000Y-98068333D01*
X106901142Y-98068333D01*
X106805904Y-98115952D01*
X106758285Y-98163571D01*
X106710666Y-98258809D01*
X106710666Y-98496904D01*
X106758285Y-98592142D01*
X106805904Y-98639761D01*
X106901142Y-98687380D01*
X107186857Y-98687380D01*
X107282095Y-98639761D01*
X107329714Y-98592142D01*
X106329714Y-97782619D02*
X106282095Y-97735000D01*
X106186857Y-97687380D01*
X105948761Y-97687380D01*
X105853523Y-97735000D01*
X105805904Y-97782619D01*
X105758285Y-97877857D01*
X105758285Y-97973095D01*
X105805904Y-98115952D01*
X106377333Y-98687380D01*
X105758285Y-98687380D01*
X105186857Y-98115952D02*
X105282095Y-98068333D01*
X105329714Y-98020714D01*
X105377333Y-97925476D01*
X105377333Y-97877857D01*
X105329714Y-97782619D01*
X105282095Y-97735000D01*
X105186857Y-97687380D01*
X104996380Y-97687380D01*
X104901142Y-97735000D01*
X104853523Y-97782619D01*
X104805904Y-97877857D01*
X104805904Y-97925476D01*
X104853523Y-98020714D01*
X104901142Y-98068333D01*
X104996380Y-98115952D01*
X105186857Y-98115952D01*
X105282095Y-98163571D01*
X105329714Y-98211190D01*
X105377333Y-98306428D01*
X105377333Y-98496904D01*
X105329714Y-98592142D01*
X105282095Y-98639761D01*
X105186857Y-98687380D01*
X104996380Y-98687380D01*
X104901142Y-98639761D01*
X104853523Y-98592142D01*
X104805904Y-98496904D01*
X104805904Y-98306428D01*
X104853523Y-98211190D01*
X104901142Y-98163571D01*
X104996380Y-98115952D01*
X104377333Y-98687380D02*
X104377333Y-97687380D01*
X103996380Y-97687380D01*
X103901142Y-97735000D01*
X103853523Y-97782619D01*
X103805904Y-97877857D01*
X103805904Y-98020714D01*
X103853523Y-98115952D01*
X103901142Y-98163571D01*
X103996380Y-98211190D01*
X104377333Y-98211190D01*
X102615428Y-98687380D02*
X102615428Y-97687380D01*
X102377333Y-97687380D01*
X102234476Y-97735000D01*
X102139238Y-97830238D01*
X102091619Y-97925476D01*
X102044000Y-98115952D01*
X102044000Y-98258809D01*
X102091619Y-98449285D01*
X102139238Y-98544523D01*
X102234476Y-98639761D01*
X102377333Y-98687380D01*
X102615428Y-98687380D01*
X101234476Y-98639761D02*
X101329714Y-98687380D01*
X101520190Y-98687380D01*
X101615428Y-98639761D01*
X101663047Y-98544523D01*
X101663047Y-98163571D01*
X101615428Y-98068333D01*
X101520190Y-98020714D01*
X101329714Y-98020714D01*
X101234476Y-98068333D01*
X101186857Y-98163571D01*
X101186857Y-98258809D01*
X101663047Y-98354047D01*
X100853523Y-98020714D02*
X100615428Y-98687380D01*
X100377333Y-98020714D01*
X99615428Y-98639761D02*
X99710666Y-98687380D01*
X99901142Y-98687380D01*
X99996380Y-98639761D01*
X100044000Y-98544523D01*
X100044000Y-98163571D01*
X99996380Y-98068333D01*
X99901142Y-98020714D01*
X99710666Y-98020714D01*
X99615428Y-98068333D01*
X99567809Y-98163571D01*
X99567809Y-98258809D01*
X100044000Y-98354047D01*
X98996380Y-98687380D02*
X99091619Y-98639761D01*
X99139238Y-98544523D01*
X99139238Y-97687380D01*
X98472571Y-98687380D02*
X98567809Y-98639761D01*
X98615428Y-98592142D01*
X98663047Y-98496904D01*
X98663047Y-98211190D01*
X98615428Y-98115952D01*
X98567809Y-98068333D01*
X98472571Y-98020714D01*
X98329714Y-98020714D01*
X98234476Y-98068333D01*
X98186857Y-98115952D01*
X98139238Y-98211190D01*
X98139238Y-98496904D01*
X98186857Y-98592142D01*
X98234476Y-98639761D01*
X98329714Y-98687380D01*
X98472571Y-98687380D01*
X97710666Y-98020714D02*
X97710666Y-99020714D01*
X97710666Y-98068333D02*
X97615428Y-98020714D01*
X97424952Y-98020714D01*
X97329714Y-98068333D01*
X97282095Y-98115952D01*
X97234476Y-98211190D01*
X97234476Y-98496904D01*
X97282095Y-98592142D01*
X97329714Y-98639761D01*
X97424952Y-98687380D01*
X97615428Y-98687380D01*
X97710666Y-98639761D01*
X96805904Y-98687380D02*
X96805904Y-98020714D01*
X96805904Y-98115952D02*
X96758285Y-98068333D01*
X96663047Y-98020714D01*
X96520190Y-98020714D01*
X96424952Y-98068333D01*
X96377333Y-98163571D01*
X96377333Y-98687380D01*
X96377333Y-98163571D02*
X96329714Y-98068333D01*
X96234476Y-98020714D01*
X96091619Y-98020714D01*
X95996380Y-98068333D01*
X95948761Y-98163571D01*
X95948761Y-98687380D01*
X95091619Y-98639761D02*
X95186857Y-98687380D01*
X95377333Y-98687380D01*
X95472571Y-98639761D01*
X95520190Y-98544523D01*
X95520190Y-98163571D01*
X95472571Y-98068333D01*
X95377333Y-98020714D01*
X95186857Y-98020714D01*
X95091619Y-98068333D01*
X95044000Y-98163571D01*
X95044000Y-98258809D01*
X95520190Y-98354047D01*
X94615428Y-98020714D02*
X94615428Y-98687380D01*
X94615428Y-98115952D02*
X94567809Y-98068333D01*
X94472571Y-98020714D01*
X94329714Y-98020714D01*
X94234476Y-98068333D01*
X94186857Y-98163571D01*
X94186857Y-98687380D01*
X93853523Y-98020714D02*
X93472571Y-98020714D01*
X93710666Y-97687380D02*
X93710666Y-98544523D01*
X93663047Y-98639761D01*
X93567809Y-98687380D01*
X93472571Y-98687380D01*
X92377333Y-98687380D02*
X92377333Y-97687380D01*
X92377333Y-98068333D02*
X92282095Y-98020714D01*
X92091619Y-98020714D01*
X91996380Y-98068333D01*
X91948761Y-98115952D01*
X91901142Y-98211190D01*
X91901142Y-98496904D01*
X91948761Y-98592142D01*
X91996380Y-98639761D01*
X92091619Y-98687380D01*
X92282095Y-98687380D01*
X92377333Y-98639761D01*
X91329714Y-98687380D02*
X91424952Y-98639761D01*
X91472571Y-98592142D01*
X91520190Y-98496904D01*
X91520190Y-98211190D01*
X91472571Y-98115952D01*
X91424952Y-98068333D01*
X91329714Y-98020714D01*
X91186857Y-98020714D01*
X91091619Y-98068333D01*
X91044000Y-98115952D01*
X90996380Y-98211190D01*
X90996380Y-98496904D01*
X91044000Y-98592142D01*
X91091619Y-98639761D01*
X91186857Y-98687380D01*
X91329714Y-98687380D01*
X90139238Y-98687380D02*
X90139238Y-98163571D01*
X90186857Y-98068333D01*
X90282095Y-98020714D01*
X90472571Y-98020714D01*
X90567809Y-98068333D01*
X90139238Y-98639761D02*
X90234476Y-98687380D01*
X90472571Y-98687380D01*
X90567809Y-98639761D01*
X90615428Y-98544523D01*
X90615428Y-98449285D01*
X90567809Y-98354047D01*
X90472571Y-98306428D01*
X90234476Y-98306428D01*
X90139238Y-98258809D01*
X89663047Y-98687380D02*
X89663047Y-98020714D01*
X89663047Y-98211190D02*
X89615428Y-98115952D01*
X89567809Y-98068333D01*
X89472571Y-98020714D01*
X89377333Y-98020714D01*
X88615428Y-98687380D02*
X88615428Y-97687380D01*
X88615428Y-98639761D02*
X88710666Y-98687380D01*
X88901142Y-98687380D01*
X88996380Y-98639761D01*
X89044000Y-98592142D01*
X89091619Y-98496904D01*
X89091619Y-98211190D01*
X89044000Y-98115952D01*
X88996380Y-98068333D01*
X88901142Y-98020714D01*
X88710666Y-98020714D01*
X88615428Y-98068333D01*
X87377333Y-98687380D02*
X87377333Y-98020714D01*
X87377333Y-98211190D02*
X87329714Y-98115952D01*
X87282095Y-98068333D01*
X87186857Y-98020714D01*
X87091619Y-98020714D01*
X86377333Y-98639761D02*
X86472571Y-98687380D01*
X86663047Y-98687380D01*
X86758285Y-98639761D01*
X86805904Y-98544523D01*
X86805904Y-98163571D01*
X86758285Y-98068333D01*
X86663047Y-98020714D01*
X86472571Y-98020714D01*
X86377333Y-98068333D01*
X86329714Y-98163571D01*
X86329714Y-98258809D01*
X86805904Y-98354047D01*
X85996380Y-98020714D02*
X85758285Y-98687380D01*
X85520190Y-98020714D01*
X84615428Y-98687380D02*
X85186857Y-98687380D01*
X84901142Y-98687380D02*
X84901142Y-97687380D01*
X84996380Y-97830238D01*
X85091619Y-97925476D01*
X85186857Y-97973095D01*
X84186857Y-98592142D02*
X84139238Y-98639761D01*
X84186857Y-98687380D01*
X84234476Y-98639761D01*
X84186857Y-98592142D01*
X84186857Y-98687380D01*
X83186857Y-98687380D02*
X83758285Y-98687380D01*
X83472571Y-98687380D02*
X83472571Y-97687380D01*
X83567809Y-97830238D01*
X83663047Y-97925476D01*
X83758285Y-97973095D01*
X106972571Y-100718333D02*
X107020190Y-100670714D01*
X107115428Y-100527857D01*
X107163047Y-100432619D01*
X107210666Y-100289761D01*
X107258285Y-100051666D01*
X107258285Y-99861190D01*
X107210666Y-99623095D01*
X107163047Y-99480238D01*
X107115428Y-99385000D01*
X107020190Y-99242142D01*
X106972571Y-99194523D01*
X106163047Y-100289761D02*
X106258285Y-100337380D01*
X106448761Y-100337380D01*
X106544000Y-100289761D01*
X106591619Y-100242142D01*
X106639238Y-100146904D01*
X106639238Y-99861190D01*
X106591619Y-99765952D01*
X106544000Y-99718333D01*
X106448761Y-99670714D01*
X106258285Y-99670714D01*
X106163047Y-99718333D01*
X105829714Y-100718333D02*
X105782095Y-100670714D01*
X105686857Y-100527857D01*
X105639238Y-100432619D01*
X105591619Y-100289761D01*
X105544000Y-100051666D01*
X105544000Y-99861190D01*
X105591619Y-99623095D01*
X105639238Y-99480238D01*
X105686857Y-99385000D01*
X105782095Y-99242142D01*
X105829714Y-99194523D01*
X104353523Y-99432619D02*
X104305904Y-99385000D01*
X104210666Y-99337380D01*
X103972571Y-99337380D01*
X103877333Y-99385000D01*
X103829714Y-99432619D01*
X103782095Y-99527857D01*
X103782095Y-99623095D01*
X103829714Y-99765952D01*
X104401142Y-100337380D01*
X103782095Y-100337380D01*
X103163047Y-99337380D02*
X103067809Y-99337380D01*
X102972571Y-99385000D01*
X102924952Y-99432619D01*
X102877333Y-99527857D01*
X102829714Y-99718333D01*
X102829714Y-99956428D01*
X102877333Y-100146904D01*
X102924952Y-100242142D01*
X102972571Y-100289761D01*
X103067809Y-100337380D01*
X103163047Y-100337380D01*
X103258285Y-100289761D01*
X103305904Y-100242142D01*
X103353523Y-100146904D01*
X103401142Y-99956428D01*
X103401142Y-99718333D01*
X103353523Y-99527857D01*
X103305904Y-99432619D01*
X103258285Y-99385000D01*
X103163047Y-99337380D01*
X102448761Y-99432619D02*
X102401142Y-99385000D01*
X102305904Y-99337380D01*
X102067809Y-99337380D01*
X101972571Y-99385000D01*
X101924952Y-99432619D01*
X101877333Y-99527857D01*
X101877333Y-99623095D01*
X101924952Y-99765952D01*
X102496380Y-100337380D01*
X101877333Y-100337380D01*
X100924952Y-100337380D02*
X101496380Y-100337380D01*
X101210666Y-100337380D02*
X101210666Y-99337380D01*
X101305904Y-99480238D01*
X101401142Y-99575476D01*
X101496380Y-99623095D01*
X99448761Y-99337380D02*
X99448761Y-100051666D01*
X99496380Y-100194523D01*
X99591619Y-100289761D01*
X99734476Y-100337380D01*
X99829714Y-100337380D01*
X98591619Y-100289761D02*
X98686857Y-100337380D01*
X98877333Y-100337380D01*
X98972571Y-100289761D01*
X99020190Y-100194523D01*
X99020190Y-99813571D01*
X98972571Y-99718333D01*
X98877333Y-99670714D01*
X98686857Y-99670714D01*
X98591619Y-99718333D01*
X98544000Y-99813571D01*
X98544000Y-99908809D01*
X99020190Y-100004047D01*
X98115428Y-100337380D02*
X98115428Y-99670714D01*
X98115428Y-99861190D02*
X98067809Y-99765952D01*
X98020190Y-99718333D01*
X97924952Y-99670714D01*
X97829714Y-99670714D01*
X97353523Y-100337380D02*
X97448761Y-100289761D01*
X97496380Y-100242142D01*
X97544000Y-100146904D01*
X97544000Y-99861190D01*
X97496380Y-99765952D01*
X97448761Y-99718333D01*
X97353523Y-99670714D01*
X97210666Y-99670714D01*
X97115428Y-99718333D01*
X97067809Y-99765952D01*
X97020190Y-99861190D01*
X97020190Y-100146904D01*
X97067809Y-100242142D01*
X97115428Y-100289761D01*
X97210666Y-100337380D01*
X97353523Y-100337380D01*
X96210666Y-100289761D02*
X96305904Y-100337380D01*
X96496380Y-100337380D01*
X96591619Y-100289761D01*
X96639238Y-100194523D01*
X96639238Y-99813571D01*
X96591619Y-99718333D01*
X96496380Y-99670714D01*
X96305904Y-99670714D01*
X96210666Y-99718333D01*
X96163047Y-99813571D01*
X96163047Y-99908809D01*
X96639238Y-100004047D01*
X95734476Y-99670714D02*
X95734476Y-100337380D01*
X95734476Y-99765952D02*
X95686857Y-99718333D01*
X95591619Y-99670714D01*
X95448761Y-99670714D01*
X95353523Y-99718333D01*
X95305904Y-99813571D01*
X95305904Y-100337380D01*
X94210666Y-99337380D02*
X93877333Y-100337380D01*
X93544000Y-99337380D01*
X92829714Y-100289761D02*
X92924952Y-100337380D01*
X93115428Y-100337380D01*
X93210666Y-100289761D01*
X93258285Y-100194523D01*
X93258285Y-99813571D01*
X93210666Y-99718333D01*
X93115428Y-99670714D01*
X92924952Y-99670714D01*
X92829714Y-99718333D01*
X92782095Y-99813571D01*
X92782095Y-99908809D01*
X93258285Y-100004047D01*
X92353523Y-99670714D02*
X92353523Y-100337380D01*
X92353523Y-99765952D02*
X92305904Y-99718333D01*
X92210666Y-99670714D01*
X92067809Y-99670714D01*
X91972571Y-99718333D01*
X91924952Y-99813571D01*
X91924952Y-100337380D01*
X91067809Y-100289761D02*
X91163047Y-100337380D01*
X91353523Y-100337380D01*
X91448761Y-100289761D01*
X91496380Y-100194523D01*
X91496380Y-99813571D01*
X91448761Y-99718333D01*
X91353523Y-99670714D01*
X91163047Y-99670714D01*
X91067809Y-99718333D01*
X91020190Y-99813571D01*
X91020190Y-99908809D01*
X91496380Y-100004047D01*
X90591619Y-100337380D02*
X90591619Y-99670714D01*
X90591619Y-99765952D02*
X90544000Y-99718333D01*
X90448761Y-99670714D01*
X90305904Y-99670714D01*
X90210666Y-99718333D01*
X90163047Y-99813571D01*
X90163047Y-100337380D01*
X90163047Y-99813571D02*
X90115428Y-99718333D01*
X90020190Y-99670714D01*
X89877333Y-99670714D01*
X89782095Y-99718333D01*
X89734476Y-99813571D01*
X89734476Y-100337380D01*
X88829714Y-100337380D02*
X88829714Y-99813571D01*
X88877333Y-99718333D01*
X88972571Y-99670714D01*
X89163047Y-99670714D01*
X89258285Y-99718333D01*
X88829714Y-100289761D02*
X88924952Y-100337380D01*
X89163047Y-100337380D01*
X89258285Y-100289761D01*
X89305904Y-100194523D01*
X89305904Y-100099285D01*
X89258285Y-100004047D01*
X89163047Y-99956428D01*
X88924952Y-99956428D01*
X88829714Y-99908809D01*
M02*
