M48
INCH
T1C0.0157
T2C0.0276
T3C0.0295
T4C0.0315
T5C0.0354
T6C0.0394
T7C0.0433
T8C0.0512
%
G90
G05
T1
X3.16Y-4.72
X3.31Y-4.21
X3.34Y-3.3
X3.55Y-3.84
X3.65Y-4.18
X3.74Y-4.1
X3.7909Y-3.954
X3.96Y-3.9
X4.01Y-4.19
X4.2Y-3.22
X4.26Y-4.47
X4.34Y-4.23
X4.57Y-4.19
X4.76Y-3.62
X4.77Y-3.85
X4.8365Y-4.1663
X5.1Y-4.21
X5.18Y-3.3
X5.22Y-4.13
X5.2787Y-3.7813
X5.32Y-3.74
X5.98Y-3.3
T2
X4.5Y-4.65
X4.7Y-4.65
T3
X3.25Y-4.65
X3.3Y-4.65
X3.35Y-4.65
T4
X3.2Y-3.75
X3.2Y-4.05
X3.3Y-3.75
X3.3Y-4.05
X3.4Y-3.75
X3.4Y-4.05
X3.42Y-3.3
X3.42Y-3.6
X3.5Y-3.75
X3.5Y-4.05
X3.5451Y-3.59
X3.55Y-4.65
X3.5516Y-3.3
X3.5516Y-3.41
X3.6Y-3.75
X3.6Y-4.05
X3.6435Y-3.59
X3.65Y-3.3
X3.65Y-3.41
X3.65Y-4.65
X3.7Y-3.75
X3.7Y-4.05
X3.75Y-4.65
X3.8Y-3.75
X3.8Y-4.05
X3.85Y-4.65
X3.9Y-3.3571
X3.9Y-3.55
X3.9Y-3.75
X3.9Y-4.05
X3.95Y-4.65
X4.0Y-3.75
X4.0Y-4.05
X4.05Y-4.65
X4.1Y-3.75
X4.1Y-4.05
X4.15Y-4.65
X4.2Y-3.75
X4.2Y-4.05
X4.25Y-4.65
X4.3Y-3.75
X4.3Y-4.05
X4.35Y-4.65
X4.4Y-3.75
X4.4Y-4.05
X4.5Y-3.75
X4.5Y-4.05
X4.7Y-3.75
X4.7Y-4.05
X4.85Y-3.75
X4.85Y-4.05
X4.85Y-4.3
X4.85Y-4.6
T5
X3.2Y-3.57
X3.2Y-4.35
X3.3Y-3.57
X3.3Y-4.35
X3.4Y-4.35
X3.5Y-4.35
X3.6Y-4.35
X3.7Y-4.35
X3.8Y-4.35
X3.9Y-4.35
X4.0Y-4.35
X4.1Y-4.35
X4.2Y-4.35
X4.3Y-4.35
X4.4Y-4.35
X4.5Y-4.35
X4.6Y-4.35
X4.7Y-4.35
T6
X3.25Y-3.3
X3.25Y-3.4
X4.15Y-3.4
X4.15Y-3.5
X4.15Y-3.6
X4.3Y-3.4
X4.3Y-3.5
X4.3Y-3.6
X5.1Y-3.3
X5.1Y-3.4
X5.1Y-3.5
X5.1Y-3.75
X5.1Y-3.85
X5.1Y-3.95
X5.1Y-4.05
X5.35Y-3.85
X5.35Y-3.95
X5.35Y-4.05
X5.39Y-3.3
X5.39Y-3.4
X5.39Y-3.5
X5.49Y-3.3
X5.49Y-3.4
X5.49Y-3.5
X5.6Y-3.85
X5.6Y-3.95
X5.7Y-3.3
X5.7Y-3.4
X5.7Y-3.5
X5.85Y-3.85
X5.85Y-3.95
X5.85Y-4.05
X5.9Y-3.3
X5.9Y-3.4
X6.1Y-3.85
X6.1Y-3.95
X6.1Y-4.05
T7
X5.45Y-4.4
X5.45Y-4.5772
X5.7059Y-4.4
X5.7059Y-4.5772
X5.85Y-4.4
X5.85Y-4.5772
X6.1059Y-4.4
X6.1059Y-4.5772
T8
X5.05Y-4.3531
X5.05Y-4.55
X5.2469Y-4.4516
T0
M30
