G04 #@! TF.GenerationSoftware,KiCad,Pcbnew,5.1.9-73d0e3b20d~88~ubuntu20.04.1*
G04 #@! TF.CreationDate,2021-01-16T14:01:42+01:00*
G04 #@! TF.ProjectId,test,74657374-2e6b-4696-9361-645f70636258,rev?*
G04 #@! TF.SameCoordinates,Original*
G04 #@! TF.FileFunction,Soldermask,Bot*
G04 #@! TF.FilePolarity,Negative*
%FSLAX46Y46*%
G04 Gerber Fmt 4.6, Leading zero omitted, Abs format (unit mm)*
G04 Created by KiCad (PCBNEW 5.1.9-73d0e3b20d~88~ubuntu20.04.1) date 2021-01-16 14:01:42*
%MOMM*%
%LPD*%
G01*
G04 APERTURE LIST*
%ADD10O,1.700000X1.700000*%
%ADD11R,1.700000X1.700000*%
%ADD12O,1.400000X1.400000*%
%ADD13C,1.400000*%
%ADD14C,1.500000*%
%ADD15O,1.600000X1.600000*%
%ADD16R,1.600000X1.600000*%
%ADD17C,2.000000*%
%ADD18C,2.340000*%
%ADD19C,1.600000*%
%ADD20R,1.050000X1.500000*%
%ADD21O,1.050000X1.500000*%
%ADD22C,1.800000*%
%ADD23R,1.800000X1.800000*%
G04 APERTURE END LIST*
D10*
X149860000Y-86360000D03*
D11*
X149860000Y-83820000D03*
D10*
X142240000Y-100330000D03*
D11*
X142240000Y-97790000D03*
D10*
X139446000Y-88900000D03*
X136906000Y-88900000D03*
X139446000Y-86360000D03*
X136906000Y-86360000D03*
X139446000Y-83820000D03*
D11*
X136906000Y-83820000D03*
D12*
X119380000Y-118110000D03*
D13*
X114300000Y-118110000D03*
D14*
X99060000Y-85270000D03*
X99060000Y-90170000D03*
D15*
X114300000Y-102870000D03*
X81280000Y-95250000D03*
X111760000Y-102870000D03*
X83820000Y-95250000D03*
X109220000Y-102870000D03*
X86360000Y-95250000D03*
X106680000Y-102870000D03*
X88900000Y-95250000D03*
X104140000Y-102870000D03*
X91440000Y-95250000D03*
X101600000Y-102870000D03*
X93980000Y-95250000D03*
X99060000Y-102870000D03*
X96520000Y-95250000D03*
X96520000Y-102870000D03*
X99060000Y-95250000D03*
X93980000Y-102870000D03*
X101600000Y-95250000D03*
X91440000Y-102870000D03*
X104140000Y-95250000D03*
X88900000Y-102870000D03*
X106680000Y-95250000D03*
X86360000Y-102870000D03*
X109220000Y-95250000D03*
X83820000Y-102870000D03*
X111760000Y-95250000D03*
X81280000Y-102870000D03*
D16*
X114300000Y-95250000D03*
D17*
X155090000Y-111760000D03*
X155090000Y-116260000D03*
X148590000Y-111760000D03*
X148590000Y-116260000D03*
X144930000Y-111760000D03*
X144930000Y-116260000D03*
X138430000Y-111760000D03*
X138430000Y-116260000D03*
D18*
X128270000Y-115570000D03*
X133270000Y-113070000D03*
X128270000Y-110570000D03*
D15*
X90170000Y-118110000D03*
X92710000Y-118110000D03*
X95250000Y-118110000D03*
X97790000Y-118110000D03*
X100330000Y-118110000D03*
X102870000Y-118110000D03*
X105410000Y-118110000D03*
X107950000Y-118110000D03*
D16*
X110490000Y-118110000D03*
D15*
X119380000Y-95250000D03*
D19*
X119380000Y-102870000D03*
D15*
X123190000Y-95250000D03*
D19*
X123190000Y-102870000D03*
D15*
X123190000Y-109220000D03*
D19*
X123190000Y-116840000D03*
D15*
X86868000Y-83820000D03*
D19*
X86868000Y-91440000D03*
D20*
X82550000Y-118110000D03*
D21*
X85090000Y-118110000D03*
X83820000Y-118110000D03*
D10*
X154940000Y-102870000D03*
X154940000Y-100330000D03*
D11*
X154940000Y-97790000D03*
D10*
X148590000Y-102870000D03*
X148590000Y-100330000D03*
D11*
X148590000Y-97790000D03*
D10*
X109220000Y-91440000D03*
X109220000Y-88900000D03*
D11*
X109220000Y-86360000D03*
D10*
X135890000Y-102870000D03*
X135890000Y-100330000D03*
D11*
X135890000Y-97790000D03*
D10*
X105410000Y-91440000D03*
X105410000Y-88900000D03*
D11*
X105410000Y-86360000D03*
D10*
X129540000Y-102870000D03*
X129540000Y-100330000D03*
X129540000Y-97790000D03*
D11*
X129540000Y-95250000D03*
D10*
X144780000Y-88900000D03*
X144780000Y-86360000D03*
D11*
X144780000Y-83820000D03*
D10*
X82550000Y-86360000D03*
D11*
X82550000Y-83820000D03*
D10*
X129540000Y-88900000D03*
X129540000Y-86360000D03*
D11*
X129540000Y-83820000D03*
D22*
X83820000Y-110490000D03*
D23*
X81280000Y-110490000D03*
D22*
X88900000Y-110490000D03*
D23*
X86360000Y-110490000D03*
D22*
X93980000Y-110490000D03*
D23*
X91440000Y-110490000D03*
D22*
X99060000Y-110490000D03*
D23*
X96520000Y-110490000D03*
D22*
X104140000Y-110490000D03*
D23*
X101600000Y-110490000D03*
D22*
X109220000Y-110490000D03*
D23*
X106680000Y-110490000D03*
D22*
X114300000Y-110490000D03*
D23*
X111760000Y-110490000D03*
D22*
X119380000Y-110490000D03*
D23*
X116840000Y-110490000D03*
D22*
X83820000Y-90678000D03*
D23*
X81280000Y-90678000D03*
D19*
X90210000Y-83820000D03*
X92710000Y-83820000D03*
X90210000Y-86614000D03*
X92710000Y-86614000D03*
X90044900Y-91186000D03*
X92544900Y-91186000D03*
M02*
