G04 #@! TF.GenerationSoftware,KiCad,Pcbnew,5.1.9-73d0e3b20d~88~ubuntu20.04.1*
G04 #@! TF.CreationDate,2021-01-16T14:01:42+01:00*
G04 #@! TF.ProjectId,test,74657374-2e6b-4696-9361-645f70636258,rev?*
G04 #@! TF.SameCoordinates,Original*
G04 #@! TF.FileFunction,Copper,L2,Bot*
G04 #@! TF.FilePolarity,Positive*
%FSLAX46Y46*%
G04 Gerber Fmt 4.6, Leading zero omitted, Abs format (unit mm)*
G04 Created by KiCad (PCBNEW 5.1.9-73d0e3b20d~88~ubuntu20.04.1) date 2021-01-16 14:01:42*
%MOMM*%
%LPD*%
G01*
G04 APERTURE LIST*
G04 #@! TA.AperFunction,ComponentPad*
%ADD10O,1.700000X1.700000*%
G04 #@! TD*
G04 #@! TA.AperFunction,ComponentPad*
%ADD11R,1.700000X1.700000*%
G04 #@! TD*
G04 #@! TA.AperFunction,ComponentPad*
%ADD12O,1.400000X1.400000*%
G04 #@! TD*
G04 #@! TA.AperFunction,ComponentPad*
%ADD13C,1.400000*%
G04 #@! TD*
G04 #@! TA.AperFunction,ComponentPad*
%ADD14C,1.500000*%
G04 #@! TD*
G04 #@! TA.AperFunction,ComponentPad*
%ADD15O,1.600000X1.600000*%
G04 #@! TD*
G04 #@! TA.AperFunction,ComponentPad*
%ADD16R,1.600000X1.600000*%
G04 #@! TD*
G04 #@! TA.AperFunction,ComponentPad*
%ADD17C,2.000000*%
G04 #@! TD*
G04 #@! TA.AperFunction,ComponentPad*
%ADD18C,2.340000*%
G04 #@! TD*
G04 #@! TA.AperFunction,ComponentPad*
%ADD19C,1.600000*%
G04 #@! TD*
G04 #@! TA.AperFunction,ComponentPad*
%ADD20R,1.050000X1.500000*%
G04 #@! TD*
G04 #@! TA.AperFunction,ComponentPad*
%ADD21O,1.050000X1.500000*%
G04 #@! TD*
G04 #@! TA.AperFunction,ComponentPad*
%ADD22C,1.800000*%
G04 #@! TD*
G04 #@! TA.AperFunction,ComponentPad*
%ADD23R,1.800000X1.800000*%
G04 #@! TD*
G04 #@! TA.AperFunction,ViaPad*
%ADD24C,0.800000*%
G04 #@! TD*
G04 #@! TA.AperFunction,Conductor*
%ADD25C,0.250000*%
G04 #@! TD*
G04 #@! TA.AperFunction,Conductor*
%ADD26C,0.254000*%
G04 #@! TD*
G04 #@! TA.AperFunction,Conductor*
%ADD27C,0.150000*%
G04 #@! TD*
G04 APERTURE END LIST*
D10*
X149860000Y-86360000D03*
D11*
X149860000Y-83820000D03*
D10*
X142240000Y-100330000D03*
D11*
X142240000Y-97790000D03*
D10*
X139446000Y-88900000D03*
X136906000Y-88900000D03*
X139446000Y-86360000D03*
X136906000Y-86360000D03*
X139446000Y-83820000D03*
D11*
X136906000Y-83820000D03*
D12*
X119380000Y-118110000D03*
D13*
X114300000Y-118110000D03*
D14*
X99060000Y-85270000D03*
X99060000Y-90170000D03*
D15*
X114300000Y-102870000D03*
X81280000Y-95250000D03*
X111760000Y-102870000D03*
X83820000Y-95250000D03*
X109220000Y-102870000D03*
X86360000Y-95250000D03*
X106680000Y-102870000D03*
X88900000Y-95250000D03*
X104140000Y-102870000D03*
X91440000Y-95250000D03*
X101600000Y-102870000D03*
X93980000Y-95250000D03*
X99060000Y-102870000D03*
X96520000Y-95250000D03*
X96520000Y-102870000D03*
X99060000Y-95250000D03*
X93980000Y-102870000D03*
X101600000Y-95250000D03*
X91440000Y-102870000D03*
X104140000Y-95250000D03*
X88900000Y-102870000D03*
X106680000Y-95250000D03*
X86360000Y-102870000D03*
X109220000Y-95250000D03*
X83820000Y-102870000D03*
X111760000Y-95250000D03*
X81280000Y-102870000D03*
D16*
X114300000Y-95250000D03*
D17*
X155090000Y-111760000D03*
X155090000Y-116260000D03*
X148590000Y-111760000D03*
X148590000Y-116260000D03*
X144930000Y-111760000D03*
X144930000Y-116260000D03*
X138430000Y-111760000D03*
X138430000Y-116260000D03*
D18*
X128270000Y-115570000D03*
X133270000Y-113070000D03*
X128270000Y-110570000D03*
D15*
X90170000Y-118110000D03*
X92710000Y-118110000D03*
X95250000Y-118110000D03*
X97790000Y-118110000D03*
X100330000Y-118110000D03*
X102870000Y-118110000D03*
X105410000Y-118110000D03*
X107950000Y-118110000D03*
D16*
X110490000Y-118110000D03*
D15*
X119380000Y-95250000D03*
D19*
X119380000Y-102870000D03*
D15*
X123190000Y-95250000D03*
D19*
X123190000Y-102870000D03*
D15*
X123190000Y-109220000D03*
D19*
X123190000Y-116840000D03*
D15*
X86868000Y-83820000D03*
D19*
X86868000Y-91440000D03*
D20*
X82550000Y-118110000D03*
D21*
X85090000Y-118110000D03*
X83820000Y-118110000D03*
D10*
X154940000Y-102870000D03*
X154940000Y-100330000D03*
D11*
X154940000Y-97790000D03*
D10*
X148590000Y-102870000D03*
X148590000Y-100330000D03*
D11*
X148590000Y-97790000D03*
D10*
X109220000Y-91440000D03*
X109220000Y-88900000D03*
D11*
X109220000Y-86360000D03*
D10*
X135890000Y-102870000D03*
X135890000Y-100330000D03*
D11*
X135890000Y-97790000D03*
D10*
X105410000Y-91440000D03*
X105410000Y-88900000D03*
D11*
X105410000Y-86360000D03*
D10*
X129540000Y-102870000D03*
X129540000Y-100330000D03*
X129540000Y-97790000D03*
D11*
X129540000Y-95250000D03*
D10*
X144780000Y-88900000D03*
X144780000Y-86360000D03*
D11*
X144780000Y-83820000D03*
D10*
X82550000Y-86360000D03*
D11*
X82550000Y-83820000D03*
D10*
X129540000Y-88900000D03*
X129540000Y-86360000D03*
D11*
X129540000Y-83820000D03*
D22*
X83820000Y-110490000D03*
D23*
X81280000Y-110490000D03*
D22*
X88900000Y-110490000D03*
D23*
X86360000Y-110490000D03*
D22*
X93980000Y-110490000D03*
D23*
X91440000Y-110490000D03*
D22*
X99060000Y-110490000D03*
D23*
X96520000Y-110490000D03*
D22*
X104140000Y-110490000D03*
D23*
X101600000Y-110490000D03*
D22*
X109220000Y-110490000D03*
D23*
X106680000Y-110490000D03*
D22*
X114300000Y-110490000D03*
D23*
X111760000Y-110490000D03*
D22*
X119380000Y-110490000D03*
D23*
X116840000Y-110490000D03*
D22*
X83820000Y-90678000D03*
D23*
X81280000Y-90678000D03*
D19*
X90210000Y-83820000D03*
X92710000Y-83820000D03*
X90210000Y-86614000D03*
X92710000Y-86614000D03*
X90044900Y-91186000D03*
X92544900Y-91186000D03*
D24*
X131572000Y-83820000D03*
X151892000Y-83820000D03*
X110236000Y-107442000D03*
X108204000Y-113538000D03*
X129540000Y-106934000D03*
X101854000Y-106426000D03*
X116078000Y-106426000D03*
X96289871Y-100431030D03*
X90170000Y-97536000D03*
X80264000Y-119888000D03*
X84836000Y-83820000D03*
X100584000Y-99060000D03*
X134078839Y-96045161D03*
X135128000Y-94996000D03*
X122847180Y-105823021D03*
X132588000Y-104902002D03*
X106680000Y-81788000D03*
X120904000Y-91948000D03*
X84074000Y-106934000D03*
X92710000Y-106172000D03*
X121158000Y-97790000D03*
X94996000Y-104140000D03*
D25*
X90044900Y-91819100D02*
X90044900Y-91186000D01*
X123190000Y-109220000D02*
X127254000Y-109220000D01*
X127399001Y-109074999D02*
X129540000Y-106934000D01*
X127254000Y-109220000D02*
X127399001Y-109074999D01*
X123190000Y-110490000D02*
X128270000Y-115570000D01*
X123190000Y-109220000D02*
X123190000Y-110490000D01*
X137740000Y-115570000D02*
X138430000Y-116260000D01*
X128270000Y-115570000D02*
X137740000Y-115570000D01*
X138430000Y-116260000D02*
X144930000Y-116260000D01*
X144930000Y-116260000D02*
X148590000Y-116260000D01*
X148590000Y-116260000D02*
X155090000Y-116260000D01*
X114808000Y-106426000D02*
X116078000Y-106426000D01*
X110445001Y-111296999D02*
X108204000Y-113538000D01*
X110445001Y-107651001D02*
X110445001Y-111296999D01*
X110236000Y-107442000D02*
X110445001Y-107651001D01*
X110236000Y-107442000D02*
X110236000Y-106426000D01*
X110236000Y-106426000D02*
X114808000Y-106426000D01*
X101854000Y-106426000D02*
X110236000Y-106426000D01*
X99060000Y-102870000D02*
X96621030Y-100431030D01*
X96621030Y-100431030D02*
X96289871Y-100431030D01*
X90044900Y-91186000D02*
X90044900Y-94108900D01*
X90044900Y-94108900D02*
X90170000Y-94234000D01*
X90170000Y-94234000D02*
X90170000Y-97536000D01*
X119380000Y-102870000D02*
X119380000Y-101600000D01*
X119380000Y-101600000D02*
X117856000Y-100076000D01*
X101600000Y-100076000D02*
X100584000Y-99060000D01*
X117856000Y-100076000D02*
X101600000Y-100076000D01*
X86068001Y-92239999D02*
X86868000Y-91440000D01*
X82841999Y-92239999D02*
X86068001Y-92239999D01*
X81280000Y-90678000D02*
X82841999Y-92239999D01*
X111149991Y-119635011D02*
X119380000Y-111405002D01*
X81578599Y-119635011D02*
X111149991Y-119635011D01*
X119380000Y-111405002D02*
X119380000Y-110490000D01*
X80010000Y-118066412D02*
X81578599Y-119635011D01*
X80010000Y-96520000D02*
X80010000Y-118066412D01*
X81280000Y-95250000D02*
X80010000Y-96520000D01*
X115199999Y-109590001D02*
X114300000Y-110490000D01*
X118241977Y-106548023D02*
X115199999Y-109590001D01*
X123195182Y-106548023D02*
X118241977Y-106548023D01*
X123702893Y-106040312D02*
X123195182Y-106548023D01*
X145419688Y-106040312D02*
X123702893Y-106040312D01*
X148590000Y-102870000D02*
X145419688Y-106040312D01*
X85045001Y-104095001D02*
X83820000Y-102870000D01*
X85045001Y-111560003D02*
X85045001Y-104095001D01*
X85695007Y-112210009D02*
X85045001Y-111560003D01*
X89502185Y-112210009D02*
X85695007Y-112210009D01*
X89952196Y-112660020D02*
X89502185Y-112210009D01*
X109220000Y-110490000D02*
X107049980Y-112660020D01*
X107049980Y-112660020D02*
X89952196Y-112660020D01*
X135128000Y-94996000D02*
X134078839Y-96045161D01*
X87674999Y-105316369D02*
X86360000Y-104001370D01*
X87674999Y-111461001D02*
X87674999Y-105316369D01*
X89643588Y-111715001D02*
X87928999Y-111715001D01*
X90138596Y-112210009D02*
X89643588Y-111715001D01*
X102419991Y-112210009D02*
X90138596Y-112210009D01*
X104140000Y-110490000D02*
X102419991Y-112210009D01*
X87928999Y-111715001D02*
X87674999Y-111461001D01*
X86360000Y-104001370D02*
X86360000Y-102870000D01*
X123114202Y-105555999D02*
X131934003Y-105555999D01*
X131934003Y-105555999D02*
X132588000Y-104902002D01*
X122847180Y-105823021D02*
X123114202Y-105555999D01*
X97834999Y-111715001D02*
X90279999Y-111715001D01*
X90214999Y-104184999D02*
X88900000Y-102870000D01*
X90214999Y-111650001D02*
X90214999Y-104184999D01*
X90279999Y-111715001D02*
X90214999Y-111650001D01*
X99060000Y-110490000D02*
X97834999Y-111715001D01*
X93980000Y-110490000D02*
X91440000Y-107950000D01*
X91440000Y-107950000D02*
X91440000Y-102870000D01*
X102474998Y-92710000D02*
X118364998Y-92710000D01*
X100330000Y-94854998D02*
X102474998Y-92710000D01*
X100330000Y-95758000D02*
X100330000Y-94854998D01*
X96831991Y-99256009D02*
X100330000Y-95758000D01*
X132334000Y-90932000D02*
X136906000Y-86360000D01*
X118364998Y-92710000D02*
X120142998Y-90932000D01*
X95053991Y-99256009D02*
X96831991Y-99256009D01*
X120142998Y-90932000D02*
X132334000Y-90932000D01*
X91440000Y-102870000D02*
X95053991Y-99256009D01*
X92710000Y-97028000D02*
X92710000Y-94292587D01*
X87630000Y-102108000D02*
X92710000Y-97028000D01*
X92710000Y-94292587D02*
X100642587Y-86360000D01*
X87630000Y-103632000D02*
X87630000Y-102108000D01*
X100642587Y-86360000D02*
X105410000Y-86360000D01*
X88900000Y-104902000D02*
X87630000Y-103632000D01*
X88900000Y-110490000D02*
X88900000Y-104902000D01*
X109220000Y-84328000D02*
X106680000Y-81788000D01*
X109220000Y-86360000D02*
X109220000Y-84328000D01*
X133858000Y-91948000D02*
X136906000Y-88900000D01*
X120904000Y-91948000D02*
X133858000Y-91948000D01*
X82594999Y-115884999D02*
X82594999Y-108159001D01*
X83820000Y-117110000D02*
X82594999Y-115884999D01*
X83820000Y-118110000D02*
X83820000Y-117110000D01*
X83820000Y-106934000D02*
X84074000Y-106934000D01*
X82594999Y-108159001D02*
X83820000Y-106934000D01*
X92710000Y-102490411D02*
X95494391Y-99706020D01*
X92710000Y-106172000D02*
X92710000Y-102490411D01*
X99696410Y-97028000D02*
X106567002Y-97028000D01*
X112522000Y-97028000D02*
X114300000Y-95250000D01*
X95494391Y-99706020D02*
X97018391Y-99706020D01*
X97018391Y-99706020D02*
X99696410Y-97028000D01*
X109833004Y-97028000D02*
X112522000Y-97028000D01*
X109833004Y-97028000D02*
X106680000Y-97028000D01*
X104939999Y-94450001D02*
X104140000Y-95250000D01*
X106165023Y-93224977D02*
X104939999Y-94450001D01*
X124349824Y-93472000D02*
X124102801Y-93224977D01*
X140207002Y-93472000D02*
X124349824Y-93472000D01*
X143415001Y-96679999D02*
X140207002Y-93472000D01*
X124102801Y-93224977D02*
X106165023Y-93224977D01*
X143415001Y-99154999D02*
X143415001Y-96679999D01*
X142240000Y-100330000D02*
X143415001Y-99154999D01*
X123916401Y-93674988D02*
X108255012Y-93674988D01*
X124316411Y-94074999D02*
X123916401Y-93674988D01*
X108255012Y-93674988D02*
X107479999Y-94450001D01*
X107479999Y-94450001D02*
X106680000Y-95250000D01*
X138524999Y-94074999D02*
X124316411Y-94074999D01*
X142240000Y-97790000D02*
X138524999Y-94074999D01*
X144780000Y-93980000D02*
X148590000Y-97790000D01*
X144780000Y-88900000D02*
X144780000Y-93980000D01*
X145955001Y-87535001D02*
X144780000Y-86360000D01*
X145955001Y-91345001D02*
X145955001Y-87535001D01*
X154940000Y-100330000D02*
X145955001Y-91345001D01*
X149860000Y-86360000D02*
X156972000Y-93472000D01*
X156972000Y-100838000D02*
X154940000Y-102870000D01*
X156972000Y-93472000D02*
X156972000Y-100838000D01*
X121158000Y-97282000D02*
X121158000Y-97790000D01*
X123190000Y-95250000D02*
X121158000Y-97282000D01*
X127395002Y-97790000D02*
X123730001Y-94124999D01*
X129540000Y-97790000D02*
X127395002Y-97790000D01*
X120505001Y-94124999D02*
X119380000Y-95250000D01*
X123730001Y-94124999D02*
X120505001Y-94124999D01*
X97790000Y-91440000D02*
X93980000Y-95250000D01*
X99788499Y-91440000D02*
X97790000Y-91440000D01*
X102328499Y-88900000D02*
X99788499Y-91440000D01*
X105410000Y-88900000D02*
X102328499Y-88900000D01*
X133819002Y-100330000D02*
X129501002Y-104648000D01*
X135890000Y-100330000D02*
X133819002Y-100330000D01*
X103378000Y-104648000D02*
X101600000Y-102870000D01*
X129501002Y-104648000D02*
X103378000Y-104648000D01*
X108044999Y-86709997D02*
X108044999Y-87724999D01*
X101181177Y-85184999D02*
X106520001Y-85184999D01*
X91440000Y-94926176D02*
X101181177Y-85184999D01*
X91440000Y-95250000D02*
X91440000Y-94926176D01*
X106520001Y-85184999D02*
X108044999Y-86709997D01*
X108044999Y-87724999D02*
X109220000Y-88900000D01*
X144780000Y-104140000D02*
X148590000Y-100330000D01*
X132022996Y-104140000D02*
X144780000Y-104140000D01*
X131064985Y-105098011D02*
X132022996Y-104140000D01*
X95954011Y-105098011D02*
X131064985Y-105098011D01*
X94996000Y-104140000D02*
X95954011Y-105098011D01*
D26*
X157811000Y-120981000D02*
X78917000Y-120981000D01*
X78917000Y-96520000D01*
X79246324Y-96520000D01*
X79250000Y-96557322D01*
X79250001Y-118029079D01*
X79246324Y-118066412D01*
X79250001Y-118103745D01*
X79260998Y-118215398D01*
X79267551Y-118237000D01*
X79304454Y-118358658D01*
X79375026Y-118490688D01*
X79433879Y-118562400D01*
X79470000Y-118606413D01*
X79498998Y-118630211D01*
X81014800Y-120146014D01*
X81038598Y-120175012D01*
X81067596Y-120198810D01*
X81154322Y-120269985D01*
X81286352Y-120340557D01*
X81429613Y-120384014D01*
X81541266Y-120395011D01*
X81541276Y-120395011D01*
X81578599Y-120398687D01*
X81615921Y-120395011D01*
X111112669Y-120395011D01*
X111149991Y-120398687D01*
X111187313Y-120395011D01*
X111187324Y-120395011D01*
X111298977Y-120384014D01*
X111442238Y-120340557D01*
X111574267Y-120269985D01*
X111689992Y-120175012D01*
X111713795Y-120146008D01*
X113117141Y-118742662D01*
X113263038Y-118961013D01*
X113448987Y-119146962D01*
X113667641Y-119293061D01*
X113910595Y-119393696D01*
X114168514Y-119445000D01*
X114431486Y-119445000D01*
X114689405Y-119393696D01*
X114932359Y-119293061D01*
X115151013Y-119146962D01*
X115336962Y-118961013D01*
X115483061Y-118742359D01*
X115583696Y-118499405D01*
X115635000Y-118241486D01*
X115635000Y-117978514D01*
X118045000Y-117978514D01*
X118045000Y-118241486D01*
X118096304Y-118499405D01*
X118196939Y-118742359D01*
X118343038Y-118961013D01*
X118528987Y-119146962D01*
X118747641Y-119293061D01*
X118990595Y-119393696D01*
X119248514Y-119445000D01*
X119511486Y-119445000D01*
X119769405Y-119393696D01*
X120012359Y-119293061D01*
X120231013Y-119146962D01*
X120416962Y-118961013D01*
X120563061Y-118742359D01*
X120663696Y-118499405D01*
X120715000Y-118241486D01*
X120715000Y-117978514D01*
X120663696Y-117720595D01*
X120563061Y-117477641D01*
X120416962Y-117258987D01*
X120231013Y-117073038D01*
X120012359Y-116926939D01*
X119769405Y-116826304D01*
X119511486Y-116775000D01*
X119248514Y-116775000D01*
X118990595Y-116826304D01*
X118747641Y-116926939D01*
X118528987Y-117073038D01*
X118343038Y-117258987D01*
X118196939Y-117477641D01*
X118096304Y-117720595D01*
X118045000Y-117978514D01*
X115635000Y-117978514D01*
X115583696Y-117720595D01*
X115483061Y-117477641D01*
X115336962Y-117258987D01*
X115151013Y-117073038D01*
X114932662Y-116927141D01*
X115161138Y-116698665D01*
X121755000Y-116698665D01*
X121755000Y-116981335D01*
X121810147Y-117258574D01*
X121918320Y-117519727D01*
X122075363Y-117754759D01*
X122275241Y-117954637D01*
X122510273Y-118111680D01*
X122771426Y-118219853D01*
X123048665Y-118275000D01*
X123331335Y-118275000D01*
X123608574Y-118219853D01*
X123869727Y-118111680D01*
X124104759Y-117954637D01*
X124304637Y-117754759D01*
X124461680Y-117519727D01*
X124513172Y-117395413D01*
X137474192Y-117395413D01*
X137569956Y-117659814D01*
X137859571Y-117800704D01*
X138171108Y-117882384D01*
X138492595Y-117901718D01*
X138811675Y-117857961D01*
X139116088Y-117752795D01*
X139290044Y-117659814D01*
X139385808Y-117395413D01*
X143974192Y-117395413D01*
X144069956Y-117659814D01*
X144359571Y-117800704D01*
X144671108Y-117882384D01*
X144992595Y-117901718D01*
X145311675Y-117857961D01*
X145616088Y-117752795D01*
X145790044Y-117659814D01*
X145885808Y-117395413D01*
X147634192Y-117395413D01*
X147729956Y-117659814D01*
X148019571Y-117800704D01*
X148331108Y-117882384D01*
X148652595Y-117901718D01*
X148971675Y-117857961D01*
X149276088Y-117752795D01*
X149450044Y-117659814D01*
X149545808Y-117395413D01*
X154134192Y-117395413D01*
X154229956Y-117659814D01*
X154519571Y-117800704D01*
X154831108Y-117882384D01*
X155152595Y-117901718D01*
X155471675Y-117857961D01*
X155776088Y-117752795D01*
X155950044Y-117659814D01*
X156045808Y-117395413D01*
X155090000Y-116439605D01*
X154134192Y-117395413D01*
X149545808Y-117395413D01*
X148590000Y-116439605D01*
X147634192Y-117395413D01*
X145885808Y-117395413D01*
X144930000Y-116439605D01*
X143974192Y-117395413D01*
X139385808Y-117395413D01*
X138430000Y-116439605D01*
X137474192Y-117395413D01*
X124513172Y-117395413D01*
X124569853Y-117258574D01*
X124625000Y-116981335D01*
X124625000Y-116826602D01*
X127193003Y-116826602D01*
X127309275Y-117108389D01*
X127627860Y-117266257D01*
X127971122Y-117358938D01*
X128325869Y-117382873D01*
X128678470Y-117337139D01*
X129015373Y-117223495D01*
X129230725Y-117108389D01*
X129346997Y-116826602D01*
X128270000Y-115749605D01*
X127193003Y-116826602D01*
X124625000Y-116826602D01*
X124625000Y-116698665D01*
X124569853Y-116421426D01*
X124461680Y-116160273D01*
X124304637Y-115925241D01*
X124104759Y-115725363D01*
X123955856Y-115625869D01*
X126457127Y-115625869D01*
X126502861Y-115978470D01*
X126616505Y-116315373D01*
X126731611Y-116530725D01*
X127013398Y-116646997D01*
X128090395Y-115570000D01*
X128449605Y-115570000D01*
X129526602Y-116646997D01*
X129808389Y-116530725D01*
X129911523Y-116322595D01*
X136788282Y-116322595D01*
X136832039Y-116641675D01*
X136937205Y-116946088D01*
X137030186Y-117120044D01*
X137294587Y-117215808D01*
X138250395Y-116260000D01*
X138609605Y-116260000D01*
X139565413Y-117215808D01*
X139829814Y-117120044D01*
X139970704Y-116830429D01*
X140052384Y-116518892D01*
X140064189Y-116322595D01*
X143288282Y-116322595D01*
X143332039Y-116641675D01*
X143437205Y-116946088D01*
X143530186Y-117120044D01*
X143794587Y-117215808D01*
X144750395Y-116260000D01*
X145109605Y-116260000D01*
X146065413Y-117215808D01*
X146329814Y-117120044D01*
X146470704Y-116830429D01*
X146552384Y-116518892D01*
X146564189Y-116322595D01*
X146948282Y-116322595D01*
X146992039Y-116641675D01*
X147097205Y-116946088D01*
X147190186Y-117120044D01*
X147454587Y-117215808D01*
X148410395Y-116260000D01*
X148769605Y-116260000D01*
X149725413Y-117215808D01*
X149989814Y-117120044D01*
X150130704Y-116830429D01*
X150212384Y-116518892D01*
X150224189Y-116322595D01*
X153448282Y-116322595D01*
X153492039Y-116641675D01*
X153597205Y-116946088D01*
X153690186Y-117120044D01*
X153954587Y-117215808D01*
X154910395Y-116260000D01*
X155269605Y-116260000D01*
X156225413Y-117215808D01*
X156489814Y-117120044D01*
X156630704Y-116830429D01*
X156712384Y-116518892D01*
X156731718Y-116197405D01*
X156687961Y-115878325D01*
X156582795Y-115573912D01*
X156489814Y-115399956D01*
X156225413Y-115304192D01*
X155269605Y-116260000D01*
X154910395Y-116260000D01*
X153954587Y-115304192D01*
X153690186Y-115399956D01*
X153549296Y-115689571D01*
X153467616Y-116001108D01*
X153448282Y-116322595D01*
X150224189Y-116322595D01*
X150231718Y-116197405D01*
X150187961Y-115878325D01*
X150082795Y-115573912D01*
X149989814Y-115399956D01*
X149725413Y-115304192D01*
X148769605Y-116260000D01*
X148410395Y-116260000D01*
X147454587Y-115304192D01*
X147190186Y-115399956D01*
X147049296Y-115689571D01*
X146967616Y-116001108D01*
X146948282Y-116322595D01*
X146564189Y-116322595D01*
X146571718Y-116197405D01*
X146527961Y-115878325D01*
X146422795Y-115573912D01*
X146329814Y-115399956D01*
X146065413Y-115304192D01*
X145109605Y-116260000D01*
X144750395Y-116260000D01*
X143794587Y-115304192D01*
X143530186Y-115399956D01*
X143389296Y-115689571D01*
X143307616Y-116001108D01*
X143288282Y-116322595D01*
X140064189Y-116322595D01*
X140071718Y-116197405D01*
X140027961Y-115878325D01*
X139922795Y-115573912D01*
X139829814Y-115399956D01*
X139565413Y-115304192D01*
X138609605Y-116260000D01*
X138250395Y-116260000D01*
X137294587Y-115304192D01*
X137030186Y-115399956D01*
X136889296Y-115689571D01*
X136807616Y-116001108D01*
X136788282Y-116322595D01*
X129911523Y-116322595D01*
X129966257Y-116212140D01*
X130058938Y-115868878D01*
X130082873Y-115514131D01*
X130037139Y-115161530D01*
X130024678Y-115124587D01*
X137474192Y-115124587D01*
X138430000Y-116080395D01*
X139385808Y-115124587D01*
X143974192Y-115124587D01*
X144930000Y-116080395D01*
X145885808Y-115124587D01*
X147634192Y-115124587D01*
X148590000Y-116080395D01*
X149545808Y-115124587D01*
X154134192Y-115124587D01*
X155090000Y-116080395D01*
X156045808Y-115124587D01*
X155950044Y-114860186D01*
X155660429Y-114719296D01*
X155348892Y-114637616D01*
X155027405Y-114618282D01*
X154708325Y-114662039D01*
X154403912Y-114767205D01*
X154229956Y-114860186D01*
X154134192Y-115124587D01*
X149545808Y-115124587D01*
X149450044Y-114860186D01*
X149160429Y-114719296D01*
X148848892Y-114637616D01*
X148527405Y-114618282D01*
X148208325Y-114662039D01*
X147903912Y-114767205D01*
X147729956Y-114860186D01*
X147634192Y-115124587D01*
X145885808Y-115124587D01*
X145790044Y-114860186D01*
X145500429Y-114719296D01*
X145188892Y-114637616D01*
X144867405Y-114618282D01*
X144548325Y-114662039D01*
X144243912Y-114767205D01*
X144069956Y-114860186D01*
X143974192Y-115124587D01*
X139385808Y-115124587D01*
X139290044Y-114860186D01*
X139000429Y-114719296D01*
X138688892Y-114637616D01*
X138367405Y-114618282D01*
X138048325Y-114662039D01*
X137743912Y-114767205D01*
X137569956Y-114860186D01*
X137474192Y-115124587D01*
X130024678Y-115124587D01*
X129923495Y-114824627D01*
X129808389Y-114609275D01*
X129526602Y-114493003D01*
X128449605Y-115570000D01*
X128090395Y-115570000D01*
X127013398Y-114493003D01*
X126731611Y-114609275D01*
X126573743Y-114927860D01*
X126481062Y-115271122D01*
X126457127Y-115625869D01*
X123955856Y-115625869D01*
X123869727Y-115568320D01*
X123608574Y-115460147D01*
X123331335Y-115405000D01*
X123048665Y-115405000D01*
X122771426Y-115460147D01*
X122510273Y-115568320D01*
X122275241Y-115725363D01*
X122075363Y-115925241D01*
X121918320Y-116160273D01*
X121810147Y-116421426D01*
X121755000Y-116698665D01*
X115161138Y-116698665D01*
X117546405Y-114313398D01*
X127193003Y-114313398D01*
X128270000Y-115390395D01*
X129346997Y-114313398D01*
X129230725Y-114031611D01*
X128912140Y-113873743D01*
X128568878Y-113781062D01*
X128214131Y-113757127D01*
X127861530Y-113802861D01*
X127524627Y-113916505D01*
X127309275Y-114031611D01*
X127193003Y-114313398D01*
X117546405Y-114313398D01*
X118967580Y-112892223D01*
X131465000Y-112892223D01*
X131465000Y-113247777D01*
X131534365Y-113596499D01*
X131670429Y-113924988D01*
X131867965Y-114220621D01*
X132119379Y-114472035D01*
X132415012Y-114669571D01*
X132743501Y-114805635D01*
X133092223Y-114875000D01*
X133447777Y-114875000D01*
X133796499Y-114805635D01*
X134124988Y-114669571D01*
X134420621Y-114472035D01*
X134672035Y-114220621D01*
X134869571Y-113924988D01*
X135005635Y-113596499D01*
X135075000Y-113247777D01*
X135075000Y-112892223D01*
X135005635Y-112543501D01*
X134869571Y-112215012D01*
X134672035Y-111919379D01*
X134420621Y-111667965D01*
X134317359Y-111598967D01*
X136795000Y-111598967D01*
X136795000Y-111921033D01*
X136857832Y-112236912D01*
X136981082Y-112534463D01*
X137160013Y-112802252D01*
X137387748Y-113029987D01*
X137655537Y-113208918D01*
X137953088Y-113332168D01*
X138268967Y-113395000D01*
X138591033Y-113395000D01*
X138906912Y-113332168D01*
X139204463Y-113208918D01*
X139472252Y-113029987D01*
X139699987Y-112802252D01*
X139878918Y-112534463D01*
X140002168Y-112236912D01*
X140065000Y-111921033D01*
X140065000Y-111598967D01*
X143295000Y-111598967D01*
X143295000Y-111921033D01*
X143357832Y-112236912D01*
X143481082Y-112534463D01*
X143660013Y-112802252D01*
X143887748Y-113029987D01*
X144155537Y-113208918D01*
X144453088Y-113332168D01*
X144768967Y-113395000D01*
X145091033Y-113395000D01*
X145406912Y-113332168D01*
X145704463Y-113208918D01*
X145972252Y-113029987D01*
X146199987Y-112802252D01*
X146378918Y-112534463D01*
X146502168Y-112236912D01*
X146565000Y-111921033D01*
X146565000Y-111598967D01*
X146955000Y-111598967D01*
X146955000Y-111921033D01*
X147017832Y-112236912D01*
X147141082Y-112534463D01*
X147320013Y-112802252D01*
X147547748Y-113029987D01*
X147815537Y-113208918D01*
X148113088Y-113332168D01*
X148428967Y-113395000D01*
X148751033Y-113395000D01*
X149066912Y-113332168D01*
X149364463Y-113208918D01*
X149632252Y-113029987D01*
X149859987Y-112802252D01*
X150038918Y-112534463D01*
X150162168Y-112236912D01*
X150225000Y-111921033D01*
X150225000Y-111598967D01*
X153455000Y-111598967D01*
X153455000Y-111921033D01*
X153517832Y-112236912D01*
X153641082Y-112534463D01*
X153820013Y-112802252D01*
X154047748Y-113029987D01*
X154315537Y-113208918D01*
X154613088Y-113332168D01*
X154928967Y-113395000D01*
X155251033Y-113395000D01*
X155566912Y-113332168D01*
X155864463Y-113208918D01*
X156132252Y-113029987D01*
X156359987Y-112802252D01*
X156538918Y-112534463D01*
X156662168Y-112236912D01*
X156725000Y-111921033D01*
X156725000Y-111598967D01*
X156662168Y-111283088D01*
X156538918Y-110985537D01*
X156359987Y-110717748D01*
X156132252Y-110490013D01*
X155864463Y-110311082D01*
X155566912Y-110187832D01*
X155251033Y-110125000D01*
X154928967Y-110125000D01*
X154613088Y-110187832D01*
X154315537Y-110311082D01*
X154047748Y-110490013D01*
X153820013Y-110717748D01*
X153641082Y-110985537D01*
X153517832Y-111283088D01*
X153455000Y-111598967D01*
X150225000Y-111598967D01*
X150162168Y-111283088D01*
X150038918Y-110985537D01*
X149859987Y-110717748D01*
X149632252Y-110490013D01*
X149364463Y-110311082D01*
X149066912Y-110187832D01*
X148751033Y-110125000D01*
X148428967Y-110125000D01*
X148113088Y-110187832D01*
X147815537Y-110311082D01*
X147547748Y-110490013D01*
X147320013Y-110717748D01*
X147141082Y-110985537D01*
X147017832Y-111283088D01*
X146955000Y-111598967D01*
X146565000Y-111598967D01*
X146502168Y-111283088D01*
X146378918Y-110985537D01*
X146199987Y-110717748D01*
X145972252Y-110490013D01*
X145704463Y-110311082D01*
X145406912Y-110187832D01*
X145091033Y-110125000D01*
X144768967Y-110125000D01*
X144453088Y-110187832D01*
X144155537Y-110311082D01*
X143887748Y-110490013D01*
X143660013Y-110717748D01*
X143481082Y-110985537D01*
X143357832Y-111283088D01*
X143295000Y-111598967D01*
X140065000Y-111598967D01*
X140002168Y-111283088D01*
X139878918Y-110985537D01*
X139699987Y-110717748D01*
X139472252Y-110490013D01*
X139204463Y-110311082D01*
X138906912Y-110187832D01*
X138591033Y-110125000D01*
X138268967Y-110125000D01*
X137953088Y-110187832D01*
X137655537Y-110311082D01*
X137387748Y-110490013D01*
X137160013Y-110717748D01*
X136981082Y-110985537D01*
X136857832Y-111283088D01*
X136795000Y-111598967D01*
X134317359Y-111598967D01*
X134124988Y-111470429D01*
X133796499Y-111334365D01*
X133447777Y-111265000D01*
X133092223Y-111265000D01*
X132743501Y-111334365D01*
X132415012Y-111470429D01*
X132119379Y-111667965D01*
X131867965Y-111919379D01*
X131670429Y-112215012D01*
X131534365Y-112543501D01*
X131465000Y-112892223D01*
X118967580Y-112892223D01*
X119891004Y-111968800D01*
X119920001Y-111945003D01*
X119941395Y-111918935D01*
X120107095Y-111850299D01*
X120358505Y-111682312D01*
X120572312Y-111468505D01*
X120740299Y-111217095D01*
X120856011Y-110937743D01*
X120915000Y-110641184D01*
X120915000Y-110338816D01*
X120856011Y-110042257D01*
X120740299Y-109762905D01*
X120610763Y-109569040D01*
X121798091Y-109569040D01*
X121892930Y-109833881D01*
X122037615Y-110075131D01*
X122226586Y-110283519D01*
X122452580Y-110451037D01*
X122706913Y-110571246D01*
X122840961Y-110611904D01*
X123063000Y-110489915D01*
X123063000Y-109347000D01*
X123317000Y-109347000D01*
X123317000Y-110489915D01*
X123539039Y-110611904D01*
X123673087Y-110571246D01*
X123927420Y-110451037D01*
X124006764Y-110392223D01*
X126465000Y-110392223D01*
X126465000Y-110747777D01*
X126534365Y-111096499D01*
X126670429Y-111424988D01*
X126867965Y-111720621D01*
X127119379Y-111972035D01*
X127415012Y-112169571D01*
X127743501Y-112305635D01*
X128092223Y-112375000D01*
X128447777Y-112375000D01*
X128796499Y-112305635D01*
X129124988Y-112169571D01*
X129420621Y-111972035D01*
X129672035Y-111720621D01*
X129869571Y-111424988D01*
X130005635Y-111096499D01*
X130075000Y-110747777D01*
X130075000Y-110392223D01*
X130005635Y-110043501D01*
X129869571Y-109715012D01*
X129672035Y-109419379D01*
X129420621Y-109167965D01*
X129124988Y-108970429D01*
X128796499Y-108834365D01*
X128447777Y-108765000D01*
X128092223Y-108765000D01*
X127743501Y-108834365D01*
X127415012Y-108970429D01*
X127119379Y-109167965D01*
X126867965Y-109419379D01*
X126670429Y-109715012D01*
X126534365Y-110043501D01*
X126465000Y-110392223D01*
X124006764Y-110392223D01*
X124153414Y-110283519D01*
X124342385Y-110075131D01*
X124487070Y-109833881D01*
X124581909Y-109569040D01*
X124460624Y-109347000D01*
X123317000Y-109347000D01*
X123063000Y-109347000D01*
X121919376Y-109347000D01*
X121798091Y-109569040D01*
X120610763Y-109569040D01*
X120572312Y-109511495D01*
X120358505Y-109297688D01*
X120107095Y-109129701D01*
X119827743Y-109013989D01*
X119531184Y-108955000D01*
X119228816Y-108955000D01*
X118932257Y-109013989D01*
X118652905Y-109129701D01*
X118401495Y-109297688D01*
X118335056Y-109364127D01*
X118329502Y-109345820D01*
X118270537Y-109235506D01*
X118191185Y-109138815D01*
X118094494Y-109059463D01*
X117984180Y-109000498D01*
X117864482Y-108964188D01*
X117740000Y-108951928D01*
X116912873Y-108951928D01*
X116993841Y-108870960D01*
X121798091Y-108870960D01*
X121919376Y-109093000D01*
X123063000Y-109093000D01*
X123063000Y-107950085D01*
X123317000Y-107950085D01*
X123317000Y-109093000D01*
X124460624Y-109093000D01*
X124581909Y-108870960D01*
X124487070Y-108606119D01*
X124342385Y-108364869D01*
X124153414Y-108156481D01*
X123927420Y-107988963D01*
X123673087Y-107868754D01*
X123539039Y-107828096D01*
X123317000Y-107950085D01*
X123063000Y-107950085D01*
X122840961Y-107828096D01*
X122706913Y-107868754D01*
X122452580Y-107988963D01*
X122226586Y-108156481D01*
X122037615Y-108364869D01*
X121892930Y-108606119D01*
X121798091Y-108870960D01*
X116993841Y-108870960D01*
X118556779Y-107308023D01*
X123157860Y-107308023D01*
X123195182Y-107311699D01*
X123232504Y-107308023D01*
X123232515Y-107308023D01*
X123344168Y-107297026D01*
X123487429Y-107253569D01*
X123619458Y-107182997D01*
X123735183Y-107088024D01*
X123758986Y-107059020D01*
X124017694Y-106800312D01*
X145382366Y-106800312D01*
X145419688Y-106803988D01*
X145457010Y-106800312D01*
X145457021Y-106800312D01*
X145568674Y-106789315D01*
X145711935Y-106745858D01*
X145843964Y-106675286D01*
X145959689Y-106580313D01*
X145983492Y-106551309D01*
X148223592Y-104311210D01*
X148443740Y-104355000D01*
X148736260Y-104355000D01*
X149023158Y-104297932D01*
X149293411Y-104185990D01*
X149536632Y-104023475D01*
X149743475Y-103816632D01*
X149905990Y-103573411D01*
X150017932Y-103303158D01*
X150075000Y-103016260D01*
X150075000Y-102723740D01*
X150017932Y-102436842D01*
X149905990Y-102166589D01*
X149743475Y-101923368D01*
X149536632Y-101716525D01*
X149362240Y-101600000D01*
X149536632Y-101483475D01*
X149743475Y-101276632D01*
X149905990Y-101033411D01*
X150017932Y-100763158D01*
X150075000Y-100476260D01*
X150075000Y-100183740D01*
X150017932Y-99896842D01*
X149905990Y-99626589D01*
X149743475Y-99383368D01*
X149611620Y-99251513D01*
X149684180Y-99229502D01*
X149794494Y-99170537D01*
X149891185Y-99091185D01*
X149970537Y-98994494D01*
X150029502Y-98884180D01*
X150065812Y-98764482D01*
X150078072Y-98640000D01*
X150078072Y-96940000D01*
X150065812Y-96815518D01*
X150029502Y-96695820D01*
X149970537Y-96585506D01*
X149891185Y-96488815D01*
X149794494Y-96409463D01*
X149684180Y-96350498D01*
X149564482Y-96314188D01*
X149440000Y-96301928D01*
X148176730Y-96301928D01*
X145540000Y-93665199D01*
X145540000Y-92004801D01*
X153498790Y-99963593D01*
X153455000Y-100183740D01*
X153455000Y-100476260D01*
X153512068Y-100763158D01*
X153624010Y-101033411D01*
X153786525Y-101276632D01*
X153993368Y-101483475D01*
X154167760Y-101600000D01*
X153993368Y-101716525D01*
X153786525Y-101923368D01*
X153624010Y-102166589D01*
X153512068Y-102436842D01*
X153455000Y-102723740D01*
X153455000Y-103016260D01*
X153512068Y-103303158D01*
X153624010Y-103573411D01*
X153786525Y-103816632D01*
X153993368Y-104023475D01*
X154236589Y-104185990D01*
X154506842Y-104297932D01*
X154793740Y-104355000D01*
X155086260Y-104355000D01*
X155373158Y-104297932D01*
X155643411Y-104185990D01*
X155886632Y-104023475D01*
X156093475Y-103816632D01*
X156255990Y-103573411D01*
X156367932Y-103303158D01*
X156425000Y-103016260D01*
X156425000Y-102723740D01*
X156381209Y-102503592D01*
X157483003Y-101401799D01*
X157512001Y-101378001D01*
X157569652Y-101307753D01*
X157606974Y-101262277D01*
X157677546Y-101130247D01*
X157721003Y-100986986D01*
X157732000Y-100875333D01*
X157732000Y-100875323D01*
X157735676Y-100838000D01*
X157732000Y-100800677D01*
X157732000Y-93509323D01*
X157735676Y-93472000D01*
X157732000Y-93434677D01*
X157732000Y-93434667D01*
X157721003Y-93323014D01*
X157677546Y-93179753D01*
X157606974Y-93047724D01*
X157512001Y-92931999D01*
X157483003Y-92908201D01*
X151301209Y-86726408D01*
X151345000Y-86506260D01*
X151345000Y-86213740D01*
X151287932Y-85926842D01*
X151175990Y-85656589D01*
X151013475Y-85413368D01*
X150881620Y-85281513D01*
X150954180Y-85259502D01*
X151064494Y-85200537D01*
X151161185Y-85121185D01*
X151240537Y-85024494D01*
X151299502Y-84914180D01*
X151335812Y-84794482D01*
X151348072Y-84670000D01*
X151345000Y-84105750D01*
X151186250Y-83947000D01*
X149987000Y-83947000D01*
X149987000Y-83967000D01*
X149733000Y-83967000D01*
X149733000Y-83947000D01*
X148533750Y-83947000D01*
X148375000Y-84105750D01*
X148371928Y-84670000D01*
X148384188Y-84794482D01*
X148420498Y-84914180D01*
X148479463Y-85024494D01*
X148558815Y-85121185D01*
X148655506Y-85200537D01*
X148765820Y-85259502D01*
X148838380Y-85281513D01*
X148706525Y-85413368D01*
X148544010Y-85656589D01*
X148432068Y-85926842D01*
X148375000Y-86213740D01*
X148375000Y-86506260D01*
X148432068Y-86793158D01*
X148544010Y-87063411D01*
X148706525Y-87306632D01*
X148913368Y-87513475D01*
X149156589Y-87675990D01*
X149426842Y-87787932D01*
X149713740Y-87845000D01*
X150006260Y-87845000D01*
X150226408Y-87801209D01*
X156212000Y-93786802D01*
X156212000Y-96464864D01*
X156144494Y-96409463D01*
X156034180Y-96350498D01*
X155914482Y-96314188D01*
X155790000Y-96301928D01*
X154090000Y-96301928D01*
X153965518Y-96314188D01*
X153845820Y-96350498D01*
X153735506Y-96409463D01*
X153638815Y-96488815D01*
X153559463Y-96585506D01*
X153500498Y-96695820D01*
X153464188Y-96815518D01*
X153451928Y-96940000D01*
X153451928Y-97767125D01*
X146715001Y-91030200D01*
X146715001Y-87572323D01*
X146718677Y-87535000D01*
X146715001Y-87497677D01*
X146715001Y-87497668D01*
X146704004Y-87386015D01*
X146660547Y-87242754D01*
X146589975Y-87110725D01*
X146495002Y-86995000D01*
X146466004Y-86971202D01*
X146221210Y-86726408D01*
X146265000Y-86506260D01*
X146265000Y-86213740D01*
X146207932Y-85926842D01*
X146095990Y-85656589D01*
X145933475Y-85413368D01*
X145801620Y-85281513D01*
X145874180Y-85259502D01*
X145984494Y-85200537D01*
X146081185Y-85121185D01*
X146160537Y-85024494D01*
X146219502Y-84914180D01*
X146255812Y-84794482D01*
X146268072Y-84670000D01*
X146265000Y-84105750D01*
X146106250Y-83947000D01*
X144907000Y-83947000D01*
X144907000Y-83967000D01*
X144653000Y-83967000D01*
X144653000Y-83947000D01*
X143453750Y-83947000D01*
X143295000Y-84105750D01*
X143291928Y-84670000D01*
X143304188Y-84794482D01*
X143340498Y-84914180D01*
X143399463Y-85024494D01*
X143478815Y-85121185D01*
X143575506Y-85200537D01*
X143685820Y-85259502D01*
X143758380Y-85281513D01*
X143626525Y-85413368D01*
X143464010Y-85656589D01*
X143352068Y-85926842D01*
X143295000Y-86213740D01*
X143295000Y-86506260D01*
X143352068Y-86793158D01*
X143464010Y-87063411D01*
X143626525Y-87306632D01*
X143833368Y-87513475D01*
X144007760Y-87630000D01*
X143833368Y-87746525D01*
X143626525Y-87953368D01*
X143464010Y-88196589D01*
X143352068Y-88466842D01*
X143295000Y-88753740D01*
X143295000Y-89046260D01*
X143352068Y-89333158D01*
X143464010Y-89603411D01*
X143626525Y-89846632D01*
X143833368Y-90053475D01*
X144020000Y-90178179D01*
X144020001Y-93942668D01*
X144016324Y-93980000D01*
X144020001Y-94017333D01*
X144030998Y-94128986D01*
X144035432Y-94143602D01*
X144074454Y-94272246D01*
X144145026Y-94404276D01*
X144212362Y-94486324D01*
X144240000Y-94520001D01*
X144268998Y-94543799D01*
X147101928Y-97376730D01*
X147101928Y-98640000D01*
X147114188Y-98764482D01*
X147150498Y-98884180D01*
X147209463Y-98994494D01*
X147288815Y-99091185D01*
X147385506Y-99170537D01*
X147495820Y-99229502D01*
X147568380Y-99251513D01*
X147436525Y-99383368D01*
X147274010Y-99626589D01*
X147162068Y-99896842D01*
X147105000Y-100183740D01*
X147105000Y-100476260D01*
X147148790Y-100696408D01*
X144465199Y-103380000D01*
X137286103Y-103380000D01*
X137317932Y-103303158D01*
X137375000Y-103016260D01*
X137375000Y-102723740D01*
X137317932Y-102436842D01*
X137205990Y-102166589D01*
X137043475Y-101923368D01*
X136836632Y-101716525D01*
X136662240Y-101600000D01*
X136836632Y-101483475D01*
X137043475Y-101276632D01*
X137205990Y-101033411D01*
X137317932Y-100763158D01*
X137375000Y-100476260D01*
X137375000Y-100183740D01*
X137317932Y-99896842D01*
X137205990Y-99626589D01*
X137043475Y-99383368D01*
X136911620Y-99251513D01*
X136984180Y-99229502D01*
X137094494Y-99170537D01*
X137191185Y-99091185D01*
X137270537Y-98994494D01*
X137329502Y-98884180D01*
X137365812Y-98764482D01*
X137378072Y-98640000D01*
X137378072Y-96940000D01*
X137365812Y-96815518D01*
X137329502Y-96695820D01*
X137270537Y-96585506D01*
X137191185Y-96488815D01*
X137094494Y-96409463D01*
X136984180Y-96350498D01*
X136864482Y-96314188D01*
X136740000Y-96301928D01*
X135083042Y-96301928D01*
X135113839Y-96147100D01*
X135113839Y-96084962D01*
X135167802Y-96031000D01*
X135229939Y-96031000D01*
X135429898Y-95991226D01*
X135618256Y-95913205D01*
X135787774Y-95799937D01*
X135931937Y-95655774D01*
X136045205Y-95486256D01*
X136123226Y-95297898D01*
X136163000Y-95097939D01*
X136163000Y-94894061D01*
X136151252Y-94834999D01*
X138210198Y-94834999D01*
X140751928Y-97376730D01*
X140751928Y-98640000D01*
X140764188Y-98764482D01*
X140800498Y-98884180D01*
X140859463Y-98994494D01*
X140938815Y-99091185D01*
X141035506Y-99170537D01*
X141145820Y-99229502D01*
X141218380Y-99251513D01*
X141086525Y-99383368D01*
X140924010Y-99626589D01*
X140812068Y-99896842D01*
X140755000Y-100183740D01*
X140755000Y-100476260D01*
X140812068Y-100763158D01*
X140924010Y-101033411D01*
X141086525Y-101276632D01*
X141293368Y-101483475D01*
X141536589Y-101645990D01*
X141806842Y-101757932D01*
X142093740Y-101815000D01*
X142386260Y-101815000D01*
X142673158Y-101757932D01*
X142943411Y-101645990D01*
X143186632Y-101483475D01*
X143393475Y-101276632D01*
X143555990Y-101033411D01*
X143667932Y-100763158D01*
X143725000Y-100476260D01*
X143725000Y-100183740D01*
X143681210Y-99963592D01*
X143926005Y-99718797D01*
X143955002Y-99695000D01*
X144049975Y-99579275D01*
X144120547Y-99447246D01*
X144164004Y-99303985D01*
X144175001Y-99192332D01*
X144175001Y-99192323D01*
X144178677Y-99155000D01*
X144175001Y-99117677D01*
X144175001Y-96717324D01*
X144178677Y-96679999D01*
X144175001Y-96642674D01*
X144175001Y-96642666D01*
X144164004Y-96531013D01*
X144120547Y-96387752D01*
X144049975Y-96255723D01*
X143955002Y-96139998D01*
X143926004Y-96116200D01*
X140770806Y-92961003D01*
X140747003Y-92931999D01*
X140631278Y-92837026D01*
X140499249Y-92766454D01*
X140355988Y-92722997D01*
X140244335Y-92712000D01*
X140244324Y-92712000D01*
X140207002Y-92708324D01*
X140169680Y-92712000D01*
X124664980Y-92712000D01*
X124661697Y-92708000D01*
X133820678Y-92708000D01*
X133858000Y-92711676D01*
X133895322Y-92708000D01*
X133895333Y-92708000D01*
X134006986Y-92697003D01*
X134150247Y-92653546D01*
X134282276Y-92582974D01*
X134398001Y-92488001D01*
X134421804Y-92458997D01*
X136539592Y-90341210D01*
X136759740Y-90385000D01*
X137052260Y-90385000D01*
X137339158Y-90327932D01*
X137609411Y-90215990D01*
X137852632Y-90053475D01*
X138059475Y-89846632D01*
X138177100Y-89670594D01*
X138348412Y-89900269D01*
X138564645Y-90095178D01*
X138814748Y-90244157D01*
X139089109Y-90341481D01*
X139319000Y-90220814D01*
X139319000Y-89027000D01*
X139573000Y-89027000D01*
X139573000Y-90220814D01*
X139802891Y-90341481D01*
X140077252Y-90244157D01*
X140327355Y-90095178D01*
X140543588Y-89900269D01*
X140717641Y-89666920D01*
X140842825Y-89404099D01*
X140887476Y-89256890D01*
X140766155Y-89027000D01*
X139573000Y-89027000D01*
X139319000Y-89027000D01*
X139299000Y-89027000D01*
X139299000Y-88773000D01*
X139319000Y-88773000D01*
X139319000Y-88753000D01*
X139573000Y-88753000D01*
X139573000Y-88773000D01*
X140766155Y-88773000D01*
X140887476Y-88543110D01*
X140842825Y-88395901D01*
X140717641Y-88133080D01*
X140543588Y-87899731D01*
X140327355Y-87704822D01*
X140210466Y-87635195D01*
X140392632Y-87513475D01*
X140599475Y-87306632D01*
X140761990Y-87063411D01*
X140873932Y-86793158D01*
X140931000Y-86506260D01*
X140931000Y-86213740D01*
X140873932Y-85926842D01*
X140761990Y-85656589D01*
X140599475Y-85413368D01*
X140392632Y-85206525D01*
X140218240Y-85090000D01*
X140392632Y-84973475D01*
X140599475Y-84766632D01*
X140761990Y-84523411D01*
X140873932Y-84253158D01*
X140931000Y-83966260D01*
X140931000Y-83673740D01*
X140873932Y-83386842D01*
X140761990Y-83116589D01*
X140664043Y-82970000D01*
X143291928Y-82970000D01*
X143295000Y-83534250D01*
X143453750Y-83693000D01*
X144653000Y-83693000D01*
X144653000Y-82493750D01*
X144907000Y-82493750D01*
X144907000Y-83693000D01*
X146106250Y-83693000D01*
X146265000Y-83534250D01*
X146268072Y-82970000D01*
X148371928Y-82970000D01*
X148375000Y-83534250D01*
X148533750Y-83693000D01*
X149733000Y-83693000D01*
X149733000Y-82493750D01*
X149987000Y-82493750D01*
X149987000Y-83693000D01*
X151186250Y-83693000D01*
X151345000Y-83534250D01*
X151348072Y-82970000D01*
X151335812Y-82845518D01*
X151299502Y-82725820D01*
X151240537Y-82615506D01*
X151161185Y-82518815D01*
X151064494Y-82439463D01*
X150954180Y-82380498D01*
X150834482Y-82344188D01*
X150710000Y-82331928D01*
X150145750Y-82335000D01*
X149987000Y-82493750D01*
X149733000Y-82493750D01*
X149574250Y-82335000D01*
X149010000Y-82331928D01*
X148885518Y-82344188D01*
X148765820Y-82380498D01*
X148655506Y-82439463D01*
X148558815Y-82518815D01*
X148479463Y-82615506D01*
X148420498Y-82725820D01*
X148384188Y-82845518D01*
X148371928Y-82970000D01*
X146268072Y-82970000D01*
X146255812Y-82845518D01*
X146219502Y-82725820D01*
X146160537Y-82615506D01*
X146081185Y-82518815D01*
X145984494Y-82439463D01*
X145874180Y-82380498D01*
X145754482Y-82344188D01*
X145630000Y-82331928D01*
X145065750Y-82335000D01*
X144907000Y-82493750D01*
X144653000Y-82493750D01*
X144494250Y-82335000D01*
X143930000Y-82331928D01*
X143805518Y-82344188D01*
X143685820Y-82380498D01*
X143575506Y-82439463D01*
X143478815Y-82518815D01*
X143399463Y-82615506D01*
X143340498Y-82725820D01*
X143304188Y-82845518D01*
X143291928Y-82970000D01*
X140664043Y-82970000D01*
X140599475Y-82873368D01*
X140392632Y-82666525D01*
X140149411Y-82504010D01*
X139879158Y-82392068D01*
X139592260Y-82335000D01*
X139299740Y-82335000D01*
X139012842Y-82392068D01*
X138742589Y-82504010D01*
X138499368Y-82666525D01*
X138367513Y-82798380D01*
X138345502Y-82725820D01*
X138286537Y-82615506D01*
X138207185Y-82518815D01*
X138110494Y-82439463D01*
X138000180Y-82380498D01*
X137880482Y-82344188D01*
X137756000Y-82331928D01*
X136056000Y-82331928D01*
X135931518Y-82344188D01*
X135811820Y-82380498D01*
X135701506Y-82439463D01*
X135604815Y-82518815D01*
X135525463Y-82615506D01*
X135466498Y-82725820D01*
X135430188Y-82845518D01*
X135417928Y-82970000D01*
X135417928Y-84670000D01*
X135430188Y-84794482D01*
X135466498Y-84914180D01*
X135525463Y-85024494D01*
X135604815Y-85121185D01*
X135701506Y-85200537D01*
X135811820Y-85259502D01*
X135884380Y-85281513D01*
X135752525Y-85413368D01*
X135590010Y-85656589D01*
X135478068Y-85926842D01*
X135421000Y-86213740D01*
X135421000Y-86506260D01*
X135464790Y-86726407D01*
X132019199Y-90172000D01*
X130309247Y-90172000D01*
X130486632Y-90053475D01*
X130693475Y-89846632D01*
X130855990Y-89603411D01*
X130967932Y-89333158D01*
X131025000Y-89046260D01*
X131025000Y-88753740D01*
X130967932Y-88466842D01*
X130855990Y-88196589D01*
X130693475Y-87953368D01*
X130486632Y-87746525D01*
X130312240Y-87630000D01*
X130486632Y-87513475D01*
X130693475Y-87306632D01*
X130855990Y-87063411D01*
X130967932Y-86793158D01*
X131025000Y-86506260D01*
X131025000Y-86213740D01*
X130967932Y-85926842D01*
X130855990Y-85656589D01*
X130693475Y-85413368D01*
X130561620Y-85281513D01*
X130634180Y-85259502D01*
X130744494Y-85200537D01*
X130841185Y-85121185D01*
X130920537Y-85024494D01*
X130979502Y-84914180D01*
X131015812Y-84794482D01*
X131028072Y-84670000D01*
X131025000Y-84105750D01*
X130866250Y-83947000D01*
X129667000Y-83947000D01*
X129667000Y-83967000D01*
X129413000Y-83967000D01*
X129413000Y-83947000D01*
X128213750Y-83947000D01*
X128055000Y-84105750D01*
X128051928Y-84670000D01*
X128064188Y-84794482D01*
X128100498Y-84914180D01*
X128159463Y-85024494D01*
X128238815Y-85121185D01*
X128335506Y-85200537D01*
X128445820Y-85259502D01*
X128518380Y-85281513D01*
X128386525Y-85413368D01*
X128224010Y-85656589D01*
X128112068Y-85926842D01*
X128055000Y-86213740D01*
X128055000Y-86506260D01*
X128112068Y-86793158D01*
X128224010Y-87063411D01*
X128386525Y-87306632D01*
X128593368Y-87513475D01*
X128767760Y-87630000D01*
X128593368Y-87746525D01*
X128386525Y-87953368D01*
X128224010Y-88196589D01*
X128112068Y-88466842D01*
X128055000Y-88753740D01*
X128055000Y-89046260D01*
X128112068Y-89333158D01*
X128224010Y-89603411D01*
X128386525Y-89846632D01*
X128593368Y-90053475D01*
X128770753Y-90172000D01*
X120180323Y-90172000D01*
X120142998Y-90168324D01*
X120105673Y-90172000D01*
X120105665Y-90172000D01*
X119994012Y-90182997D01*
X119850751Y-90226454D01*
X119718722Y-90297026D01*
X119602997Y-90391999D01*
X119579199Y-90420997D01*
X118050197Y-91950000D01*
X110616103Y-91950000D01*
X110647932Y-91873158D01*
X110705000Y-91586260D01*
X110705000Y-91293740D01*
X110647932Y-91006842D01*
X110535990Y-90736589D01*
X110373475Y-90493368D01*
X110166632Y-90286525D01*
X109992240Y-90170000D01*
X110166632Y-90053475D01*
X110373475Y-89846632D01*
X110535990Y-89603411D01*
X110647932Y-89333158D01*
X110705000Y-89046260D01*
X110705000Y-88753740D01*
X110647932Y-88466842D01*
X110535990Y-88196589D01*
X110373475Y-87953368D01*
X110241620Y-87821513D01*
X110314180Y-87799502D01*
X110424494Y-87740537D01*
X110521185Y-87661185D01*
X110600537Y-87564494D01*
X110659502Y-87454180D01*
X110695812Y-87334482D01*
X110708072Y-87210000D01*
X110708072Y-85510000D01*
X110695812Y-85385518D01*
X110659502Y-85265820D01*
X110600537Y-85155506D01*
X110521185Y-85058815D01*
X110424494Y-84979463D01*
X110314180Y-84920498D01*
X110194482Y-84884188D01*
X110070000Y-84871928D01*
X109980000Y-84871928D01*
X109980000Y-84365322D01*
X109983676Y-84327999D01*
X109980000Y-84290676D01*
X109980000Y-84290667D01*
X109969003Y-84179014D01*
X109925546Y-84035753D01*
X109854974Y-83903724D01*
X109786264Y-83820000D01*
X109783799Y-83816996D01*
X109783795Y-83816992D01*
X109760001Y-83787999D01*
X109731008Y-83764205D01*
X108936803Y-82970000D01*
X128051928Y-82970000D01*
X128055000Y-83534250D01*
X128213750Y-83693000D01*
X129413000Y-83693000D01*
X129413000Y-82493750D01*
X129667000Y-82493750D01*
X129667000Y-83693000D01*
X130866250Y-83693000D01*
X131025000Y-83534250D01*
X131028072Y-82970000D01*
X131015812Y-82845518D01*
X130979502Y-82725820D01*
X130920537Y-82615506D01*
X130841185Y-82518815D01*
X130744494Y-82439463D01*
X130634180Y-82380498D01*
X130514482Y-82344188D01*
X130390000Y-82331928D01*
X129825750Y-82335000D01*
X129667000Y-82493750D01*
X129413000Y-82493750D01*
X129254250Y-82335000D01*
X128690000Y-82331928D01*
X128565518Y-82344188D01*
X128445820Y-82380498D01*
X128335506Y-82439463D01*
X128238815Y-82518815D01*
X128159463Y-82615506D01*
X128100498Y-82725820D01*
X128064188Y-82845518D01*
X128051928Y-82970000D01*
X108936803Y-82970000D01*
X107715000Y-81748199D01*
X107715000Y-81686061D01*
X107675226Y-81486102D01*
X107597205Y-81297744D01*
X107483937Y-81128226D01*
X107339774Y-80984063D01*
X107170256Y-80870795D01*
X106981898Y-80792774D01*
X106781939Y-80753000D01*
X106578061Y-80753000D01*
X106378102Y-80792774D01*
X106189744Y-80870795D01*
X106020226Y-80984063D01*
X105876063Y-81128226D01*
X105762795Y-81297744D01*
X105684774Y-81486102D01*
X105645000Y-81686061D01*
X105645000Y-81889939D01*
X105684774Y-82089898D01*
X105762795Y-82278256D01*
X105876063Y-82447774D01*
X106020226Y-82591937D01*
X106189744Y-82705205D01*
X106378102Y-82783226D01*
X106578061Y-82823000D01*
X106640199Y-82823000D01*
X108460001Y-84642804D01*
X108460001Y-84871928D01*
X108370000Y-84871928D01*
X108245518Y-84884188D01*
X108125820Y-84920498D01*
X108015506Y-84979463D01*
X107918815Y-85058815D01*
X107839463Y-85155506D01*
X107780498Y-85265820D01*
X107756089Y-85346286D01*
X107083805Y-84674002D01*
X107060002Y-84644998D01*
X106944277Y-84550025D01*
X106812248Y-84479453D01*
X106668987Y-84435996D01*
X106557334Y-84424999D01*
X106557323Y-84424999D01*
X106520001Y-84421323D01*
X106482679Y-84424999D01*
X101218510Y-84424999D01*
X101181177Y-84421322D01*
X101143844Y-84424999D01*
X101032191Y-84435996D01*
X100888930Y-84479453D01*
X100756901Y-84550025D01*
X100641176Y-84644998D01*
X100617378Y-84673996D01*
X100397348Y-84894026D01*
X100391775Y-84866011D01*
X100287371Y-84613957D01*
X100135799Y-84387114D01*
X99942886Y-84194201D01*
X99716043Y-84042629D01*
X99463989Y-83938225D01*
X99196411Y-83885000D01*
X98923589Y-83885000D01*
X98656011Y-83938225D01*
X98403957Y-84042629D01*
X98177114Y-84194201D01*
X97984201Y-84387114D01*
X97832629Y-84613957D01*
X97728225Y-84866011D01*
X97675000Y-85133589D01*
X97675000Y-85406411D01*
X97728225Y-85673989D01*
X97832629Y-85926043D01*
X97984201Y-86152886D01*
X98177114Y-86345799D01*
X98403957Y-86497371D01*
X98656011Y-86601775D01*
X98684027Y-86607348D01*
X93979900Y-91311475D01*
X93979900Y-91044665D01*
X93924753Y-90767426D01*
X93816580Y-90506273D01*
X93659537Y-90271241D01*
X93459659Y-90071363D01*
X93224627Y-89914320D01*
X92963474Y-89806147D01*
X92686235Y-89751000D01*
X92403565Y-89751000D01*
X92126326Y-89806147D01*
X91865173Y-89914320D01*
X91630141Y-90071363D01*
X91430263Y-90271241D01*
X91296208Y-90471869D01*
X91281571Y-90444486D01*
X91037602Y-90372903D01*
X90224505Y-91186000D01*
X91037602Y-91999097D01*
X91281571Y-91927514D01*
X91295224Y-91898659D01*
X91430263Y-92100759D01*
X91630141Y-92300637D01*
X91865173Y-92457680D01*
X92126326Y-92565853D01*
X92403565Y-92621000D01*
X92670375Y-92621000D01*
X91476375Y-93815000D01*
X91298665Y-93815000D01*
X91021426Y-93870147D01*
X90760273Y-93978320D01*
X90525241Y-94135363D01*
X90325363Y-94335241D01*
X90170000Y-94567759D01*
X90014637Y-94335241D01*
X89814759Y-94135363D01*
X89579727Y-93978320D01*
X89318574Y-93870147D01*
X89041335Y-93815000D01*
X88758665Y-93815000D01*
X88481426Y-93870147D01*
X88220273Y-93978320D01*
X87985241Y-94135363D01*
X87785363Y-94335241D01*
X87630000Y-94567759D01*
X87474637Y-94335241D01*
X87274759Y-94135363D01*
X87039727Y-93978320D01*
X86778574Y-93870147D01*
X86501335Y-93815000D01*
X86218665Y-93815000D01*
X85941426Y-93870147D01*
X85680273Y-93978320D01*
X85445241Y-94135363D01*
X85245363Y-94335241D01*
X85090000Y-94567759D01*
X84934637Y-94335241D01*
X84734759Y-94135363D01*
X84499727Y-93978320D01*
X84238574Y-93870147D01*
X83961335Y-93815000D01*
X83678665Y-93815000D01*
X83401426Y-93870147D01*
X83140273Y-93978320D01*
X82905241Y-94135363D01*
X82705363Y-94335241D01*
X82550000Y-94567759D01*
X82394637Y-94335241D01*
X82194759Y-94135363D01*
X81959727Y-93978320D01*
X81698574Y-93870147D01*
X81421335Y-93815000D01*
X81138665Y-93815000D01*
X80861426Y-93870147D01*
X80600273Y-93978320D01*
X80365241Y-94135363D01*
X80165363Y-94335241D01*
X80008320Y-94570273D01*
X79900147Y-94831426D01*
X79845000Y-95108665D01*
X79845000Y-95391335D01*
X79881312Y-95573886D01*
X79499003Y-95956196D01*
X79469999Y-95979999D01*
X79428144Y-96031000D01*
X79375026Y-96095724D01*
X79369998Y-96105131D01*
X79304454Y-96227754D01*
X79260997Y-96371015D01*
X79250000Y-96482668D01*
X79250000Y-96482678D01*
X79246324Y-96520000D01*
X78917000Y-96520000D01*
X78917000Y-89778000D01*
X79741928Y-89778000D01*
X79741928Y-91578000D01*
X79754188Y-91702482D01*
X79790498Y-91822180D01*
X79849463Y-91932494D01*
X79928815Y-92029185D01*
X80025506Y-92108537D01*
X80135820Y-92167502D01*
X80255518Y-92203812D01*
X80380000Y-92216072D01*
X81743270Y-92216072D01*
X82278200Y-92751002D01*
X82301998Y-92780000D01*
X82417723Y-92874973D01*
X82549752Y-92945545D01*
X82693013Y-92989002D01*
X82804666Y-92999999D01*
X82804675Y-92999999D01*
X82841998Y-93003675D01*
X82879321Y-92999999D01*
X86030679Y-92999999D01*
X86068001Y-93003675D01*
X86105323Y-92999999D01*
X86105334Y-92999999D01*
X86216987Y-92989002D01*
X86360248Y-92945545D01*
X86492277Y-92874973D01*
X86537978Y-92837467D01*
X86726665Y-92875000D01*
X87009335Y-92875000D01*
X87286574Y-92819853D01*
X87547727Y-92711680D01*
X87782759Y-92554637D01*
X87982637Y-92354759D01*
X88100274Y-92178702D01*
X89231803Y-92178702D01*
X89303386Y-92422671D01*
X89558896Y-92543571D01*
X89833084Y-92612300D01*
X90115412Y-92626217D01*
X90395030Y-92584787D01*
X90661192Y-92489603D01*
X90786414Y-92422671D01*
X90857997Y-92178702D01*
X90044900Y-91365605D01*
X89231803Y-92178702D01*
X88100274Y-92178702D01*
X88139680Y-92119727D01*
X88247853Y-91858574D01*
X88303000Y-91581335D01*
X88303000Y-91298665D01*
X88294616Y-91256512D01*
X88604683Y-91256512D01*
X88646113Y-91536130D01*
X88741297Y-91802292D01*
X88808229Y-91927514D01*
X89052198Y-91999097D01*
X89865295Y-91186000D01*
X89052198Y-90372903D01*
X88808229Y-90444486D01*
X88687329Y-90699996D01*
X88618600Y-90974184D01*
X88604683Y-91256512D01*
X88294616Y-91256512D01*
X88247853Y-91021426D01*
X88139680Y-90760273D01*
X87982637Y-90525241D01*
X87782759Y-90325363D01*
X87585110Y-90193298D01*
X89231803Y-90193298D01*
X90044900Y-91006395D01*
X90857997Y-90193298D01*
X90786414Y-89949329D01*
X90530904Y-89828429D01*
X90256716Y-89759700D01*
X89974388Y-89745783D01*
X89694770Y-89787213D01*
X89428608Y-89882397D01*
X89303386Y-89949329D01*
X89231803Y-90193298D01*
X87585110Y-90193298D01*
X87547727Y-90168320D01*
X87286574Y-90060147D01*
X87009335Y-90005000D01*
X86726665Y-90005000D01*
X86449426Y-90060147D01*
X86188273Y-90168320D01*
X85953241Y-90325363D01*
X85753363Y-90525241D01*
X85596320Y-90760273D01*
X85488147Y-91021426D01*
X85433000Y-91298665D01*
X85433000Y-91479999D01*
X85130250Y-91479999D01*
X85180299Y-91405095D01*
X85296011Y-91125743D01*
X85355000Y-90829184D01*
X85355000Y-90526816D01*
X85296011Y-90230257D01*
X85180299Y-89950905D01*
X85012312Y-89699495D01*
X84798505Y-89485688D01*
X84547095Y-89317701D01*
X84267743Y-89201989D01*
X83971184Y-89143000D01*
X83668816Y-89143000D01*
X83372257Y-89201989D01*
X83092905Y-89317701D01*
X82841495Y-89485688D01*
X82775056Y-89552127D01*
X82769502Y-89533820D01*
X82710537Y-89423506D01*
X82631185Y-89326815D01*
X82534494Y-89247463D01*
X82424180Y-89188498D01*
X82304482Y-89152188D01*
X82180000Y-89139928D01*
X80380000Y-89139928D01*
X80255518Y-89152188D01*
X80135820Y-89188498D01*
X80025506Y-89247463D01*
X79928815Y-89326815D01*
X79849463Y-89423506D01*
X79790498Y-89533820D01*
X79754188Y-89653518D01*
X79741928Y-89778000D01*
X78917000Y-89778000D01*
X78917000Y-84670000D01*
X81061928Y-84670000D01*
X81074188Y-84794482D01*
X81110498Y-84914180D01*
X81169463Y-85024494D01*
X81248815Y-85121185D01*
X81345506Y-85200537D01*
X81455820Y-85259502D01*
X81528380Y-85281513D01*
X81396525Y-85413368D01*
X81234010Y-85656589D01*
X81122068Y-85926842D01*
X81065000Y-86213740D01*
X81065000Y-86506260D01*
X81122068Y-86793158D01*
X81234010Y-87063411D01*
X81396525Y-87306632D01*
X81603368Y-87513475D01*
X81846589Y-87675990D01*
X82116842Y-87787932D01*
X82403740Y-87845000D01*
X82696260Y-87845000D01*
X82983158Y-87787932D01*
X83253411Y-87675990D01*
X83357107Y-87606702D01*
X89396903Y-87606702D01*
X89468486Y-87850671D01*
X89723996Y-87971571D01*
X89998184Y-88040300D01*
X90280512Y-88054217D01*
X90560130Y-88012787D01*
X90826292Y-87917603D01*
X90951514Y-87850671D01*
X91023097Y-87606702D01*
X90210000Y-86793605D01*
X89396903Y-87606702D01*
X83357107Y-87606702D01*
X83496632Y-87513475D01*
X83703475Y-87306632D01*
X83865990Y-87063411D01*
X83977932Y-86793158D01*
X83999543Y-86684512D01*
X88769783Y-86684512D01*
X88811213Y-86964130D01*
X88906397Y-87230292D01*
X88973329Y-87355514D01*
X89217298Y-87427097D01*
X90030395Y-86614000D01*
X89217298Y-85800903D01*
X88973329Y-85872486D01*
X88852429Y-86127996D01*
X88783700Y-86402184D01*
X88769783Y-86684512D01*
X83999543Y-86684512D01*
X84035000Y-86506260D01*
X84035000Y-86213740D01*
X83977932Y-85926842D01*
X83865990Y-85656589D01*
X83703475Y-85413368D01*
X83571620Y-85281513D01*
X83644180Y-85259502D01*
X83754494Y-85200537D01*
X83851185Y-85121185D01*
X83930537Y-85024494D01*
X83989502Y-84914180D01*
X84025812Y-84794482D01*
X84038072Y-84670000D01*
X84035345Y-84169040D01*
X85476091Y-84169040D01*
X85570930Y-84433881D01*
X85715615Y-84675131D01*
X85904586Y-84883519D01*
X86130580Y-85051037D01*
X86384913Y-85171246D01*
X86518961Y-85211904D01*
X86741000Y-85089915D01*
X86741000Y-83947000D01*
X86995000Y-83947000D01*
X86995000Y-85089915D01*
X87217039Y-85211904D01*
X87351087Y-85171246D01*
X87605420Y-85051037D01*
X87831414Y-84883519D01*
X87895632Y-84812702D01*
X89396903Y-84812702D01*
X89468486Y-85056671D01*
X89723996Y-85177571D01*
X89868855Y-85213882D01*
X89859870Y-85215213D01*
X89593708Y-85310397D01*
X89468486Y-85377329D01*
X89396903Y-85621298D01*
X90210000Y-86434395D01*
X91023097Y-85621298D01*
X90951514Y-85377329D01*
X90696004Y-85256429D01*
X90551145Y-85220118D01*
X90560130Y-85218787D01*
X90826292Y-85123603D01*
X90951514Y-85056671D01*
X91023097Y-84812702D01*
X90210000Y-83999605D01*
X89396903Y-84812702D01*
X87895632Y-84812702D01*
X88020385Y-84675131D01*
X88165070Y-84433881D01*
X88259909Y-84169040D01*
X88138624Y-83947000D01*
X86995000Y-83947000D01*
X86741000Y-83947000D01*
X85597376Y-83947000D01*
X85476091Y-84169040D01*
X84035345Y-84169040D01*
X84035000Y-84105750D01*
X83876250Y-83947000D01*
X82677000Y-83947000D01*
X82677000Y-83967000D01*
X82423000Y-83967000D01*
X82423000Y-83947000D01*
X81223750Y-83947000D01*
X81065000Y-84105750D01*
X81061928Y-84670000D01*
X78917000Y-84670000D01*
X78917000Y-83890512D01*
X88769783Y-83890512D01*
X88811213Y-84170130D01*
X88906397Y-84436292D01*
X88973329Y-84561514D01*
X89217298Y-84633097D01*
X90030395Y-83820000D01*
X90389605Y-83820000D01*
X91202702Y-84633097D01*
X91446671Y-84561514D01*
X91460324Y-84532659D01*
X91595363Y-84734759D01*
X91795241Y-84934637D01*
X92030273Y-85091680D01*
X92291426Y-85199853D01*
X92377629Y-85217000D01*
X92291426Y-85234147D01*
X92030273Y-85342320D01*
X91795241Y-85499363D01*
X91595363Y-85699241D01*
X91461308Y-85899869D01*
X91446671Y-85872486D01*
X91202702Y-85800903D01*
X90389605Y-86614000D01*
X91202702Y-87427097D01*
X91446671Y-87355514D01*
X91460324Y-87326659D01*
X91595363Y-87528759D01*
X91795241Y-87728637D01*
X92030273Y-87885680D01*
X92291426Y-87993853D01*
X92568665Y-88049000D01*
X92851335Y-88049000D01*
X93128574Y-87993853D01*
X93389727Y-87885680D01*
X93624759Y-87728637D01*
X93824637Y-87528759D01*
X93981680Y-87293727D01*
X94089853Y-87032574D01*
X94145000Y-86755335D01*
X94145000Y-86472665D01*
X94089853Y-86195426D01*
X93981680Y-85934273D01*
X93824637Y-85699241D01*
X93624759Y-85499363D01*
X93389727Y-85342320D01*
X93128574Y-85234147D01*
X93042371Y-85217000D01*
X93128574Y-85199853D01*
X93389727Y-85091680D01*
X93624759Y-84934637D01*
X93824637Y-84734759D01*
X93981680Y-84499727D01*
X94089853Y-84238574D01*
X94145000Y-83961335D01*
X94145000Y-83678665D01*
X94089853Y-83401426D01*
X93981680Y-83140273D01*
X93824637Y-82905241D01*
X93624759Y-82705363D01*
X93389727Y-82548320D01*
X93128574Y-82440147D01*
X92851335Y-82385000D01*
X92568665Y-82385000D01*
X92291426Y-82440147D01*
X92030273Y-82548320D01*
X91795241Y-82705363D01*
X91595363Y-82905241D01*
X91461308Y-83105869D01*
X91446671Y-83078486D01*
X91202702Y-83006903D01*
X90389605Y-83820000D01*
X90030395Y-83820000D01*
X89217298Y-83006903D01*
X88973329Y-83078486D01*
X88852429Y-83333996D01*
X88783700Y-83608184D01*
X88769783Y-83890512D01*
X78917000Y-83890512D01*
X78917000Y-82970000D01*
X81061928Y-82970000D01*
X81065000Y-83534250D01*
X81223750Y-83693000D01*
X82423000Y-83693000D01*
X82423000Y-82493750D01*
X82677000Y-82493750D01*
X82677000Y-83693000D01*
X83876250Y-83693000D01*
X84035000Y-83534250D01*
X84035344Y-83470960D01*
X85476091Y-83470960D01*
X85597376Y-83693000D01*
X86741000Y-83693000D01*
X86741000Y-82550085D01*
X86995000Y-82550085D01*
X86995000Y-83693000D01*
X88138624Y-83693000D01*
X88259909Y-83470960D01*
X88165070Y-83206119D01*
X88020385Y-82964869D01*
X87895633Y-82827298D01*
X89396903Y-82827298D01*
X90210000Y-83640395D01*
X91023097Y-82827298D01*
X90951514Y-82583329D01*
X90696004Y-82462429D01*
X90421816Y-82393700D01*
X90139488Y-82379783D01*
X89859870Y-82421213D01*
X89593708Y-82516397D01*
X89468486Y-82583329D01*
X89396903Y-82827298D01*
X87895633Y-82827298D01*
X87831414Y-82756481D01*
X87605420Y-82588963D01*
X87351087Y-82468754D01*
X87217039Y-82428096D01*
X86995000Y-82550085D01*
X86741000Y-82550085D01*
X86518961Y-82428096D01*
X86384913Y-82468754D01*
X86130580Y-82588963D01*
X85904586Y-82756481D01*
X85715615Y-82964869D01*
X85570930Y-83206119D01*
X85476091Y-83470960D01*
X84035344Y-83470960D01*
X84038072Y-82970000D01*
X84025812Y-82845518D01*
X83989502Y-82725820D01*
X83930537Y-82615506D01*
X83851185Y-82518815D01*
X83754494Y-82439463D01*
X83644180Y-82380498D01*
X83524482Y-82344188D01*
X83400000Y-82331928D01*
X82835750Y-82335000D01*
X82677000Y-82493750D01*
X82423000Y-82493750D01*
X82264250Y-82335000D01*
X81700000Y-82331928D01*
X81575518Y-82344188D01*
X81455820Y-82380498D01*
X81345506Y-82439463D01*
X81248815Y-82518815D01*
X81169463Y-82615506D01*
X81110498Y-82725820D01*
X81074188Y-82845518D01*
X81061928Y-82970000D01*
X78917000Y-82970000D01*
X78917000Y-80695000D01*
X157811001Y-80695000D01*
X157811000Y-120981000D01*
G04 #@! TA.AperFunction,Conductor*
D27*
G36*
X157811000Y-120981000D02*
G01*
X78917000Y-120981000D01*
X78917000Y-96520000D01*
X79246324Y-96520000D01*
X79250000Y-96557322D01*
X79250001Y-118029079D01*
X79246324Y-118066412D01*
X79250001Y-118103745D01*
X79260998Y-118215398D01*
X79267551Y-118237000D01*
X79304454Y-118358658D01*
X79375026Y-118490688D01*
X79433879Y-118562400D01*
X79470000Y-118606413D01*
X79498998Y-118630211D01*
X81014800Y-120146014D01*
X81038598Y-120175012D01*
X81067596Y-120198810D01*
X81154322Y-120269985D01*
X81286352Y-120340557D01*
X81429613Y-120384014D01*
X81541266Y-120395011D01*
X81541276Y-120395011D01*
X81578599Y-120398687D01*
X81615921Y-120395011D01*
X111112669Y-120395011D01*
X111149991Y-120398687D01*
X111187313Y-120395011D01*
X111187324Y-120395011D01*
X111298977Y-120384014D01*
X111442238Y-120340557D01*
X111574267Y-120269985D01*
X111689992Y-120175012D01*
X111713795Y-120146008D01*
X113117141Y-118742662D01*
X113263038Y-118961013D01*
X113448987Y-119146962D01*
X113667641Y-119293061D01*
X113910595Y-119393696D01*
X114168514Y-119445000D01*
X114431486Y-119445000D01*
X114689405Y-119393696D01*
X114932359Y-119293061D01*
X115151013Y-119146962D01*
X115336962Y-118961013D01*
X115483061Y-118742359D01*
X115583696Y-118499405D01*
X115635000Y-118241486D01*
X115635000Y-117978514D01*
X118045000Y-117978514D01*
X118045000Y-118241486D01*
X118096304Y-118499405D01*
X118196939Y-118742359D01*
X118343038Y-118961013D01*
X118528987Y-119146962D01*
X118747641Y-119293061D01*
X118990595Y-119393696D01*
X119248514Y-119445000D01*
X119511486Y-119445000D01*
X119769405Y-119393696D01*
X120012359Y-119293061D01*
X120231013Y-119146962D01*
X120416962Y-118961013D01*
X120563061Y-118742359D01*
X120663696Y-118499405D01*
X120715000Y-118241486D01*
X120715000Y-117978514D01*
X120663696Y-117720595D01*
X120563061Y-117477641D01*
X120416962Y-117258987D01*
X120231013Y-117073038D01*
X120012359Y-116926939D01*
X119769405Y-116826304D01*
X119511486Y-116775000D01*
X119248514Y-116775000D01*
X118990595Y-116826304D01*
X118747641Y-116926939D01*
X118528987Y-117073038D01*
X118343038Y-117258987D01*
X118196939Y-117477641D01*
X118096304Y-117720595D01*
X118045000Y-117978514D01*
X115635000Y-117978514D01*
X115583696Y-117720595D01*
X115483061Y-117477641D01*
X115336962Y-117258987D01*
X115151013Y-117073038D01*
X114932662Y-116927141D01*
X115161138Y-116698665D01*
X121755000Y-116698665D01*
X121755000Y-116981335D01*
X121810147Y-117258574D01*
X121918320Y-117519727D01*
X122075363Y-117754759D01*
X122275241Y-117954637D01*
X122510273Y-118111680D01*
X122771426Y-118219853D01*
X123048665Y-118275000D01*
X123331335Y-118275000D01*
X123608574Y-118219853D01*
X123869727Y-118111680D01*
X124104759Y-117954637D01*
X124304637Y-117754759D01*
X124461680Y-117519727D01*
X124513172Y-117395413D01*
X137474192Y-117395413D01*
X137569956Y-117659814D01*
X137859571Y-117800704D01*
X138171108Y-117882384D01*
X138492595Y-117901718D01*
X138811675Y-117857961D01*
X139116088Y-117752795D01*
X139290044Y-117659814D01*
X139385808Y-117395413D01*
X143974192Y-117395413D01*
X144069956Y-117659814D01*
X144359571Y-117800704D01*
X144671108Y-117882384D01*
X144992595Y-117901718D01*
X145311675Y-117857961D01*
X145616088Y-117752795D01*
X145790044Y-117659814D01*
X145885808Y-117395413D01*
X147634192Y-117395413D01*
X147729956Y-117659814D01*
X148019571Y-117800704D01*
X148331108Y-117882384D01*
X148652595Y-117901718D01*
X148971675Y-117857961D01*
X149276088Y-117752795D01*
X149450044Y-117659814D01*
X149545808Y-117395413D01*
X154134192Y-117395413D01*
X154229956Y-117659814D01*
X154519571Y-117800704D01*
X154831108Y-117882384D01*
X155152595Y-117901718D01*
X155471675Y-117857961D01*
X155776088Y-117752795D01*
X155950044Y-117659814D01*
X156045808Y-117395413D01*
X155090000Y-116439605D01*
X154134192Y-117395413D01*
X149545808Y-117395413D01*
X148590000Y-116439605D01*
X147634192Y-117395413D01*
X145885808Y-117395413D01*
X144930000Y-116439605D01*
X143974192Y-117395413D01*
X139385808Y-117395413D01*
X138430000Y-116439605D01*
X137474192Y-117395413D01*
X124513172Y-117395413D01*
X124569853Y-117258574D01*
X124625000Y-116981335D01*
X124625000Y-116826602D01*
X127193003Y-116826602D01*
X127309275Y-117108389D01*
X127627860Y-117266257D01*
X127971122Y-117358938D01*
X128325869Y-117382873D01*
X128678470Y-117337139D01*
X129015373Y-117223495D01*
X129230725Y-117108389D01*
X129346997Y-116826602D01*
X128270000Y-115749605D01*
X127193003Y-116826602D01*
X124625000Y-116826602D01*
X124625000Y-116698665D01*
X124569853Y-116421426D01*
X124461680Y-116160273D01*
X124304637Y-115925241D01*
X124104759Y-115725363D01*
X123955856Y-115625869D01*
X126457127Y-115625869D01*
X126502861Y-115978470D01*
X126616505Y-116315373D01*
X126731611Y-116530725D01*
X127013398Y-116646997D01*
X128090395Y-115570000D01*
X128449605Y-115570000D01*
X129526602Y-116646997D01*
X129808389Y-116530725D01*
X129911523Y-116322595D01*
X136788282Y-116322595D01*
X136832039Y-116641675D01*
X136937205Y-116946088D01*
X137030186Y-117120044D01*
X137294587Y-117215808D01*
X138250395Y-116260000D01*
X138609605Y-116260000D01*
X139565413Y-117215808D01*
X139829814Y-117120044D01*
X139970704Y-116830429D01*
X140052384Y-116518892D01*
X140064189Y-116322595D01*
X143288282Y-116322595D01*
X143332039Y-116641675D01*
X143437205Y-116946088D01*
X143530186Y-117120044D01*
X143794587Y-117215808D01*
X144750395Y-116260000D01*
X145109605Y-116260000D01*
X146065413Y-117215808D01*
X146329814Y-117120044D01*
X146470704Y-116830429D01*
X146552384Y-116518892D01*
X146564189Y-116322595D01*
X146948282Y-116322595D01*
X146992039Y-116641675D01*
X147097205Y-116946088D01*
X147190186Y-117120044D01*
X147454587Y-117215808D01*
X148410395Y-116260000D01*
X148769605Y-116260000D01*
X149725413Y-117215808D01*
X149989814Y-117120044D01*
X150130704Y-116830429D01*
X150212384Y-116518892D01*
X150224189Y-116322595D01*
X153448282Y-116322595D01*
X153492039Y-116641675D01*
X153597205Y-116946088D01*
X153690186Y-117120044D01*
X153954587Y-117215808D01*
X154910395Y-116260000D01*
X155269605Y-116260000D01*
X156225413Y-117215808D01*
X156489814Y-117120044D01*
X156630704Y-116830429D01*
X156712384Y-116518892D01*
X156731718Y-116197405D01*
X156687961Y-115878325D01*
X156582795Y-115573912D01*
X156489814Y-115399956D01*
X156225413Y-115304192D01*
X155269605Y-116260000D01*
X154910395Y-116260000D01*
X153954587Y-115304192D01*
X153690186Y-115399956D01*
X153549296Y-115689571D01*
X153467616Y-116001108D01*
X153448282Y-116322595D01*
X150224189Y-116322595D01*
X150231718Y-116197405D01*
X150187961Y-115878325D01*
X150082795Y-115573912D01*
X149989814Y-115399956D01*
X149725413Y-115304192D01*
X148769605Y-116260000D01*
X148410395Y-116260000D01*
X147454587Y-115304192D01*
X147190186Y-115399956D01*
X147049296Y-115689571D01*
X146967616Y-116001108D01*
X146948282Y-116322595D01*
X146564189Y-116322595D01*
X146571718Y-116197405D01*
X146527961Y-115878325D01*
X146422795Y-115573912D01*
X146329814Y-115399956D01*
X146065413Y-115304192D01*
X145109605Y-116260000D01*
X144750395Y-116260000D01*
X143794587Y-115304192D01*
X143530186Y-115399956D01*
X143389296Y-115689571D01*
X143307616Y-116001108D01*
X143288282Y-116322595D01*
X140064189Y-116322595D01*
X140071718Y-116197405D01*
X140027961Y-115878325D01*
X139922795Y-115573912D01*
X139829814Y-115399956D01*
X139565413Y-115304192D01*
X138609605Y-116260000D01*
X138250395Y-116260000D01*
X137294587Y-115304192D01*
X137030186Y-115399956D01*
X136889296Y-115689571D01*
X136807616Y-116001108D01*
X136788282Y-116322595D01*
X129911523Y-116322595D01*
X129966257Y-116212140D01*
X130058938Y-115868878D01*
X130082873Y-115514131D01*
X130037139Y-115161530D01*
X130024678Y-115124587D01*
X137474192Y-115124587D01*
X138430000Y-116080395D01*
X139385808Y-115124587D01*
X143974192Y-115124587D01*
X144930000Y-116080395D01*
X145885808Y-115124587D01*
X147634192Y-115124587D01*
X148590000Y-116080395D01*
X149545808Y-115124587D01*
X154134192Y-115124587D01*
X155090000Y-116080395D01*
X156045808Y-115124587D01*
X155950044Y-114860186D01*
X155660429Y-114719296D01*
X155348892Y-114637616D01*
X155027405Y-114618282D01*
X154708325Y-114662039D01*
X154403912Y-114767205D01*
X154229956Y-114860186D01*
X154134192Y-115124587D01*
X149545808Y-115124587D01*
X149450044Y-114860186D01*
X149160429Y-114719296D01*
X148848892Y-114637616D01*
X148527405Y-114618282D01*
X148208325Y-114662039D01*
X147903912Y-114767205D01*
X147729956Y-114860186D01*
X147634192Y-115124587D01*
X145885808Y-115124587D01*
X145790044Y-114860186D01*
X145500429Y-114719296D01*
X145188892Y-114637616D01*
X144867405Y-114618282D01*
X144548325Y-114662039D01*
X144243912Y-114767205D01*
X144069956Y-114860186D01*
X143974192Y-115124587D01*
X139385808Y-115124587D01*
X139290044Y-114860186D01*
X139000429Y-114719296D01*
X138688892Y-114637616D01*
X138367405Y-114618282D01*
X138048325Y-114662039D01*
X137743912Y-114767205D01*
X137569956Y-114860186D01*
X137474192Y-115124587D01*
X130024678Y-115124587D01*
X129923495Y-114824627D01*
X129808389Y-114609275D01*
X129526602Y-114493003D01*
X128449605Y-115570000D01*
X128090395Y-115570000D01*
X127013398Y-114493003D01*
X126731611Y-114609275D01*
X126573743Y-114927860D01*
X126481062Y-115271122D01*
X126457127Y-115625869D01*
X123955856Y-115625869D01*
X123869727Y-115568320D01*
X123608574Y-115460147D01*
X123331335Y-115405000D01*
X123048665Y-115405000D01*
X122771426Y-115460147D01*
X122510273Y-115568320D01*
X122275241Y-115725363D01*
X122075363Y-115925241D01*
X121918320Y-116160273D01*
X121810147Y-116421426D01*
X121755000Y-116698665D01*
X115161138Y-116698665D01*
X117546405Y-114313398D01*
X127193003Y-114313398D01*
X128270000Y-115390395D01*
X129346997Y-114313398D01*
X129230725Y-114031611D01*
X128912140Y-113873743D01*
X128568878Y-113781062D01*
X128214131Y-113757127D01*
X127861530Y-113802861D01*
X127524627Y-113916505D01*
X127309275Y-114031611D01*
X127193003Y-114313398D01*
X117546405Y-114313398D01*
X118967580Y-112892223D01*
X131465000Y-112892223D01*
X131465000Y-113247777D01*
X131534365Y-113596499D01*
X131670429Y-113924988D01*
X131867965Y-114220621D01*
X132119379Y-114472035D01*
X132415012Y-114669571D01*
X132743501Y-114805635D01*
X133092223Y-114875000D01*
X133447777Y-114875000D01*
X133796499Y-114805635D01*
X134124988Y-114669571D01*
X134420621Y-114472035D01*
X134672035Y-114220621D01*
X134869571Y-113924988D01*
X135005635Y-113596499D01*
X135075000Y-113247777D01*
X135075000Y-112892223D01*
X135005635Y-112543501D01*
X134869571Y-112215012D01*
X134672035Y-111919379D01*
X134420621Y-111667965D01*
X134317359Y-111598967D01*
X136795000Y-111598967D01*
X136795000Y-111921033D01*
X136857832Y-112236912D01*
X136981082Y-112534463D01*
X137160013Y-112802252D01*
X137387748Y-113029987D01*
X137655537Y-113208918D01*
X137953088Y-113332168D01*
X138268967Y-113395000D01*
X138591033Y-113395000D01*
X138906912Y-113332168D01*
X139204463Y-113208918D01*
X139472252Y-113029987D01*
X139699987Y-112802252D01*
X139878918Y-112534463D01*
X140002168Y-112236912D01*
X140065000Y-111921033D01*
X140065000Y-111598967D01*
X143295000Y-111598967D01*
X143295000Y-111921033D01*
X143357832Y-112236912D01*
X143481082Y-112534463D01*
X143660013Y-112802252D01*
X143887748Y-113029987D01*
X144155537Y-113208918D01*
X144453088Y-113332168D01*
X144768967Y-113395000D01*
X145091033Y-113395000D01*
X145406912Y-113332168D01*
X145704463Y-113208918D01*
X145972252Y-113029987D01*
X146199987Y-112802252D01*
X146378918Y-112534463D01*
X146502168Y-112236912D01*
X146565000Y-111921033D01*
X146565000Y-111598967D01*
X146955000Y-111598967D01*
X146955000Y-111921033D01*
X147017832Y-112236912D01*
X147141082Y-112534463D01*
X147320013Y-112802252D01*
X147547748Y-113029987D01*
X147815537Y-113208918D01*
X148113088Y-113332168D01*
X148428967Y-113395000D01*
X148751033Y-113395000D01*
X149066912Y-113332168D01*
X149364463Y-113208918D01*
X149632252Y-113029987D01*
X149859987Y-112802252D01*
X150038918Y-112534463D01*
X150162168Y-112236912D01*
X150225000Y-111921033D01*
X150225000Y-111598967D01*
X153455000Y-111598967D01*
X153455000Y-111921033D01*
X153517832Y-112236912D01*
X153641082Y-112534463D01*
X153820013Y-112802252D01*
X154047748Y-113029987D01*
X154315537Y-113208918D01*
X154613088Y-113332168D01*
X154928967Y-113395000D01*
X155251033Y-113395000D01*
X155566912Y-113332168D01*
X155864463Y-113208918D01*
X156132252Y-113029987D01*
X156359987Y-112802252D01*
X156538918Y-112534463D01*
X156662168Y-112236912D01*
X156725000Y-111921033D01*
X156725000Y-111598967D01*
X156662168Y-111283088D01*
X156538918Y-110985537D01*
X156359987Y-110717748D01*
X156132252Y-110490013D01*
X155864463Y-110311082D01*
X155566912Y-110187832D01*
X155251033Y-110125000D01*
X154928967Y-110125000D01*
X154613088Y-110187832D01*
X154315537Y-110311082D01*
X154047748Y-110490013D01*
X153820013Y-110717748D01*
X153641082Y-110985537D01*
X153517832Y-111283088D01*
X153455000Y-111598967D01*
X150225000Y-111598967D01*
X150162168Y-111283088D01*
X150038918Y-110985537D01*
X149859987Y-110717748D01*
X149632252Y-110490013D01*
X149364463Y-110311082D01*
X149066912Y-110187832D01*
X148751033Y-110125000D01*
X148428967Y-110125000D01*
X148113088Y-110187832D01*
X147815537Y-110311082D01*
X147547748Y-110490013D01*
X147320013Y-110717748D01*
X147141082Y-110985537D01*
X147017832Y-111283088D01*
X146955000Y-111598967D01*
X146565000Y-111598967D01*
X146502168Y-111283088D01*
X146378918Y-110985537D01*
X146199987Y-110717748D01*
X145972252Y-110490013D01*
X145704463Y-110311082D01*
X145406912Y-110187832D01*
X145091033Y-110125000D01*
X144768967Y-110125000D01*
X144453088Y-110187832D01*
X144155537Y-110311082D01*
X143887748Y-110490013D01*
X143660013Y-110717748D01*
X143481082Y-110985537D01*
X143357832Y-111283088D01*
X143295000Y-111598967D01*
X140065000Y-111598967D01*
X140002168Y-111283088D01*
X139878918Y-110985537D01*
X139699987Y-110717748D01*
X139472252Y-110490013D01*
X139204463Y-110311082D01*
X138906912Y-110187832D01*
X138591033Y-110125000D01*
X138268967Y-110125000D01*
X137953088Y-110187832D01*
X137655537Y-110311082D01*
X137387748Y-110490013D01*
X137160013Y-110717748D01*
X136981082Y-110985537D01*
X136857832Y-111283088D01*
X136795000Y-111598967D01*
X134317359Y-111598967D01*
X134124988Y-111470429D01*
X133796499Y-111334365D01*
X133447777Y-111265000D01*
X133092223Y-111265000D01*
X132743501Y-111334365D01*
X132415012Y-111470429D01*
X132119379Y-111667965D01*
X131867965Y-111919379D01*
X131670429Y-112215012D01*
X131534365Y-112543501D01*
X131465000Y-112892223D01*
X118967580Y-112892223D01*
X119891004Y-111968800D01*
X119920001Y-111945003D01*
X119941395Y-111918935D01*
X120107095Y-111850299D01*
X120358505Y-111682312D01*
X120572312Y-111468505D01*
X120740299Y-111217095D01*
X120856011Y-110937743D01*
X120915000Y-110641184D01*
X120915000Y-110338816D01*
X120856011Y-110042257D01*
X120740299Y-109762905D01*
X120610763Y-109569040D01*
X121798091Y-109569040D01*
X121892930Y-109833881D01*
X122037615Y-110075131D01*
X122226586Y-110283519D01*
X122452580Y-110451037D01*
X122706913Y-110571246D01*
X122840961Y-110611904D01*
X123063000Y-110489915D01*
X123063000Y-109347000D01*
X123317000Y-109347000D01*
X123317000Y-110489915D01*
X123539039Y-110611904D01*
X123673087Y-110571246D01*
X123927420Y-110451037D01*
X124006764Y-110392223D01*
X126465000Y-110392223D01*
X126465000Y-110747777D01*
X126534365Y-111096499D01*
X126670429Y-111424988D01*
X126867965Y-111720621D01*
X127119379Y-111972035D01*
X127415012Y-112169571D01*
X127743501Y-112305635D01*
X128092223Y-112375000D01*
X128447777Y-112375000D01*
X128796499Y-112305635D01*
X129124988Y-112169571D01*
X129420621Y-111972035D01*
X129672035Y-111720621D01*
X129869571Y-111424988D01*
X130005635Y-111096499D01*
X130075000Y-110747777D01*
X130075000Y-110392223D01*
X130005635Y-110043501D01*
X129869571Y-109715012D01*
X129672035Y-109419379D01*
X129420621Y-109167965D01*
X129124988Y-108970429D01*
X128796499Y-108834365D01*
X128447777Y-108765000D01*
X128092223Y-108765000D01*
X127743501Y-108834365D01*
X127415012Y-108970429D01*
X127119379Y-109167965D01*
X126867965Y-109419379D01*
X126670429Y-109715012D01*
X126534365Y-110043501D01*
X126465000Y-110392223D01*
X124006764Y-110392223D01*
X124153414Y-110283519D01*
X124342385Y-110075131D01*
X124487070Y-109833881D01*
X124581909Y-109569040D01*
X124460624Y-109347000D01*
X123317000Y-109347000D01*
X123063000Y-109347000D01*
X121919376Y-109347000D01*
X121798091Y-109569040D01*
X120610763Y-109569040D01*
X120572312Y-109511495D01*
X120358505Y-109297688D01*
X120107095Y-109129701D01*
X119827743Y-109013989D01*
X119531184Y-108955000D01*
X119228816Y-108955000D01*
X118932257Y-109013989D01*
X118652905Y-109129701D01*
X118401495Y-109297688D01*
X118335056Y-109364127D01*
X118329502Y-109345820D01*
X118270537Y-109235506D01*
X118191185Y-109138815D01*
X118094494Y-109059463D01*
X117984180Y-109000498D01*
X117864482Y-108964188D01*
X117740000Y-108951928D01*
X116912873Y-108951928D01*
X116993841Y-108870960D01*
X121798091Y-108870960D01*
X121919376Y-109093000D01*
X123063000Y-109093000D01*
X123063000Y-107950085D01*
X123317000Y-107950085D01*
X123317000Y-109093000D01*
X124460624Y-109093000D01*
X124581909Y-108870960D01*
X124487070Y-108606119D01*
X124342385Y-108364869D01*
X124153414Y-108156481D01*
X123927420Y-107988963D01*
X123673087Y-107868754D01*
X123539039Y-107828096D01*
X123317000Y-107950085D01*
X123063000Y-107950085D01*
X122840961Y-107828096D01*
X122706913Y-107868754D01*
X122452580Y-107988963D01*
X122226586Y-108156481D01*
X122037615Y-108364869D01*
X121892930Y-108606119D01*
X121798091Y-108870960D01*
X116993841Y-108870960D01*
X118556779Y-107308023D01*
X123157860Y-107308023D01*
X123195182Y-107311699D01*
X123232504Y-107308023D01*
X123232515Y-107308023D01*
X123344168Y-107297026D01*
X123487429Y-107253569D01*
X123619458Y-107182997D01*
X123735183Y-107088024D01*
X123758986Y-107059020D01*
X124017694Y-106800312D01*
X145382366Y-106800312D01*
X145419688Y-106803988D01*
X145457010Y-106800312D01*
X145457021Y-106800312D01*
X145568674Y-106789315D01*
X145711935Y-106745858D01*
X145843964Y-106675286D01*
X145959689Y-106580313D01*
X145983492Y-106551309D01*
X148223592Y-104311210D01*
X148443740Y-104355000D01*
X148736260Y-104355000D01*
X149023158Y-104297932D01*
X149293411Y-104185990D01*
X149536632Y-104023475D01*
X149743475Y-103816632D01*
X149905990Y-103573411D01*
X150017932Y-103303158D01*
X150075000Y-103016260D01*
X150075000Y-102723740D01*
X150017932Y-102436842D01*
X149905990Y-102166589D01*
X149743475Y-101923368D01*
X149536632Y-101716525D01*
X149362240Y-101600000D01*
X149536632Y-101483475D01*
X149743475Y-101276632D01*
X149905990Y-101033411D01*
X150017932Y-100763158D01*
X150075000Y-100476260D01*
X150075000Y-100183740D01*
X150017932Y-99896842D01*
X149905990Y-99626589D01*
X149743475Y-99383368D01*
X149611620Y-99251513D01*
X149684180Y-99229502D01*
X149794494Y-99170537D01*
X149891185Y-99091185D01*
X149970537Y-98994494D01*
X150029502Y-98884180D01*
X150065812Y-98764482D01*
X150078072Y-98640000D01*
X150078072Y-96940000D01*
X150065812Y-96815518D01*
X150029502Y-96695820D01*
X149970537Y-96585506D01*
X149891185Y-96488815D01*
X149794494Y-96409463D01*
X149684180Y-96350498D01*
X149564482Y-96314188D01*
X149440000Y-96301928D01*
X148176730Y-96301928D01*
X145540000Y-93665199D01*
X145540000Y-92004801D01*
X153498790Y-99963593D01*
X153455000Y-100183740D01*
X153455000Y-100476260D01*
X153512068Y-100763158D01*
X153624010Y-101033411D01*
X153786525Y-101276632D01*
X153993368Y-101483475D01*
X154167760Y-101600000D01*
X153993368Y-101716525D01*
X153786525Y-101923368D01*
X153624010Y-102166589D01*
X153512068Y-102436842D01*
X153455000Y-102723740D01*
X153455000Y-103016260D01*
X153512068Y-103303158D01*
X153624010Y-103573411D01*
X153786525Y-103816632D01*
X153993368Y-104023475D01*
X154236589Y-104185990D01*
X154506842Y-104297932D01*
X154793740Y-104355000D01*
X155086260Y-104355000D01*
X155373158Y-104297932D01*
X155643411Y-104185990D01*
X155886632Y-104023475D01*
X156093475Y-103816632D01*
X156255990Y-103573411D01*
X156367932Y-103303158D01*
X156425000Y-103016260D01*
X156425000Y-102723740D01*
X156381209Y-102503592D01*
X157483003Y-101401799D01*
X157512001Y-101378001D01*
X157569652Y-101307753D01*
X157606974Y-101262277D01*
X157677546Y-101130247D01*
X157721003Y-100986986D01*
X157732000Y-100875333D01*
X157732000Y-100875323D01*
X157735676Y-100838000D01*
X157732000Y-100800677D01*
X157732000Y-93509323D01*
X157735676Y-93472000D01*
X157732000Y-93434677D01*
X157732000Y-93434667D01*
X157721003Y-93323014D01*
X157677546Y-93179753D01*
X157606974Y-93047724D01*
X157512001Y-92931999D01*
X157483003Y-92908201D01*
X151301209Y-86726408D01*
X151345000Y-86506260D01*
X151345000Y-86213740D01*
X151287932Y-85926842D01*
X151175990Y-85656589D01*
X151013475Y-85413368D01*
X150881620Y-85281513D01*
X150954180Y-85259502D01*
X151064494Y-85200537D01*
X151161185Y-85121185D01*
X151240537Y-85024494D01*
X151299502Y-84914180D01*
X151335812Y-84794482D01*
X151348072Y-84670000D01*
X151345000Y-84105750D01*
X151186250Y-83947000D01*
X149987000Y-83947000D01*
X149987000Y-83967000D01*
X149733000Y-83967000D01*
X149733000Y-83947000D01*
X148533750Y-83947000D01*
X148375000Y-84105750D01*
X148371928Y-84670000D01*
X148384188Y-84794482D01*
X148420498Y-84914180D01*
X148479463Y-85024494D01*
X148558815Y-85121185D01*
X148655506Y-85200537D01*
X148765820Y-85259502D01*
X148838380Y-85281513D01*
X148706525Y-85413368D01*
X148544010Y-85656589D01*
X148432068Y-85926842D01*
X148375000Y-86213740D01*
X148375000Y-86506260D01*
X148432068Y-86793158D01*
X148544010Y-87063411D01*
X148706525Y-87306632D01*
X148913368Y-87513475D01*
X149156589Y-87675990D01*
X149426842Y-87787932D01*
X149713740Y-87845000D01*
X150006260Y-87845000D01*
X150226408Y-87801209D01*
X156212000Y-93786802D01*
X156212000Y-96464864D01*
X156144494Y-96409463D01*
X156034180Y-96350498D01*
X155914482Y-96314188D01*
X155790000Y-96301928D01*
X154090000Y-96301928D01*
X153965518Y-96314188D01*
X153845820Y-96350498D01*
X153735506Y-96409463D01*
X153638815Y-96488815D01*
X153559463Y-96585506D01*
X153500498Y-96695820D01*
X153464188Y-96815518D01*
X153451928Y-96940000D01*
X153451928Y-97767125D01*
X146715001Y-91030200D01*
X146715001Y-87572323D01*
X146718677Y-87535000D01*
X146715001Y-87497677D01*
X146715001Y-87497668D01*
X146704004Y-87386015D01*
X146660547Y-87242754D01*
X146589975Y-87110725D01*
X146495002Y-86995000D01*
X146466004Y-86971202D01*
X146221210Y-86726408D01*
X146265000Y-86506260D01*
X146265000Y-86213740D01*
X146207932Y-85926842D01*
X146095990Y-85656589D01*
X145933475Y-85413368D01*
X145801620Y-85281513D01*
X145874180Y-85259502D01*
X145984494Y-85200537D01*
X146081185Y-85121185D01*
X146160537Y-85024494D01*
X146219502Y-84914180D01*
X146255812Y-84794482D01*
X146268072Y-84670000D01*
X146265000Y-84105750D01*
X146106250Y-83947000D01*
X144907000Y-83947000D01*
X144907000Y-83967000D01*
X144653000Y-83967000D01*
X144653000Y-83947000D01*
X143453750Y-83947000D01*
X143295000Y-84105750D01*
X143291928Y-84670000D01*
X143304188Y-84794482D01*
X143340498Y-84914180D01*
X143399463Y-85024494D01*
X143478815Y-85121185D01*
X143575506Y-85200537D01*
X143685820Y-85259502D01*
X143758380Y-85281513D01*
X143626525Y-85413368D01*
X143464010Y-85656589D01*
X143352068Y-85926842D01*
X143295000Y-86213740D01*
X143295000Y-86506260D01*
X143352068Y-86793158D01*
X143464010Y-87063411D01*
X143626525Y-87306632D01*
X143833368Y-87513475D01*
X144007760Y-87630000D01*
X143833368Y-87746525D01*
X143626525Y-87953368D01*
X143464010Y-88196589D01*
X143352068Y-88466842D01*
X143295000Y-88753740D01*
X143295000Y-89046260D01*
X143352068Y-89333158D01*
X143464010Y-89603411D01*
X143626525Y-89846632D01*
X143833368Y-90053475D01*
X144020000Y-90178179D01*
X144020001Y-93942668D01*
X144016324Y-93980000D01*
X144020001Y-94017333D01*
X144030998Y-94128986D01*
X144035432Y-94143602D01*
X144074454Y-94272246D01*
X144145026Y-94404276D01*
X144212362Y-94486324D01*
X144240000Y-94520001D01*
X144268998Y-94543799D01*
X147101928Y-97376730D01*
X147101928Y-98640000D01*
X147114188Y-98764482D01*
X147150498Y-98884180D01*
X147209463Y-98994494D01*
X147288815Y-99091185D01*
X147385506Y-99170537D01*
X147495820Y-99229502D01*
X147568380Y-99251513D01*
X147436525Y-99383368D01*
X147274010Y-99626589D01*
X147162068Y-99896842D01*
X147105000Y-100183740D01*
X147105000Y-100476260D01*
X147148790Y-100696408D01*
X144465199Y-103380000D01*
X137286103Y-103380000D01*
X137317932Y-103303158D01*
X137375000Y-103016260D01*
X137375000Y-102723740D01*
X137317932Y-102436842D01*
X137205990Y-102166589D01*
X137043475Y-101923368D01*
X136836632Y-101716525D01*
X136662240Y-101600000D01*
X136836632Y-101483475D01*
X137043475Y-101276632D01*
X137205990Y-101033411D01*
X137317932Y-100763158D01*
X137375000Y-100476260D01*
X137375000Y-100183740D01*
X137317932Y-99896842D01*
X137205990Y-99626589D01*
X137043475Y-99383368D01*
X136911620Y-99251513D01*
X136984180Y-99229502D01*
X137094494Y-99170537D01*
X137191185Y-99091185D01*
X137270537Y-98994494D01*
X137329502Y-98884180D01*
X137365812Y-98764482D01*
X137378072Y-98640000D01*
X137378072Y-96940000D01*
X137365812Y-96815518D01*
X137329502Y-96695820D01*
X137270537Y-96585506D01*
X137191185Y-96488815D01*
X137094494Y-96409463D01*
X136984180Y-96350498D01*
X136864482Y-96314188D01*
X136740000Y-96301928D01*
X135083042Y-96301928D01*
X135113839Y-96147100D01*
X135113839Y-96084962D01*
X135167802Y-96031000D01*
X135229939Y-96031000D01*
X135429898Y-95991226D01*
X135618256Y-95913205D01*
X135787774Y-95799937D01*
X135931937Y-95655774D01*
X136045205Y-95486256D01*
X136123226Y-95297898D01*
X136163000Y-95097939D01*
X136163000Y-94894061D01*
X136151252Y-94834999D01*
X138210198Y-94834999D01*
X140751928Y-97376730D01*
X140751928Y-98640000D01*
X140764188Y-98764482D01*
X140800498Y-98884180D01*
X140859463Y-98994494D01*
X140938815Y-99091185D01*
X141035506Y-99170537D01*
X141145820Y-99229502D01*
X141218380Y-99251513D01*
X141086525Y-99383368D01*
X140924010Y-99626589D01*
X140812068Y-99896842D01*
X140755000Y-100183740D01*
X140755000Y-100476260D01*
X140812068Y-100763158D01*
X140924010Y-101033411D01*
X141086525Y-101276632D01*
X141293368Y-101483475D01*
X141536589Y-101645990D01*
X141806842Y-101757932D01*
X142093740Y-101815000D01*
X142386260Y-101815000D01*
X142673158Y-101757932D01*
X142943411Y-101645990D01*
X143186632Y-101483475D01*
X143393475Y-101276632D01*
X143555990Y-101033411D01*
X143667932Y-100763158D01*
X143725000Y-100476260D01*
X143725000Y-100183740D01*
X143681210Y-99963592D01*
X143926005Y-99718797D01*
X143955002Y-99695000D01*
X144049975Y-99579275D01*
X144120547Y-99447246D01*
X144164004Y-99303985D01*
X144175001Y-99192332D01*
X144175001Y-99192323D01*
X144178677Y-99155000D01*
X144175001Y-99117677D01*
X144175001Y-96717324D01*
X144178677Y-96679999D01*
X144175001Y-96642674D01*
X144175001Y-96642666D01*
X144164004Y-96531013D01*
X144120547Y-96387752D01*
X144049975Y-96255723D01*
X143955002Y-96139998D01*
X143926004Y-96116200D01*
X140770806Y-92961003D01*
X140747003Y-92931999D01*
X140631278Y-92837026D01*
X140499249Y-92766454D01*
X140355988Y-92722997D01*
X140244335Y-92712000D01*
X140244324Y-92712000D01*
X140207002Y-92708324D01*
X140169680Y-92712000D01*
X124664980Y-92712000D01*
X124661697Y-92708000D01*
X133820678Y-92708000D01*
X133858000Y-92711676D01*
X133895322Y-92708000D01*
X133895333Y-92708000D01*
X134006986Y-92697003D01*
X134150247Y-92653546D01*
X134282276Y-92582974D01*
X134398001Y-92488001D01*
X134421804Y-92458997D01*
X136539592Y-90341210D01*
X136759740Y-90385000D01*
X137052260Y-90385000D01*
X137339158Y-90327932D01*
X137609411Y-90215990D01*
X137852632Y-90053475D01*
X138059475Y-89846632D01*
X138177100Y-89670594D01*
X138348412Y-89900269D01*
X138564645Y-90095178D01*
X138814748Y-90244157D01*
X139089109Y-90341481D01*
X139319000Y-90220814D01*
X139319000Y-89027000D01*
X139573000Y-89027000D01*
X139573000Y-90220814D01*
X139802891Y-90341481D01*
X140077252Y-90244157D01*
X140327355Y-90095178D01*
X140543588Y-89900269D01*
X140717641Y-89666920D01*
X140842825Y-89404099D01*
X140887476Y-89256890D01*
X140766155Y-89027000D01*
X139573000Y-89027000D01*
X139319000Y-89027000D01*
X139299000Y-89027000D01*
X139299000Y-88773000D01*
X139319000Y-88773000D01*
X139319000Y-88753000D01*
X139573000Y-88753000D01*
X139573000Y-88773000D01*
X140766155Y-88773000D01*
X140887476Y-88543110D01*
X140842825Y-88395901D01*
X140717641Y-88133080D01*
X140543588Y-87899731D01*
X140327355Y-87704822D01*
X140210466Y-87635195D01*
X140392632Y-87513475D01*
X140599475Y-87306632D01*
X140761990Y-87063411D01*
X140873932Y-86793158D01*
X140931000Y-86506260D01*
X140931000Y-86213740D01*
X140873932Y-85926842D01*
X140761990Y-85656589D01*
X140599475Y-85413368D01*
X140392632Y-85206525D01*
X140218240Y-85090000D01*
X140392632Y-84973475D01*
X140599475Y-84766632D01*
X140761990Y-84523411D01*
X140873932Y-84253158D01*
X140931000Y-83966260D01*
X140931000Y-83673740D01*
X140873932Y-83386842D01*
X140761990Y-83116589D01*
X140664043Y-82970000D01*
X143291928Y-82970000D01*
X143295000Y-83534250D01*
X143453750Y-83693000D01*
X144653000Y-83693000D01*
X144653000Y-82493750D01*
X144907000Y-82493750D01*
X144907000Y-83693000D01*
X146106250Y-83693000D01*
X146265000Y-83534250D01*
X146268072Y-82970000D01*
X148371928Y-82970000D01*
X148375000Y-83534250D01*
X148533750Y-83693000D01*
X149733000Y-83693000D01*
X149733000Y-82493750D01*
X149987000Y-82493750D01*
X149987000Y-83693000D01*
X151186250Y-83693000D01*
X151345000Y-83534250D01*
X151348072Y-82970000D01*
X151335812Y-82845518D01*
X151299502Y-82725820D01*
X151240537Y-82615506D01*
X151161185Y-82518815D01*
X151064494Y-82439463D01*
X150954180Y-82380498D01*
X150834482Y-82344188D01*
X150710000Y-82331928D01*
X150145750Y-82335000D01*
X149987000Y-82493750D01*
X149733000Y-82493750D01*
X149574250Y-82335000D01*
X149010000Y-82331928D01*
X148885518Y-82344188D01*
X148765820Y-82380498D01*
X148655506Y-82439463D01*
X148558815Y-82518815D01*
X148479463Y-82615506D01*
X148420498Y-82725820D01*
X148384188Y-82845518D01*
X148371928Y-82970000D01*
X146268072Y-82970000D01*
X146255812Y-82845518D01*
X146219502Y-82725820D01*
X146160537Y-82615506D01*
X146081185Y-82518815D01*
X145984494Y-82439463D01*
X145874180Y-82380498D01*
X145754482Y-82344188D01*
X145630000Y-82331928D01*
X145065750Y-82335000D01*
X144907000Y-82493750D01*
X144653000Y-82493750D01*
X144494250Y-82335000D01*
X143930000Y-82331928D01*
X143805518Y-82344188D01*
X143685820Y-82380498D01*
X143575506Y-82439463D01*
X143478815Y-82518815D01*
X143399463Y-82615506D01*
X143340498Y-82725820D01*
X143304188Y-82845518D01*
X143291928Y-82970000D01*
X140664043Y-82970000D01*
X140599475Y-82873368D01*
X140392632Y-82666525D01*
X140149411Y-82504010D01*
X139879158Y-82392068D01*
X139592260Y-82335000D01*
X139299740Y-82335000D01*
X139012842Y-82392068D01*
X138742589Y-82504010D01*
X138499368Y-82666525D01*
X138367513Y-82798380D01*
X138345502Y-82725820D01*
X138286537Y-82615506D01*
X138207185Y-82518815D01*
X138110494Y-82439463D01*
X138000180Y-82380498D01*
X137880482Y-82344188D01*
X137756000Y-82331928D01*
X136056000Y-82331928D01*
X135931518Y-82344188D01*
X135811820Y-82380498D01*
X135701506Y-82439463D01*
X135604815Y-82518815D01*
X135525463Y-82615506D01*
X135466498Y-82725820D01*
X135430188Y-82845518D01*
X135417928Y-82970000D01*
X135417928Y-84670000D01*
X135430188Y-84794482D01*
X135466498Y-84914180D01*
X135525463Y-85024494D01*
X135604815Y-85121185D01*
X135701506Y-85200537D01*
X135811820Y-85259502D01*
X135884380Y-85281513D01*
X135752525Y-85413368D01*
X135590010Y-85656589D01*
X135478068Y-85926842D01*
X135421000Y-86213740D01*
X135421000Y-86506260D01*
X135464790Y-86726407D01*
X132019199Y-90172000D01*
X130309247Y-90172000D01*
X130486632Y-90053475D01*
X130693475Y-89846632D01*
X130855990Y-89603411D01*
X130967932Y-89333158D01*
X131025000Y-89046260D01*
X131025000Y-88753740D01*
X130967932Y-88466842D01*
X130855990Y-88196589D01*
X130693475Y-87953368D01*
X130486632Y-87746525D01*
X130312240Y-87630000D01*
X130486632Y-87513475D01*
X130693475Y-87306632D01*
X130855990Y-87063411D01*
X130967932Y-86793158D01*
X131025000Y-86506260D01*
X131025000Y-86213740D01*
X130967932Y-85926842D01*
X130855990Y-85656589D01*
X130693475Y-85413368D01*
X130561620Y-85281513D01*
X130634180Y-85259502D01*
X130744494Y-85200537D01*
X130841185Y-85121185D01*
X130920537Y-85024494D01*
X130979502Y-84914180D01*
X131015812Y-84794482D01*
X131028072Y-84670000D01*
X131025000Y-84105750D01*
X130866250Y-83947000D01*
X129667000Y-83947000D01*
X129667000Y-83967000D01*
X129413000Y-83967000D01*
X129413000Y-83947000D01*
X128213750Y-83947000D01*
X128055000Y-84105750D01*
X128051928Y-84670000D01*
X128064188Y-84794482D01*
X128100498Y-84914180D01*
X128159463Y-85024494D01*
X128238815Y-85121185D01*
X128335506Y-85200537D01*
X128445820Y-85259502D01*
X128518380Y-85281513D01*
X128386525Y-85413368D01*
X128224010Y-85656589D01*
X128112068Y-85926842D01*
X128055000Y-86213740D01*
X128055000Y-86506260D01*
X128112068Y-86793158D01*
X128224010Y-87063411D01*
X128386525Y-87306632D01*
X128593368Y-87513475D01*
X128767760Y-87630000D01*
X128593368Y-87746525D01*
X128386525Y-87953368D01*
X128224010Y-88196589D01*
X128112068Y-88466842D01*
X128055000Y-88753740D01*
X128055000Y-89046260D01*
X128112068Y-89333158D01*
X128224010Y-89603411D01*
X128386525Y-89846632D01*
X128593368Y-90053475D01*
X128770753Y-90172000D01*
X120180323Y-90172000D01*
X120142998Y-90168324D01*
X120105673Y-90172000D01*
X120105665Y-90172000D01*
X119994012Y-90182997D01*
X119850751Y-90226454D01*
X119718722Y-90297026D01*
X119602997Y-90391999D01*
X119579199Y-90420997D01*
X118050197Y-91950000D01*
X110616103Y-91950000D01*
X110647932Y-91873158D01*
X110705000Y-91586260D01*
X110705000Y-91293740D01*
X110647932Y-91006842D01*
X110535990Y-90736589D01*
X110373475Y-90493368D01*
X110166632Y-90286525D01*
X109992240Y-90170000D01*
X110166632Y-90053475D01*
X110373475Y-89846632D01*
X110535990Y-89603411D01*
X110647932Y-89333158D01*
X110705000Y-89046260D01*
X110705000Y-88753740D01*
X110647932Y-88466842D01*
X110535990Y-88196589D01*
X110373475Y-87953368D01*
X110241620Y-87821513D01*
X110314180Y-87799502D01*
X110424494Y-87740537D01*
X110521185Y-87661185D01*
X110600537Y-87564494D01*
X110659502Y-87454180D01*
X110695812Y-87334482D01*
X110708072Y-87210000D01*
X110708072Y-85510000D01*
X110695812Y-85385518D01*
X110659502Y-85265820D01*
X110600537Y-85155506D01*
X110521185Y-85058815D01*
X110424494Y-84979463D01*
X110314180Y-84920498D01*
X110194482Y-84884188D01*
X110070000Y-84871928D01*
X109980000Y-84871928D01*
X109980000Y-84365322D01*
X109983676Y-84327999D01*
X109980000Y-84290676D01*
X109980000Y-84290667D01*
X109969003Y-84179014D01*
X109925546Y-84035753D01*
X109854974Y-83903724D01*
X109786264Y-83820000D01*
X109783799Y-83816996D01*
X109783795Y-83816992D01*
X109760001Y-83787999D01*
X109731008Y-83764205D01*
X108936803Y-82970000D01*
X128051928Y-82970000D01*
X128055000Y-83534250D01*
X128213750Y-83693000D01*
X129413000Y-83693000D01*
X129413000Y-82493750D01*
X129667000Y-82493750D01*
X129667000Y-83693000D01*
X130866250Y-83693000D01*
X131025000Y-83534250D01*
X131028072Y-82970000D01*
X131015812Y-82845518D01*
X130979502Y-82725820D01*
X130920537Y-82615506D01*
X130841185Y-82518815D01*
X130744494Y-82439463D01*
X130634180Y-82380498D01*
X130514482Y-82344188D01*
X130390000Y-82331928D01*
X129825750Y-82335000D01*
X129667000Y-82493750D01*
X129413000Y-82493750D01*
X129254250Y-82335000D01*
X128690000Y-82331928D01*
X128565518Y-82344188D01*
X128445820Y-82380498D01*
X128335506Y-82439463D01*
X128238815Y-82518815D01*
X128159463Y-82615506D01*
X128100498Y-82725820D01*
X128064188Y-82845518D01*
X128051928Y-82970000D01*
X108936803Y-82970000D01*
X107715000Y-81748199D01*
X107715000Y-81686061D01*
X107675226Y-81486102D01*
X107597205Y-81297744D01*
X107483937Y-81128226D01*
X107339774Y-80984063D01*
X107170256Y-80870795D01*
X106981898Y-80792774D01*
X106781939Y-80753000D01*
X106578061Y-80753000D01*
X106378102Y-80792774D01*
X106189744Y-80870795D01*
X106020226Y-80984063D01*
X105876063Y-81128226D01*
X105762795Y-81297744D01*
X105684774Y-81486102D01*
X105645000Y-81686061D01*
X105645000Y-81889939D01*
X105684774Y-82089898D01*
X105762795Y-82278256D01*
X105876063Y-82447774D01*
X106020226Y-82591937D01*
X106189744Y-82705205D01*
X106378102Y-82783226D01*
X106578061Y-82823000D01*
X106640199Y-82823000D01*
X108460001Y-84642804D01*
X108460001Y-84871928D01*
X108370000Y-84871928D01*
X108245518Y-84884188D01*
X108125820Y-84920498D01*
X108015506Y-84979463D01*
X107918815Y-85058815D01*
X107839463Y-85155506D01*
X107780498Y-85265820D01*
X107756089Y-85346286D01*
X107083805Y-84674002D01*
X107060002Y-84644998D01*
X106944277Y-84550025D01*
X106812248Y-84479453D01*
X106668987Y-84435996D01*
X106557334Y-84424999D01*
X106557323Y-84424999D01*
X106520001Y-84421323D01*
X106482679Y-84424999D01*
X101218510Y-84424999D01*
X101181177Y-84421322D01*
X101143844Y-84424999D01*
X101032191Y-84435996D01*
X100888930Y-84479453D01*
X100756901Y-84550025D01*
X100641176Y-84644998D01*
X100617378Y-84673996D01*
X100397348Y-84894026D01*
X100391775Y-84866011D01*
X100287371Y-84613957D01*
X100135799Y-84387114D01*
X99942886Y-84194201D01*
X99716043Y-84042629D01*
X99463989Y-83938225D01*
X99196411Y-83885000D01*
X98923589Y-83885000D01*
X98656011Y-83938225D01*
X98403957Y-84042629D01*
X98177114Y-84194201D01*
X97984201Y-84387114D01*
X97832629Y-84613957D01*
X97728225Y-84866011D01*
X97675000Y-85133589D01*
X97675000Y-85406411D01*
X97728225Y-85673989D01*
X97832629Y-85926043D01*
X97984201Y-86152886D01*
X98177114Y-86345799D01*
X98403957Y-86497371D01*
X98656011Y-86601775D01*
X98684027Y-86607348D01*
X93979900Y-91311475D01*
X93979900Y-91044665D01*
X93924753Y-90767426D01*
X93816580Y-90506273D01*
X93659537Y-90271241D01*
X93459659Y-90071363D01*
X93224627Y-89914320D01*
X92963474Y-89806147D01*
X92686235Y-89751000D01*
X92403565Y-89751000D01*
X92126326Y-89806147D01*
X91865173Y-89914320D01*
X91630141Y-90071363D01*
X91430263Y-90271241D01*
X91296208Y-90471869D01*
X91281571Y-90444486D01*
X91037602Y-90372903D01*
X90224505Y-91186000D01*
X91037602Y-91999097D01*
X91281571Y-91927514D01*
X91295224Y-91898659D01*
X91430263Y-92100759D01*
X91630141Y-92300637D01*
X91865173Y-92457680D01*
X92126326Y-92565853D01*
X92403565Y-92621000D01*
X92670375Y-92621000D01*
X91476375Y-93815000D01*
X91298665Y-93815000D01*
X91021426Y-93870147D01*
X90760273Y-93978320D01*
X90525241Y-94135363D01*
X90325363Y-94335241D01*
X90170000Y-94567759D01*
X90014637Y-94335241D01*
X89814759Y-94135363D01*
X89579727Y-93978320D01*
X89318574Y-93870147D01*
X89041335Y-93815000D01*
X88758665Y-93815000D01*
X88481426Y-93870147D01*
X88220273Y-93978320D01*
X87985241Y-94135363D01*
X87785363Y-94335241D01*
X87630000Y-94567759D01*
X87474637Y-94335241D01*
X87274759Y-94135363D01*
X87039727Y-93978320D01*
X86778574Y-93870147D01*
X86501335Y-93815000D01*
X86218665Y-93815000D01*
X85941426Y-93870147D01*
X85680273Y-93978320D01*
X85445241Y-94135363D01*
X85245363Y-94335241D01*
X85090000Y-94567759D01*
X84934637Y-94335241D01*
X84734759Y-94135363D01*
X84499727Y-93978320D01*
X84238574Y-93870147D01*
X83961335Y-93815000D01*
X83678665Y-93815000D01*
X83401426Y-93870147D01*
X83140273Y-93978320D01*
X82905241Y-94135363D01*
X82705363Y-94335241D01*
X82550000Y-94567759D01*
X82394637Y-94335241D01*
X82194759Y-94135363D01*
X81959727Y-93978320D01*
X81698574Y-93870147D01*
X81421335Y-93815000D01*
X81138665Y-93815000D01*
X80861426Y-93870147D01*
X80600273Y-93978320D01*
X80365241Y-94135363D01*
X80165363Y-94335241D01*
X80008320Y-94570273D01*
X79900147Y-94831426D01*
X79845000Y-95108665D01*
X79845000Y-95391335D01*
X79881312Y-95573886D01*
X79499003Y-95956196D01*
X79469999Y-95979999D01*
X79428144Y-96031000D01*
X79375026Y-96095724D01*
X79369998Y-96105131D01*
X79304454Y-96227754D01*
X79260997Y-96371015D01*
X79250000Y-96482668D01*
X79250000Y-96482678D01*
X79246324Y-96520000D01*
X78917000Y-96520000D01*
X78917000Y-89778000D01*
X79741928Y-89778000D01*
X79741928Y-91578000D01*
X79754188Y-91702482D01*
X79790498Y-91822180D01*
X79849463Y-91932494D01*
X79928815Y-92029185D01*
X80025506Y-92108537D01*
X80135820Y-92167502D01*
X80255518Y-92203812D01*
X80380000Y-92216072D01*
X81743270Y-92216072D01*
X82278200Y-92751002D01*
X82301998Y-92780000D01*
X82417723Y-92874973D01*
X82549752Y-92945545D01*
X82693013Y-92989002D01*
X82804666Y-92999999D01*
X82804675Y-92999999D01*
X82841998Y-93003675D01*
X82879321Y-92999999D01*
X86030679Y-92999999D01*
X86068001Y-93003675D01*
X86105323Y-92999999D01*
X86105334Y-92999999D01*
X86216987Y-92989002D01*
X86360248Y-92945545D01*
X86492277Y-92874973D01*
X86537978Y-92837467D01*
X86726665Y-92875000D01*
X87009335Y-92875000D01*
X87286574Y-92819853D01*
X87547727Y-92711680D01*
X87782759Y-92554637D01*
X87982637Y-92354759D01*
X88100274Y-92178702D01*
X89231803Y-92178702D01*
X89303386Y-92422671D01*
X89558896Y-92543571D01*
X89833084Y-92612300D01*
X90115412Y-92626217D01*
X90395030Y-92584787D01*
X90661192Y-92489603D01*
X90786414Y-92422671D01*
X90857997Y-92178702D01*
X90044900Y-91365605D01*
X89231803Y-92178702D01*
X88100274Y-92178702D01*
X88139680Y-92119727D01*
X88247853Y-91858574D01*
X88303000Y-91581335D01*
X88303000Y-91298665D01*
X88294616Y-91256512D01*
X88604683Y-91256512D01*
X88646113Y-91536130D01*
X88741297Y-91802292D01*
X88808229Y-91927514D01*
X89052198Y-91999097D01*
X89865295Y-91186000D01*
X89052198Y-90372903D01*
X88808229Y-90444486D01*
X88687329Y-90699996D01*
X88618600Y-90974184D01*
X88604683Y-91256512D01*
X88294616Y-91256512D01*
X88247853Y-91021426D01*
X88139680Y-90760273D01*
X87982637Y-90525241D01*
X87782759Y-90325363D01*
X87585110Y-90193298D01*
X89231803Y-90193298D01*
X90044900Y-91006395D01*
X90857997Y-90193298D01*
X90786414Y-89949329D01*
X90530904Y-89828429D01*
X90256716Y-89759700D01*
X89974388Y-89745783D01*
X89694770Y-89787213D01*
X89428608Y-89882397D01*
X89303386Y-89949329D01*
X89231803Y-90193298D01*
X87585110Y-90193298D01*
X87547727Y-90168320D01*
X87286574Y-90060147D01*
X87009335Y-90005000D01*
X86726665Y-90005000D01*
X86449426Y-90060147D01*
X86188273Y-90168320D01*
X85953241Y-90325363D01*
X85753363Y-90525241D01*
X85596320Y-90760273D01*
X85488147Y-91021426D01*
X85433000Y-91298665D01*
X85433000Y-91479999D01*
X85130250Y-91479999D01*
X85180299Y-91405095D01*
X85296011Y-91125743D01*
X85355000Y-90829184D01*
X85355000Y-90526816D01*
X85296011Y-90230257D01*
X85180299Y-89950905D01*
X85012312Y-89699495D01*
X84798505Y-89485688D01*
X84547095Y-89317701D01*
X84267743Y-89201989D01*
X83971184Y-89143000D01*
X83668816Y-89143000D01*
X83372257Y-89201989D01*
X83092905Y-89317701D01*
X82841495Y-89485688D01*
X82775056Y-89552127D01*
X82769502Y-89533820D01*
X82710537Y-89423506D01*
X82631185Y-89326815D01*
X82534494Y-89247463D01*
X82424180Y-89188498D01*
X82304482Y-89152188D01*
X82180000Y-89139928D01*
X80380000Y-89139928D01*
X80255518Y-89152188D01*
X80135820Y-89188498D01*
X80025506Y-89247463D01*
X79928815Y-89326815D01*
X79849463Y-89423506D01*
X79790498Y-89533820D01*
X79754188Y-89653518D01*
X79741928Y-89778000D01*
X78917000Y-89778000D01*
X78917000Y-84670000D01*
X81061928Y-84670000D01*
X81074188Y-84794482D01*
X81110498Y-84914180D01*
X81169463Y-85024494D01*
X81248815Y-85121185D01*
X81345506Y-85200537D01*
X81455820Y-85259502D01*
X81528380Y-85281513D01*
X81396525Y-85413368D01*
X81234010Y-85656589D01*
X81122068Y-85926842D01*
X81065000Y-86213740D01*
X81065000Y-86506260D01*
X81122068Y-86793158D01*
X81234010Y-87063411D01*
X81396525Y-87306632D01*
X81603368Y-87513475D01*
X81846589Y-87675990D01*
X82116842Y-87787932D01*
X82403740Y-87845000D01*
X82696260Y-87845000D01*
X82983158Y-87787932D01*
X83253411Y-87675990D01*
X83357107Y-87606702D01*
X89396903Y-87606702D01*
X89468486Y-87850671D01*
X89723996Y-87971571D01*
X89998184Y-88040300D01*
X90280512Y-88054217D01*
X90560130Y-88012787D01*
X90826292Y-87917603D01*
X90951514Y-87850671D01*
X91023097Y-87606702D01*
X90210000Y-86793605D01*
X89396903Y-87606702D01*
X83357107Y-87606702D01*
X83496632Y-87513475D01*
X83703475Y-87306632D01*
X83865990Y-87063411D01*
X83977932Y-86793158D01*
X83999543Y-86684512D01*
X88769783Y-86684512D01*
X88811213Y-86964130D01*
X88906397Y-87230292D01*
X88973329Y-87355514D01*
X89217298Y-87427097D01*
X90030395Y-86614000D01*
X89217298Y-85800903D01*
X88973329Y-85872486D01*
X88852429Y-86127996D01*
X88783700Y-86402184D01*
X88769783Y-86684512D01*
X83999543Y-86684512D01*
X84035000Y-86506260D01*
X84035000Y-86213740D01*
X83977932Y-85926842D01*
X83865990Y-85656589D01*
X83703475Y-85413368D01*
X83571620Y-85281513D01*
X83644180Y-85259502D01*
X83754494Y-85200537D01*
X83851185Y-85121185D01*
X83930537Y-85024494D01*
X83989502Y-84914180D01*
X84025812Y-84794482D01*
X84038072Y-84670000D01*
X84035345Y-84169040D01*
X85476091Y-84169040D01*
X85570930Y-84433881D01*
X85715615Y-84675131D01*
X85904586Y-84883519D01*
X86130580Y-85051037D01*
X86384913Y-85171246D01*
X86518961Y-85211904D01*
X86741000Y-85089915D01*
X86741000Y-83947000D01*
X86995000Y-83947000D01*
X86995000Y-85089915D01*
X87217039Y-85211904D01*
X87351087Y-85171246D01*
X87605420Y-85051037D01*
X87831414Y-84883519D01*
X87895632Y-84812702D01*
X89396903Y-84812702D01*
X89468486Y-85056671D01*
X89723996Y-85177571D01*
X89868855Y-85213882D01*
X89859870Y-85215213D01*
X89593708Y-85310397D01*
X89468486Y-85377329D01*
X89396903Y-85621298D01*
X90210000Y-86434395D01*
X91023097Y-85621298D01*
X90951514Y-85377329D01*
X90696004Y-85256429D01*
X90551145Y-85220118D01*
X90560130Y-85218787D01*
X90826292Y-85123603D01*
X90951514Y-85056671D01*
X91023097Y-84812702D01*
X90210000Y-83999605D01*
X89396903Y-84812702D01*
X87895632Y-84812702D01*
X88020385Y-84675131D01*
X88165070Y-84433881D01*
X88259909Y-84169040D01*
X88138624Y-83947000D01*
X86995000Y-83947000D01*
X86741000Y-83947000D01*
X85597376Y-83947000D01*
X85476091Y-84169040D01*
X84035345Y-84169040D01*
X84035000Y-84105750D01*
X83876250Y-83947000D01*
X82677000Y-83947000D01*
X82677000Y-83967000D01*
X82423000Y-83967000D01*
X82423000Y-83947000D01*
X81223750Y-83947000D01*
X81065000Y-84105750D01*
X81061928Y-84670000D01*
X78917000Y-84670000D01*
X78917000Y-83890512D01*
X88769783Y-83890512D01*
X88811213Y-84170130D01*
X88906397Y-84436292D01*
X88973329Y-84561514D01*
X89217298Y-84633097D01*
X90030395Y-83820000D01*
X90389605Y-83820000D01*
X91202702Y-84633097D01*
X91446671Y-84561514D01*
X91460324Y-84532659D01*
X91595363Y-84734759D01*
X91795241Y-84934637D01*
X92030273Y-85091680D01*
X92291426Y-85199853D01*
X92377629Y-85217000D01*
X92291426Y-85234147D01*
X92030273Y-85342320D01*
X91795241Y-85499363D01*
X91595363Y-85699241D01*
X91461308Y-85899869D01*
X91446671Y-85872486D01*
X91202702Y-85800903D01*
X90389605Y-86614000D01*
X91202702Y-87427097D01*
X91446671Y-87355514D01*
X91460324Y-87326659D01*
X91595363Y-87528759D01*
X91795241Y-87728637D01*
X92030273Y-87885680D01*
X92291426Y-87993853D01*
X92568665Y-88049000D01*
X92851335Y-88049000D01*
X93128574Y-87993853D01*
X93389727Y-87885680D01*
X93624759Y-87728637D01*
X93824637Y-87528759D01*
X93981680Y-87293727D01*
X94089853Y-87032574D01*
X94145000Y-86755335D01*
X94145000Y-86472665D01*
X94089853Y-86195426D01*
X93981680Y-85934273D01*
X93824637Y-85699241D01*
X93624759Y-85499363D01*
X93389727Y-85342320D01*
X93128574Y-85234147D01*
X93042371Y-85217000D01*
X93128574Y-85199853D01*
X93389727Y-85091680D01*
X93624759Y-84934637D01*
X93824637Y-84734759D01*
X93981680Y-84499727D01*
X94089853Y-84238574D01*
X94145000Y-83961335D01*
X94145000Y-83678665D01*
X94089853Y-83401426D01*
X93981680Y-83140273D01*
X93824637Y-82905241D01*
X93624759Y-82705363D01*
X93389727Y-82548320D01*
X93128574Y-82440147D01*
X92851335Y-82385000D01*
X92568665Y-82385000D01*
X92291426Y-82440147D01*
X92030273Y-82548320D01*
X91795241Y-82705363D01*
X91595363Y-82905241D01*
X91461308Y-83105869D01*
X91446671Y-83078486D01*
X91202702Y-83006903D01*
X90389605Y-83820000D01*
X90030395Y-83820000D01*
X89217298Y-83006903D01*
X88973329Y-83078486D01*
X88852429Y-83333996D01*
X88783700Y-83608184D01*
X88769783Y-83890512D01*
X78917000Y-83890512D01*
X78917000Y-82970000D01*
X81061928Y-82970000D01*
X81065000Y-83534250D01*
X81223750Y-83693000D01*
X82423000Y-83693000D01*
X82423000Y-82493750D01*
X82677000Y-82493750D01*
X82677000Y-83693000D01*
X83876250Y-83693000D01*
X84035000Y-83534250D01*
X84035344Y-83470960D01*
X85476091Y-83470960D01*
X85597376Y-83693000D01*
X86741000Y-83693000D01*
X86741000Y-82550085D01*
X86995000Y-82550085D01*
X86995000Y-83693000D01*
X88138624Y-83693000D01*
X88259909Y-83470960D01*
X88165070Y-83206119D01*
X88020385Y-82964869D01*
X87895633Y-82827298D01*
X89396903Y-82827298D01*
X90210000Y-83640395D01*
X91023097Y-82827298D01*
X90951514Y-82583329D01*
X90696004Y-82462429D01*
X90421816Y-82393700D01*
X90139488Y-82379783D01*
X89859870Y-82421213D01*
X89593708Y-82516397D01*
X89468486Y-82583329D01*
X89396903Y-82827298D01*
X87895633Y-82827298D01*
X87831414Y-82756481D01*
X87605420Y-82588963D01*
X87351087Y-82468754D01*
X87217039Y-82428096D01*
X86995000Y-82550085D01*
X86741000Y-82550085D01*
X86518961Y-82428096D01*
X86384913Y-82468754D01*
X86130580Y-82588963D01*
X85904586Y-82756481D01*
X85715615Y-82964869D01*
X85570930Y-83206119D01*
X85476091Y-83470960D01*
X84035344Y-83470960D01*
X84038072Y-82970000D01*
X84025812Y-82845518D01*
X83989502Y-82725820D01*
X83930537Y-82615506D01*
X83851185Y-82518815D01*
X83754494Y-82439463D01*
X83644180Y-82380498D01*
X83524482Y-82344188D01*
X83400000Y-82331928D01*
X82835750Y-82335000D01*
X82677000Y-82493750D01*
X82423000Y-82493750D01*
X82264250Y-82335000D01*
X81700000Y-82331928D01*
X81575518Y-82344188D01*
X81455820Y-82380498D01*
X81345506Y-82439463D01*
X81248815Y-82518815D01*
X81169463Y-82615506D01*
X81110498Y-82725820D01*
X81074188Y-82845518D01*
X81061928Y-82970000D01*
X78917000Y-82970000D01*
X78917000Y-80695000D01*
X157811001Y-80695000D01*
X157811000Y-120981000D01*
G37*
G04 #@! TD.AperFunction*
D26*
X115350498Y-111634180D02*
X115409463Y-111744494D01*
X115488815Y-111841185D01*
X115585506Y-111920537D01*
X115695820Y-111979502D01*
X115815518Y-112015812D01*
X115940000Y-112028072D01*
X117682128Y-112028072D01*
X111928072Y-117782129D01*
X111928072Y-117310000D01*
X111915812Y-117185518D01*
X111879502Y-117065820D01*
X111820537Y-116955506D01*
X111741185Y-116858815D01*
X111644494Y-116779463D01*
X111534180Y-116720498D01*
X111414482Y-116684188D01*
X111290000Y-116671928D01*
X109690000Y-116671928D01*
X109565518Y-116684188D01*
X109445820Y-116720498D01*
X109335506Y-116779463D01*
X109238815Y-116858815D01*
X109159463Y-116955506D01*
X109100498Y-117065820D01*
X109064188Y-117185518D01*
X109063357Y-117193961D01*
X108864759Y-116995363D01*
X108629727Y-116838320D01*
X108368574Y-116730147D01*
X108091335Y-116675000D01*
X107808665Y-116675000D01*
X107531426Y-116730147D01*
X107270273Y-116838320D01*
X107035241Y-116995363D01*
X106835363Y-117195241D01*
X106680000Y-117427759D01*
X106524637Y-117195241D01*
X106324759Y-116995363D01*
X106089727Y-116838320D01*
X105828574Y-116730147D01*
X105551335Y-116675000D01*
X105268665Y-116675000D01*
X104991426Y-116730147D01*
X104730273Y-116838320D01*
X104495241Y-116995363D01*
X104295363Y-117195241D01*
X104140000Y-117427759D01*
X103984637Y-117195241D01*
X103784759Y-116995363D01*
X103549727Y-116838320D01*
X103288574Y-116730147D01*
X103011335Y-116675000D01*
X102728665Y-116675000D01*
X102451426Y-116730147D01*
X102190273Y-116838320D01*
X101955241Y-116995363D01*
X101755363Y-117195241D01*
X101600000Y-117427759D01*
X101444637Y-117195241D01*
X101244759Y-116995363D01*
X101009727Y-116838320D01*
X100748574Y-116730147D01*
X100471335Y-116675000D01*
X100188665Y-116675000D01*
X99911426Y-116730147D01*
X99650273Y-116838320D01*
X99415241Y-116995363D01*
X99215363Y-117195241D01*
X99060000Y-117427759D01*
X98904637Y-117195241D01*
X98704759Y-116995363D01*
X98469727Y-116838320D01*
X98208574Y-116730147D01*
X97931335Y-116675000D01*
X97648665Y-116675000D01*
X97371426Y-116730147D01*
X97110273Y-116838320D01*
X96875241Y-116995363D01*
X96675363Y-117195241D01*
X96520000Y-117427759D01*
X96364637Y-117195241D01*
X96164759Y-116995363D01*
X95929727Y-116838320D01*
X95668574Y-116730147D01*
X95391335Y-116675000D01*
X95108665Y-116675000D01*
X94831426Y-116730147D01*
X94570273Y-116838320D01*
X94335241Y-116995363D01*
X94135363Y-117195241D01*
X93980000Y-117427759D01*
X93824637Y-117195241D01*
X93624759Y-116995363D01*
X93389727Y-116838320D01*
X93128574Y-116730147D01*
X92851335Y-116675000D01*
X92568665Y-116675000D01*
X92291426Y-116730147D01*
X92030273Y-116838320D01*
X91795241Y-116995363D01*
X91595363Y-117195241D01*
X91440000Y-117427759D01*
X91284637Y-117195241D01*
X91084759Y-116995363D01*
X90849727Y-116838320D01*
X90588574Y-116730147D01*
X90311335Y-116675000D01*
X90028665Y-116675000D01*
X89751426Y-116730147D01*
X89490273Y-116838320D01*
X89255241Y-116995363D01*
X89055363Y-117195241D01*
X88898320Y-117430273D01*
X88790147Y-117691426D01*
X88735000Y-117968665D01*
X88735000Y-118251335D01*
X88790147Y-118528574D01*
X88898320Y-118789727D01*
X88955305Y-118875011D01*
X86116667Y-118875011D01*
X86166885Y-118781059D01*
X86233215Y-118562399D01*
X86250000Y-118391978D01*
X86250000Y-117828021D01*
X86233215Y-117657600D01*
X86166885Y-117438940D01*
X86059171Y-117237421D01*
X85914212Y-117060788D01*
X85737578Y-116915829D01*
X85536059Y-116808115D01*
X85317399Y-116741785D01*
X85090000Y-116719388D01*
X84862600Y-116741785D01*
X84643940Y-116808115D01*
X84539548Y-116863913D01*
X84525546Y-116817753D01*
X84474326Y-116721928D01*
X84454974Y-116685723D01*
X84383799Y-116598997D01*
X84360001Y-116569999D01*
X84331003Y-116546201D01*
X83354999Y-115570198D01*
X83354999Y-111958862D01*
X83372257Y-111966011D01*
X83668816Y-112025000D01*
X83971184Y-112025000D01*
X84267743Y-111966011D01*
X84376241Y-111921070D01*
X84410027Y-111984279D01*
X84435906Y-112015812D01*
X84505000Y-112100004D01*
X84534003Y-112123806D01*
X85131207Y-112721011D01*
X85155006Y-112750010D01*
X85270731Y-112844983D01*
X85402760Y-112915555D01*
X85546021Y-112959012D01*
X85657674Y-112970009D01*
X85657683Y-112970009D01*
X85695006Y-112973685D01*
X85732329Y-112970009D01*
X89187384Y-112970009D01*
X89388392Y-113171017D01*
X89412195Y-113200021D01*
X89527920Y-113294994D01*
X89659949Y-113365566D01*
X89803210Y-113409023D01*
X89914863Y-113420020D01*
X89914871Y-113420020D01*
X89952196Y-113423696D01*
X89989521Y-113420020D01*
X107012658Y-113420020D01*
X107049980Y-113423696D01*
X107087302Y-113420020D01*
X107087313Y-113420020D01*
X107198966Y-113409023D01*
X107342227Y-113365566D01*
X107474256Y-113294994D01*
X107589981Y-113200021D01*
X107613784Y-113171017D01*
X108811070Y-111973731D01*
X109068816Y-112025000D01*
X109371184Y-112025000D01*
X109667743Y-111966011D01*
X109947095Y-111850299D01*
X110198505Y-111682312D01*
X110264944Y-111615873D01*
X110270498Y-111634180D01*
X110329463Y-111744494D01*
X110408815Y-111841185D01*
X110505506Y-111920537D01*
X110615820Y-111979502D01*
X110735518Y-112015812D01*
X110860000Y-112028072D01*
X112660000Y-112028072D01*
X112784482Y-112015812D01*
X112904180Y-111979502D01*
X113014494Y-111920537D01*
X113111185Y-111841185D01*
X113190537Y-111744494D01*
X113249502Y-111634180D01*
X113255056Y-111615873D01*
X113321495Y-111682312D01*
X113572905Y-111850299D01*
X113852257Y-111966011D01*
X114148816Y-112025000D01*
X114451184Y-112025000D01*
X114747743Y-111966011D01*
X115027095Y-111850299D01*
X115278505Y-111682312D01*
X115344944Y-111615873D01*
X115350498Y-111634180D01*
G04 #@! TA.AperFunction,Conductor*
D27*
G36*
X115350498Y-111634180D02*
G01*
X115409463Y-111744494D01*
X115488815Y-111841185D01*
X115585506Y-111920537D01*
X115695820Y-111979502D01*
X115815518Y-112015812D01*
X115940000Y-112028072D01*
X117682128Y-112028072D01*
X111928072Y-117782129D01*
X111928072Y-117310000D01*
X111915812Y-117185518D01*
X111879502Y-117065820D01*
X111820537Y-116955506D01*
X111741185Y-116858815D01*
X111644494Y-116779463D01*
X111534180Y-116720498D01*
X111414482Y-116684188D01*
X111290000Y-116671928D01*
X109690000Y-116671928D01*
X109565518Y-116684188D01*
X109445820Y-116720498D01*
X109335506Y-116779463D01*
X109238815Y-116858815D01*
X109159463Y-116955506D01*
X109100498Y-117065820D01*
X109064188Y-117185518D01*
X109063357Y-117193961D01*
X108864759Y-116995363D01*
X108629727Y-116838320D01*
X108368574Y-116730147D01*
X108091335Y-116675000D01*
X107808665Y-116675000D01*
X107531426Y-116730147D01*
X107270273Y-116838320D01*
X107035241Y-116995363D01*
X106835363Y-117195241D01*
X106680000Y-117427759D01*
X106524637Y-117195241D01*
X106324759Y-116995363D01*
X106089727Y-116838320D01*
X105828574Y-116730147D01*
X105551335Y-116675000D01*
X105268665Y-116675000D01*
X104991426Y-116730147D01*
X104730273Y-116838320D01*
X104495241Y-116995363D01*
X104295363Y-117195241D01*
X104140000Y-117427759D01*
X103984637Y-117195241D01*
X103784759Y-116995363D01*
X103549727Y-116838320D01*
X103288574Y-116730147D01*
X103011335Y-116675000D01*
X102728665Y-116675000D01*
X102451426Y-116730147D01*
X102190273Y-116838320D01*
X101955241Y-116995363D01*
X101755363Y-117195241D01*
X101600000Y-117427759D01*
X101444637Y-117195241D01*
X101244759Y-116995363D01*
X101009727Y-116838320D01*
X100748574Y-116730147D01*
X100471335Y-116675000D01*
X100188665Y-116675000D01*
X99911426Y-116730147D01*
X99650273Y-116838320D01*
X99415241Y-116995363D01*
X99215363Y-117195241D01*
X99060000Y-117427759D01*
X98904637Y-117195241D01*
X98704759Y-116995363D01*
X98469727Y-116838320D01*
X98208574Y-116730147D01*
X97931335Y-116675000D01*
X97648665Y-116675000D01*
X97371426Y-116730147D01*
X97110273Y-116838320D01*
X96875241Y-116995363D01*
X96675363Y-117195241D01*
X96520000Y-117427759D01*
X96364637Y-117195241D01*
X96164759Y-116995363D01*
X95929727Y-116838320D01*
X95668574Y-116730147D01*
X95391335Y-116675000D01*
X95108665Y-116675000D01*
X94831426Y-116730147D01*
X94570273Y-116838320D01*
X94335241Y-116995363D01*
X94135363Y-117195241D01*
X93980000Y-117427759D01*
X93824637Y-117195241D01*
X93624759Y-116995363D01*
X93389727Y-116838320D01*
X93128574Y-116730147D01*
X92851335Y-116675000D01*
X92568665Y-116675000D01*
X92291426Y-116730147D01*
X92030273Y-116838320D01*
X91795241Y-116995363D01*
X91595363Y-117195241D01*
X91440000Y-117427759D01*
X91284637Y-117195241D01*
X91084759Y-116995363D01*
X90849727Y-116838320D01*
X90588574Y-116730147D01*
X90311335Y-116675000D01*
X90028665Y-116675000D01*
X89751426Y-116730147D01*
X89490273Y-116838320D01*
X89255241Y-116995363D01*
X89055363Y-117195241D01*
X88898320Y-117430273D01*
X88790147Y-117691426D01*
X88735000Y-117968665D01*
X88735000Y-118251335D01*
X88790147Y-118528574D01*
X88898320Y-118789727D01*
X88955305Y-118875011D01*
X86116667Y-118875011D01*
X86166885Y-118781059D01*
X86233215Y-118562399D01*
X86250000Y-118391978D01*
X86250000Y-117828021D01*
X86233215Y-117657600D01*
X86166885Y-117438940D01*
X86059171Y-117237421D01*
X85914212Y-117060788D01*
X85737578Y-116915829D01*
X85536059Y-116808115D01*
X85317399Y-116741785D01*
X85090000Y-116719388D01*
X84862600Y-116741785D01*
X84643940Y-116808115D01*
X84539548Y-116863913D01*
X84525546Y-116817753D01*
X84474326Y-116721928D01*
X84454974Y-116685723D01*
X84383799Y-116598997D01*
X84360001Y-116569999D01*
X84331003Y-116546201D01*
X83354999Y-115570198D01*
X83354999Y-111958862D01*
X83372257Y-111966011D01*
X83668816Y-112025000D01*
X83971184Y-112025000D01*
X84267743Y-111966011D01*
X84376241Y-111921070D01*
X84410027Y-111984279D01*
X84435906Y-112015812D01*
X84505000Y-112100004D01*
X84534003Y-112123806D01*
X85131207Y-112721011D01*
X85155006Y-112750010D01*
X85270731Y-112844983D01*
X85402760Y-112915555D01*
X85546021Y-112959012D01*
X85657674Y-112970009D01*
X85657683Y-112970009D01*
X85695006Y-112973685D01*
X85732329Y-112970009D01*
X89187384Y-112970009D01*
X89388392Y-113171017D01*
X89412195Y-113200021D01*
X89527920Y-113294994D01*
X89659949Y-113365566D01*
X89803210Y-113409023D01*
X89914863Y-113420020D01*
X89914871Y-113420020D01*
X89952196Y-113423696D01*
X89989521Y-113420020D01*
X107012658Y-113420020D01*
X107049980Y-113423696D01*
X107087302Y-113420020D01*
X107087313Y-113420020D01*
X107198966Y-113409023D01*
X107342227Y-113365566D01*
X107474256Y-113294994D01*
X107589981Y-113200021D01*
X107613784Y-113171017D01*
X108811070Y-111973731D01*
X109068816Y-112025000D01*
X109371184Y-112025000D01*
X109667743Y-111966011D01*
X109947095Y-111850299D01*
X110198505Y-111682312D01*
X110264944Y-111615873D01*
X110270498Y-111634180D01*
X110329463Y-111744494D01*
X110408815Y-111841185D01*
X110505506Y-111920537D01*
X110615820Y-111979502D01*
X110735518Y-112015812D01*
X110860000Y-112028072D01*
X112660000Y-112028072D01*
X112784482Y-112015812D01*
X112904180Y-111979502D01*
X113014494Y-111920537D01*
X113111185Y-111841185D01*
X113190537Y-111744494D01*
X113249502Y-111634180D01*
X113255056Y-111615873D01*
X113321495Y-111682312D01*
X113572905Y-111850299D01*
X113852257Y-111966011D01*
X114148816Y-112025000D01*
X114451184Y-112025000D01*
X114747743Y-111966011D01*
X115027095Y-111850299D01*
X115278505Y-111682312D01*
X115344944Y-111615873D01*
X115350498Y-111634180D01*
G37*
G04 #@! TD.AperFunction*
D26*
X81834999Y-115847677D02*
X81831323Y-115884999D01*
X81834999Y-115922321D01*
X81834999Y-115922331D01*
X81845996Y-116033984D01*
X81884305Y-116160273D01*
X81889453Y-116177245D01*
X81960025Y-116309275D01*
X81965030Y-116315373D01*
X82054998Y-116425000D01*
X82084002Y-116448803D01*
X82422998Y-116787800D01*
X82422998Y-116883748D01*
X82264250Y-116725000D01*
X82025000Y-116721928D01*
X81900518Y-116734188D01*
X81780820Y-116770498D01*
X81670506Y-116829463D01*
X81573815Y-116908815D01*
X81494463Y-117005506D01*
X81435498Y-117115820D01*
X81399188Y-117235518D01*
X81386928Y-117360000D01*
X81390000Y-117824250D01*
X81548750Y-117983000D01*
X82423000Y-117983000D01*
X82423000Y-117963000D01*
X82660000Y-117963000D01*
X82660000Y-118257000D01*
X82423000Y-118257000D01*
X82423000Y-118237000D01*
X81548750Y-118237000D01*
X81402070Y-118383680D01*
X80770000Y-117751611D01*
X80770000Y-112028072D01*
X81834999Y-112028072D01*
X81834999Y-115847677D01*
G04 #@! TA.AperFunction,Conductor*
D27*
G36*
X81834999Y-115847677D02*
G01*
X81831323Y-115884999D01*
X81834999Y-115922321D01*
X81834999Y-115922331D01*
X81845996Y-116033984D01*
X81884305Y-116160273D01*
X81889453Y-116177245D01*
X81960025Y-116309275D01*
X81965030Y-116315373D01*
X82054998Y-116425000D01*
X82084002Y-116448803D01*
X82422998Y-116787800D01*
X82422998Y-116883748D01*
X82264250Y-116725000D01*
X82025000Y-116721928D01*
X81900518Y-116734188D01*
X81780820Y-116770498D01*
X81670506Y-116829463D01*
X81573815Y-116908815D01*
X81494463Y-117005506D01*
X81435498Y-117115820D01*
X81399188Y-117235518D01*
X81386928Y-117360000D01*
X81390000Y-117824250D01*
X81548750Y-117983000D01*
X82423000Y-117983000D01*
X82423000Y-117963000D01*
X82660000Y-117963000D01*
X82660000Y-118257000D01*
X82423000Y-118257000D01*
X82423000Y-118237000D01*
X81548750Y-118237000D01*
X81402070Y-118383680D01*
X80770000Y-117751611D01*
X80770000Y-112028072D01*
X81834999Y-112028072D01*
X81834999Y-115847677D01*
G37*
G04 #@! TD.AperFunction*
D26*
X93561426Y-104249853D02*
X93838665Y-104305000D01*
X93973544Y-104305000D01*
X94000774Y-104441898D01*
X94078795Y-104630256D01*
X94192063Y-104799774D01*
X94336226Y-104943937D01*
X94505744Y-105057205D01*
X94694102Y-105135226D01*
X94894061Y-105175000D01*
X94956198Y-105175000D01*
X95390212Y-105609014D01*
X95414010Y-105638012D01*
X95443008Y-105661810D01*
X95529734Y-105732985D01*
X95625823Y-105784346D01*
X95661764Y-105803557D01*
X95805025Y-105847014D01*
X95916678Y-105858011D01*
X95916687Y-105858011D01*
X95954010Y-105861687D01*
X95991333Y-105858011D01*
X117920668Y-105858011D01*
X117817701Y-105913049D01*
X117701976Y-106008022D01*
X117678178Y-106037020D01*
X114708930Y-109006269D01*
X114451184Y-108955000D01*
X114148816Y-108955000D01*
X113852257Y-109013989D01*
X113572905Y-109129701D01*
X113321495Y-109297688D01*
X113255056Y-109364127D01*
X113249502Y-109345820D01*
X113190537Y-109235506D01*
X113111185Y-109138815D01*
X113014494Y-109059463D01*
X112904180Y-109000498D01*
X112784482Y-108964188D01*
X112660000Y-108951928D01*
X110860000Y-108951928D01*
X110735518Y-108964188D01*
X110615820Y-109000498D01*
X110505506Y-109059463D01*
X110408815Y-109138815D01*
X110329463Y-109235506D01*
X110270498Y-109345820D01*
X110264944Y-109364127D01*
X110198505Y-109297688D01*
X109947095Y-109129701D01*
X109667743Y-109013989D01*
X109371184Y-108955000D01*
X109068816Y-108955000D01*
X108772257Y-109013989D01*
X108492905Y-109129701D01*
X108241495Y-109297688D01*
X108175056Y-109364127D01*
X108169502Y-109345820D01*
X108110537Y-109235506D01*
X108031185Y-109138815D01*
X107934494Y-109059463D01*
X107824180Y-109000498D01*
X107704482Y-108964188D01*
X107580000Y-108951928D01*
X105780000Y-108951928D01*
X105655518Y-108964188D01*
X105535820Y-109000498D01*
X105425506Y-109059463D01*
X105328815Y-109138815D01*
X105249463Y-109235506D01*
X105190498Y-109345820D01*
X105184944Y-109364127D01*
X105118505Y-109297688D01*
X104867095Y-109129701D01*
X104587743Y-109013989D01*
X104291184Y-108955000D01*
X103988816Y-108955000D01*
X103692257Y-109013989D01*
X103412905Y-109129701D01*
X103161495Y-109297688D01*
X103095056Y-109364127D01*
X103089502Y-109345820D01*
X103030537Y-109235506D01*
X102951185Y-109138815D01*
X102854494Y-109059463D01*
X102744180Y-109000498D01*
X102624482Y-108964188D01*
X102500000Y-108951928D01*
X100700000Y-108951928D01*
X100575518Y-108964188D01*
X100455820Y-109000498D01*
X100345506Y-109059463D01*
X100248815Y-109138815D01*
X100169463Y-109235506D01*
X100110498Y-109345820D01*
X100104944Y-109364127D01*
X100038505Y-109297688D01*
X99787095Y-109129701D01*
X99507743Y-109013989D01*
X99211184Y-108955000D01*
X98908816Y-108955000D01*
X98612257Y-109013989D01*
X98332905Y-109129701D01*
X98081495Y-109297688D01*
X98015056Y-109364127D01*
X98009502Y-109345820D01*
X97950537Y-109235506D01*
X97871185Y-109138815D01*
X97774494Y-109059463D01*
X97664180Y-109000498D01*
X97544482Y-108964188D01*
X97420000Y-108951928D01*
X95620000Y-108951928D01*
X95495518Y-108964188D01*
X95375820Y-109000498D01*
X95265506Y-109059463D01*
X95168815Y-109138815D01*
X95089463Y-109235506D01*
X95030498Y-109345820D01*
X95024944Y-109364127D01*
X94958505Y-109297688D01*
X94707095Y-109129701D01*
X94427743Y-109013989D01*
X94131184Y-108955000D01*
X93828816Y-108955000D01*
X93571071Y-109006268D01*
X92200000Y-107635199D01*
X92200000Y-107076013D01*
X92219744Y-107089205D01*
X92408102Y-107167226D01*
X92608061Y-107207000D01*
X92811939Y-107207000D01*
X93011898Y-107167226D01*
X93200256Y-107089205D01*
X93369774Y-106975937D01*
X93513937Y-106831774D01*
X93627205Y-106662256D01*
X93705226Y-106473898D01*
X93745000Y-106273939D01*
X93745000Y-106070061D01*
X93705226Y-105870102D01*
X93627205Y-105681744D01*
X93513937Y-105512226D01*
X93470000Y-105468289D01*
X93470000Y-104211983D01*
X93561426Y-104249853D01*
G04 #@! TA.AperFunction,Conductor*
D27*
G36*
X93561426Y-104249853D02*
G01*
X93838665Y-104305000D01*
X93973544Y-104305000D01*
X94000774Y-104441898D01*
X94078795Y-104630256D01*
X94192063Y-104799774D01*
X94336226Y-104943937D01*
X94505744Y-105057205D01*
X94694102Y-105135226D01*
X94894061Y-105175000D01*
X94956198Y-105175000D01*
X95390212Y-105609014D01*
X95414010Y-105638012D01*
X95443008Y-105661810D01*
X95529734Y-105732985D01*
X95625823Y-105784346D01*
X95661764Y-105803557D01*
X95805025Y-105847014D01*
X95916678Y-105858011D01*
X95916687Y-105858011D01*
X95954010Y-105861687D01*
X95991333Y-105858011D01*
X117920668Y-105858011D01*
X117817701Y-105913049D01*
X117701976Y-106008022D01*
X117678178Y-106037020D01*
X114708930Y-109006269D01*
X114451184Y-108955000D01*
X114148816Y-108955000D01*
X113852257Y-109013989D01*
X113572905Y-109129701D01*
X113321495Y-109297688D01*
X113255056Y-109364127D01*
X113249502Y-109345820D01*
X113190537Y-109235506D01*
X113111185Y-109138815D01*
X113014494Y-109059463D01*
X112904180Y-109000498D01*
X112784482Y-108964188D01*
X112660000Y-108951928D01*
X110860000Y-108951928D01*
X110735518Y-108964188D01*
X110615820Y-109000498D01*
X110505506Y-109059463D01*
X110408815Y-109138815D01*
X110329463Y-109235506D01*
X110270498Y-109345820D01*
X110264944Y-109364127D01*
X110198505Y-109297688D01*
X109947095Y-109129701D01*
X109667743Y-109013989D01*
X109371184Y-108955000D01*
X109068816Y-108955000D01*
X108772257Y-109013989D01*
X108492905Y-109129701D01*
X108241495Y-109297688D01*
X108175056Y-109364127D01*
X108169502Y-109345820D01*
X108110537Y-109235506D01*
X108031185Y-109138815D01*
X107934494Y-109059463D01*
X107824180Y-109000498D01*
X107704482Y-108964188D01*
X107580000Y-108951928D01*
X105780000Y-108951928D01*
X105655518Y-108964188D01*
X105535820Y-109000498D01*
X105425506Y-109059463D01*
X105328815Y-109138815D01*
X105249463Y-109235506D01*
X105190498Y-109345820D01*
X105184944Y-109364127D01*
X105118505Y-109297688D01*
X104867095Y-109129701D01*
X104587743Y-109013989D01*
X104291184Y-108955000D01*
X103988816Y-108955000D01*
X103692257Y-109013989D01*
X103412905Y-109129701D01*
X103161495Y-109297688D01*
X103095056Y-109364127D01*
X103089502Y-109345820D01*
X103030537Y-109235506D01*
X102951185Y-109138815D01*
X102854494Y-109059463D01*
X102744180Y-109000498D01*
X102624482Y-108964188D01*
X102500000Y-108951928D01*
X100700000Y-108951928D01*
X100575518Y-108964188D01*
X100455820Y-109000498D01*
X100345506Y-109059463D01*
X100248815Y-109138815D01*
X100169463Y-109235506D01*
X100110498Y-109345820D01*
X100104944Y-109364127D01*
X100038505Y-109297688D01*
X99787095Y-109129701D01*
X99507743Y-109013989D01*
X99211184Y-108955000D01*
X98908816Y-108955000D01*
X98612257Y-109013989D01*
X98332905Y-109129701D01*
X98081495Y-109297688D01*
X98015056Y-109364127D01*
X98009502Y-109345820D01*
X97950537Y-109235506D01*
X97871185Y-109138815D01*
X97774494Y-109059463D01*
X97664180Y-109000498D01*
X97544482Y-108964188D01*
X97420000Y-108951928D01*
X95620000Y-108951928D01*
X95495518Y-108964188D01*
X95375820Y-109000498D01*
X95265506Y-109059463D01*
X95168815Y-109138815D01*
X95089463Y-109235506D01*
X95030498Y-109345820D01*
X95024944Y-109364127D01*
X94958505Y-109297688D01*
X94707095Y-109129701D01*
X94427743Y-109013989D01*
X94131184Y-108955000D01*
X93828816Y-108955000D01*
X93571071Y-109006268D01*
X92200000Y-107635199D01*
X92200000Y-107076013D01*
X92219744Y-107089205D01*
X92408102Y-107167226D01*
X92608061Y-107207000D01*
X92811939Y-107207000D01*
X93011898Y-107167226D01*
X93200256Y-107089205D01*
X93369774Y-106975937D01*
X93513937Y-106831774D01*
X93627205Y-106662256D01*
X93705226Y-106473898D01*
X93745000Y-106273939D01*
X93745000Y-106070061D01*
X93705226Y-105870102D01*
X93627205Y-105681744D01*
X93513937Y-105512226D01*
X93470000Y-105468289D01*
X93470000Y-104211983D01*
X93561426Y-104249853D01*
G37*
G04 #@! TD.AperFunction*
D26*
X118108320Y-94570273D02*
X118000147Y-94831426D01*
X117945000Y-95108665D01*
X117945000Y-95391335D01*
X118000147Y-95668574D01*
X118108320Y-95929727D01*
X118265363Y-96164759D01*
X118465241Y-96364637D01*
X118700273Y-96521680D01*
X118961426Y-96629853D01*
X119238665Y-96685000D01*
X119521335Y-96685000D01*
X119798574Y-96629853D01*
X120059727Y-96521680D01*
X120294759Y-96364637D01*
X120494637Y-96164759D01*
X120651680Y-95929727D01*
X120759853Y-95668574D01*
X120815000Y-95391335D01*
X120815000Y-95108665D01*
X120778688Y-94926114D01*
X120819803Y-94884999D01*
X121799491Y-94884999D01*
X121755000Y-95108665D01*
X121755000Y-95391335D01*
X121791312Y-95573886D01*
X120647003Y-96718196D01*
X120617999Y-96741999D01*
X120575190Y-96794163D01*
X120523026Y-96857724D01*
X120511646Y-96879015D01*
X120452454Y-96989754D01*
X120434131Y-97050158D01*
X120354063Y-97130226D01*
X120240795Y-97299744D01*
X120162774Y-97488102D01*
X120123000Y-97688061D01*
X120123000Y-97891939D01*
X120162774Y-98091898D01*
X120240795Y-98280256D01*
X120354063Y-98449774D01*
X120498226Y-98593937D01*
X120667744Y-98707205D01*
X120856102Y-98785226D01*
X121056061Y-98825000D01*
X121259939Y-98825000D01*
X121459898Y-98785226D01*
X121648256Y-98707205D01*
X121817774Y-98593937D01*
X121961937Y-98449774D01*
X122075205Y-98280256D01*
X122153226Y-98091898D01*
X122193000Y-97891939D01*
X122193000Y-97688061D01*
X122153226Y-97488102D01*
X122116167Y-97398634D01*
X122866114Y-96648688D01*
X123048665Y-96685000D01*
X123331335Y-96685000D01*
X123608574Y-96629853D01*
X123869727Y-96521680D01*
X124104759Y-96364637D01*
X124304637Y-96164759D01*
X124460978Y-95930777D01*
X126831203Y-98301003D01*
X126855001Y-98330001D01*
X126883999Y-98353799D01*
X126970725Y-98424974D01*
X127096744Y-98492333D01*
X127102755Y-98495546D01*
X127246016Y-98539003D01*
X127357669Y-98550000D01*
X127357678Y-98550000D01*
X127395001Y-98553676D01*
X127432324Y-98550000D01*
X128261822Y-98550000D01*
X128386525Y-98736632D01*
X128593368Y-98943475D01*
X128767760Y-99060000D01*
X128593368Y-99176525D01*
X128386525Y-99383368D01*
X128224010Y-99626589D01*
X128112068Y-99896842D01*
X128055000Y-100183740D01*
X128055000Y-100476260D01*
X128112068Y-100763158D01*
X128224010Y-101033411D01*
X128386525Y-101276632D01*
X128593368Y-101483475D01*
X128775534Y-101605195D01*
X128658645Y-101674822D01*
X128442412Y-101869731D01*
X128268359Y-102103080D01*
X128143175Y-102365901D01*
X128098524Y-102513110D01*
X128219845Y-102743000D01*
X129413000Y-102743000D01*
X129413000Y-102723000D01*
X129667000Y-102723000D01*
X129667000Y-102743000D01*
X129687000Y-102743000D01*
X129687000Y-102997000D01*
X129667000Y-102997000D01*
X129667000Y-103017000D01*
X129413000Y-103017000D01*
X129413000Y-102997000D01*
X128219845Y-102997000D01*
X128098524Y-103226890D01*
X128143175Y-103374099D01*
X128268359Y-103636920D01*
X128442412Y-103870269D01*
X128462083Y-103888000D01*
X124201396Y-103888000D01*
X124304637Y-103784759D01*
X124461680Y-103549727D01*
X124569853Y-103288574D01*
X124625000Y-103011335D01*
X124625000Y-102728665D01*
X124569853Y-102451426D01*
X124461680Y-102190273D01*
X124304637Y-101955241D01*
X124104759Y-101755363D01*
X123869727Y-101598320D01*
X123608574Y-101490147D01*
X123331335Y-101435000D01*
X123048665Y-101435000D01*
X122771426Y-101490147D01*
X122510273Y-101598320D01*
X122275241Y-101755363D01*
X122075363Y-101955241D01*
X121918320Y-102190273D01*
X121810147Y-102451426D01*
X121755000Y-102728665D01*
X121755000Y-103011335D01*
X121810147Y-103288574D01*
X121918320Y-103549727D01*
X122075363Y-103784759D01*
X122178604Y-103888000D01*
X120391396Y-103888000D01*
X120494637Y-103784759D01*
X120651680Y-103549727D01*
X120759853Y-103288574D01*
X120815000Y-103011335D01*
X120815000Y-102728665D01*
X120759853Y-102451426D01*
X120651680Y-102190273D01*
X120494637Y-101955241D01*
X120294759Y-101755363D01*
X120140000Y-101651957D01*
X120140000Y-101637322D01*
X120143676Y-101599999D01*
X120140000Y-101562676D01*
X120140000Y-101562667D01*
X120129003Y-101451014D01*
X120085546Y-101307753D01*
X120014974Y-101175724D01*
X119977652Y-101130247D01*
X119943799Y-101088996D01*
X119943795Y-101088992D01*
X119920001Y-101059999D01*
X119891008Y-101036205D01*
X118419803Y-99565002D01*
X118396001Y-99535999D01*
X118280276Y-99441026D01*
X118148247Y-99370454D01*
X118004986Y-99326997D01*
X117893333Y-99316000D01*
X117893322Y-99316000D01*
X117856000Y-99312324D01*
X117818678Y-99316000D01*
X101914802Y-99316000D01*
X101619000Y-99020199D01*
X101619000Y-98958061D01*
X101579226Y-98758102D01*
X101501205Y-98569744D01*
X101387937Y-98400226D01*
X101243774Y-98256063D01*
X101074256Y-98142795D01*
X100885898Y-98064774D01*
X100685939Y-98025000D01*
X100482061Y-98025000D01*
X100282102Y-98064774D01*
X100093744Y-98142795D01*
X99924226Y-98256063D01*
X99780063Y-98400226D01*
X99666795Y-98569744D01*
X99588774Y-98758102D01*
X99549000Y-98958061D01*
X99549000Y-99161939D01*
X99588774Y-99361898D01*
X99666795Y-99550256D01*
X99780063Y-99719774D01*
X99924226Y-99863937D01*
X100093744Y-99977205D01*
X100282102Y-100055226D01*
X100482061Y-100095000D01*
X100544199Y-100095000D01*
X101036200Y-100587002D01*
X101059999Y-100616001D01*
X101088997Y-100639799D01*
X101175723Y-100710974D01*
X101256733Y-100754275D01*
X101307753Y-100781546D01*
X101451014Y-100825003D01*
X101562667Y-100836000D01*
X101562677Y-100836000D01*
X101600000Y-100839676D01*
X101637322Y-100836000D01*
X117541199Y-100836000D01*
X118462901Y-101757703D01*
X118265363Y-101955241D01*
X118108320Y-102190273D01*
X118000147Y-102451426D01*
X117945000Y-102728665D01*
X117945000Y-103011335D01*
X118000147Y-103288574D01*
X118108320Y-103549727D01*
X118265363Y-103784759D01*
X118368604Y-103888000D01*
X115311396Y-103888000D01*
X115414637Y-103784759D01*
X115571680Y-103549727D01*
X115679853Y-103288574D01*
X115735000Y-103011335D01*
X115735000Y-102728665D01*
X115679853Y-102451426D01*
X115571680Y-102190273D01*
X115414637Y-101955241D01*
X115214759Y-101755363D01*
X114979727Y-101598320D01*
X114718574Y-101490147D01*
X114441335Y-101435000D01*
X114158665Y-101435000D01*
X113881426Y-101490147D01*
X113620273Y-101598320D01*
X113385241Y-101755363D01*
X113185363Y-101955241D01*
X113030000Y-102187759D01*
X112874637Y-101955241D01*
X112674759Y-101755363D01*
X112439727Y-101598320D01*
X112178574Y-101490147D01*
X111901335Y-101435000D01*
X111618665Y-101435000D01*
X111341426Y-101490147D01*
X111080273Y-101598320D01*
X110845241Y-101755363D01*
X110645363Y-101955241D01*
X110490000Y-102187759D01*
X110334637Y-101955241D01*
X110134759Y-101755363D01*
X109899727Y-101598320D01*
X109638574Y-101490147D01*
X109361335Y-101435000D01*
X109078665Y-101435000D01*
X108801426Y-101490147D01*
X108540273Y-101598320D01*
X108305241Y-101755363D01*
X108105363Y-101955241D01*
X107950000Y-102187759D01*
X107794637Y-101955241D01*
X107594759Y-101755363D01*
X107359727Y-101598320D01*
X107098574Y-101490147D01*
X106821335Y-101435000D01*
X106538665Y-101435000D01*
X106261426Y-101490147D01*
X106000273Y-101598320D01*
X105765241Y-101755363D01*
X105565363Y-101955241D01*
X105410000Y-102187759D01*
X105254637Y-101955241D01*
X105054759Y-101755363D01*
X104819727Y-101598320D01*
X104558574Y-101490147D01*
X104281335Y-101435000D01*
X103998665Y-101435000D01*
X103721426Y-101490147D01*
X103460273Y-101598320D01*
X103225241Y-101755363D01*
X103025363Y-101955241D01*
X102870000Y-102187759D01*
X102714637Y-101955241D01*
X102514759Y-101755363D01*
X102279727Y-101598320D01*
X102018574Y-101490147D01*
X101741335Y-101435000D01*
X101458665Y-101435000D01*
X101181426Y-101490147D01*
X100920273Y-101598320D01*
X100685241Y-101755363D01*
X100485363Y-101955241D01*
X100328320Y-102190273D01*
X100323933Y-102200865D01*
X100212385Y-102014869D01*
X100023414Y-101806481D01*
X99797420Y-101638963D01*
X99543087Y-101518754D01*
X99409039Y-101478096D01*
X99187000Y-101600085D01*
X99187000Y-102743000D01*
X99207000Y-102743000D01*
X99207000Y-102997000D01*
X99187000Y-102997000D01*
X99187000Y-104139915D01*
X99409039Y-104261904D01*
X99543087Y-104221246D01*
X99797420Y-104101037D01*
X100023414Y-103933519D01*
X100212385Y-103725131D01*
X100323933Y-103539135D01*
X100328320Y-103549727D01*
X100485363Y-103784759D01*
X100685241Y-103984637D01*
X100920273Y-104141680D01*
X101181426Y-104249853D01*
X101458665Y-104305000D01*
X101741335Y-104305000D01*
X101923886Y-104268688D01*
X101993209Y-104338011D01*
X96268813Y-104338011D01*
X96200328Y-104269526D01*
X96378665Y-104305000D01*
X96661335Y-104305000D01*
X96938574Y-104249853D01*
X97199727Y-104141680D01*
X97434759Y-103984637D01*
X97634637Y-103784759D01*
X97791680Y-103549727D01*
X97796067Y-103539135D01*
X97907615Y-103725131D01*
X98096586Y-103933519D01*
X98322580Y-104101037D01*
X98576913Y-104221246D01*
X98710961Y-104261904D01*
X98933000Y-104139915D01*
X98933000Y-102997000D01*
X98913000Y-102997000D01*
X98913000Y-102743000D01*
X98933000Y-102743000D01*
X98933000Y-101600085D01*
X98710961Y-101478096D01*
X98576913Y-101518754D01*
X98322580Y-101638963D01*
X98096586Y-101806481D01*
X97907615Y-102014869D01*
X97796067Y-102200865D01*
X97791680Y-102190273D01*
X97634637Y-101955241D01*
X97434759Y-101755363D01*
X97199727Y-101598320D01*
X96938574Y-101490147D01*
X96661335Y-101435000D01*
X96378665Y-101435000D01*
X96101426Y-101490147D01*
X95840273Y-101598320D01*
X95605241Y-101755363D01*
X95405363Y-101955241D01*
X95250000Y-102187759D01*
X95094637Y-101955241D01*
X94894759Y-101755363D01*
X94670017Y-101605196D01*
X95809193Y-100466020D01*
X96981069Y-100466020D01*
X97018391Y-100469696D01*
X97055714Y-100466020D01*
X97055724Y-100466020D01*
X97167377Y-100455023D01*
X97310638Y-100411566D01*
X97442667Y-100340994D01*
X97558392Y-100246021D01*
X97582195Y-100217017D01*
X100011212Y-97788000D01*
X106604335Y-97788000D01*
X106623501Y-97786112D01*
X106642667Y-97788000D01*
X112484678Y-97788000D01*
X112522000Y-97791676D01*
X112559322Y-97788000D01*
X112559333Y-97788000D01*
X112670986Y-97777003D01*
X112814247Y-97733546D01*
X112946276Y-97662974D01*
X113062001Y-97568001D01*
X113085804Y-97538997D01*
X113936729Y-96688072D01*
X115100000Y-96688072D01*
X115224482Y-96675812D01*
X115344180Y-96639502D01*
X115454494Y-96580537D01*
X115551185Y-96501185D01*
X115630537Y-96404494D01*
X115689502Y-96294180D01*
X115725812Y-96174482D01*
X115738072Y-96050000D01*
X115738072Y-94450000D01*
X115736593Y-94434988D01*
X118198714Y-94434988D01*
X118108320Y-94570273D01*
G04 #@! TA.AperFunction,Conductor*
D27*
G36*
X118108320Y-94570273D02*
G01*
X118000147Y-94831426D01*
X117945000Y-95108665D01*
X117945000Y-95391335D01*
X118000147Y-95668574D01*
X118108320Y-95929727D01*
X118265363Y-96164759D01*
X118465241Y-96364637D01*
X118700273Y-96521680D01*
X118961426Y-96629853D01*
X119238665Y-96685000D01*
X119521335Y-96685000D01*
X119798574Y-96629853D01*
X120059727Y-96521680D01*
X120294759Y-96364637D01*
X120494637Y-96164759D01*
X120651680Y-95929727D01*
X120759853Y-95668574D01*
X120815000Y-95391335D01*
X120815000Y-95108665D01*
X120778688Y-94926114D01*
X120819803Y-94884999D01*
X121799491Y-94884999D01*
X121755000Y-95108665D01*
X121755000Y-95391335D01*
X121791312Y-95573886D01*
X120647003Y-96718196D01*
X120617999Y-96741999D01*
X120575190Y-96794163D01*
X120523026Y-96857724D01*
X120511646Y-96879015D01*
X120452454Y-96989754D01*
X120434131Y-97050158D01*
X120354063Y-97130226D01*
X120240795Y-97299744D01*
X120162774Y-97488102D01*
X120123000Y-97688061D01*
X120123000Y-97891939D01*
X120162774Y-98091898D01*
X120240795Y-98280256D01*
X120354063Y-98449774D01*
X120498226Y-98593937D01*
X120667744Y-98707205D01*
X120856102Y-98785226D01*
X121056061Y-98825000D01*
X121259939Y-98825000D01*
X121459898Y-98785226D01*
X121648256Y-98707205D01*
X121817774Y-98593937D01*
X121961937Y-98449774D01*
X122075205Y-98280256D01*
X122153226Y-98091898D01*
X122193000Y-97891939D01*
X122193000Y-97688061D01*
X122153226Y-97488102D01*
X122116167Y-97398634D01*
X122866114Y-96648688D01*
X123048665Y-96685000D01*
X123331335Y-96685000D01*
X123608574Y-96629853D01*
X123869727Y-96521680D01*
X124104759Y-96364637D01*
X124304637Y-96164759D01*
X124460978Y-95930777D01*
X126831203Y-98301003D01*
X126855001Y-98330001D01*
X126883999Y-98353799D01*
X126970725Y-98424974D01*
X127096744Y-98492333D01*
X127102755Y-98495546D01*
X127246016Y-98539003D01*
X127357669Y-98550000D01*
X127357678Y-98550000D01*
X127395001Y-98553676D01*
X127432324Y-98550000D01*
X128261822Y-98550000D01*
X128386525Y-98736632D01*
X128593368Y-98943475D01*
X128767760Y-99060000D01*
X128593368Y-99176525D01*
X128386525Y-99383368D01*
X128224010Y-99626589D01*
X128112068Y-99896842D01*
X128055000Y-100183740D01*
X128055000Y-100476260D01*
X128112068Y-100763158D01*
X128224010Y-101033411D01*
X128386525Y-101276632D01*
X128593368Y-101483475D01*
X128775534Y-101605195D01*
X128658645Y-101674822D01*
X128442412Y-101869731D01*
X128268359Y-102103080D01*
X128143175Y-102365901D01*
X128098524Y-102513110D01*
X128219845Y-102743000D01*
X129413000Y-102743000D01*
X129413000Y-102723000D01*
X129667000Y-102723000D01*
X129667000Y-102743000D01*
X129687000Y-102743000D01*
X129687000Y-102997000D01*
X129667000Y-102997000D01*
X129667000Y-103017000D01*
X129413000Y-103017000D01*
X129413000Y-102997000D01*
X128219845Y-102997000D01*
X128098524Y-103226890D01*
X128143175Y-103374099D01*
X128268359Y-103636920D01*
X128442412Y-103870269D01*
X128462083Y-103888000D01*
X124201396Y-103888000D01*
X124304637Y-103784759D01*
X124461680Y-103549727D01*
X124569853Y-103288574D01*
X124625000Y-103011335D01*
X124625000Y-102728665D01*
X124569853Y-102451426D01*
X124461680Y-102190273D01*
X124304637Y-101955241D01*
X124104759Y-101755363D01*
X123869727Y-101598320D01*
X123608574Y-101490147D01*
X123331335Y-101435000D01*
X123048665Y-101435000D01*
X122771426Y-101490147D01*
X122510273Y-101598320D01*
X122275241Y-101755363D01*
X122075363Y-101955241D01*
X121918320Y-102190273D01*
X121810147Y-102451426D01*
X121755000Y-102728665D01*
X121755000Y-103011335D01*
X121810147Y-103288574D01*
X121918320Y-103549727D01*
X122075363Y-103784759D01*
X122178604Y-103888000D01*
X120391396Y-103888000D01*
X120494637Y-103784759D01*
X120651680Y-103549727D01*
X120759853Y-103288574D01*
X120815000Y-103011335D01*
X120815000Y-102728665D01*
X120759853Y-102451426D01*
X120651680Y-102190273D01*
X120494637Y-101955241D01*
X120294759Y-101755363D01*
X120140000Y-101651957D01*
X120140000Y-101637322D01*
X120143676Y-101599999D01*
X120140000Y-101562676D01*
X120140000Y-101562667D01*
X120129003Y-101451014D01*
X120085546Y-101307753D01*
X120014974Y-101175724D01*
X119977652Y-101130247D01*
X119943799Y-101088996D01*
X119943795Y-101088992D01*
X119920001Y-101059999D01*
X119891008Y-101036205D01*
X118419803Y-99565002D01*
X118396001Y-99535999D01*
X118280276Y-99441026D01*
X118148247Y-99370454D01*
X118004986Y-99326997D01*
X117893333Y-99316000D01*
X117893322Y-99316000D01*
X117856000Y-99312324D01*
X117818678Y-99316000D01*
X101914802Y-99316000D01*
X101619000Y-99020199D01*
X101619000Y-98958061D01*
X101579226Y-98758102D01*
X101501205Y-98569744D01*
X101387937Y-98400226D01*
X101243774Y-98256063D01*
X101074256Y-98142795D01*
X100885898Y-98064774D01*
X100685939Y-98025000D01*
X100482061Y-98025000D01*
X100282102Y-98064774D01*
X100093744Y-98142795D01*
X99924226Y-98256063D01*
X99780063Y-98400226D01*
X99666795Y-98569744D01*
X99588774Y-98758102D01*
X99549000Y-98958061D01*
X99549000Y-99161939D01*
X99588774Y-99361898D01*
X99666795Y-99550256D01*
X99780063Y-99719774D01*
X99924226Y-99863937D01*
X100093744Y-99977205D01*
X100282102Y-100055226D01*
X100482061Y-100095000D01*
X100544199Y-100095000D01*
X101036200Y-100587002D01*
X101059999Y-100616001D01*
X101088997Y-100639799D01*
X101175723Y-100710974D01*
X101256733Y-100754275D01*
X101307753Y-100781546D01*
X101451014Y-100825003D01*
X101562667Y-100836000D01*
X101562677Y-100836000D01*
X101600000Y-100839676D01*
X101637322Y-100836000D01*
X117541199Y-100836000D01*
X118462901Y-101757703D01*
X118265363Y-101955241D01*
X118108320Y-102190273D01*
X118000147Y-102451426D01*
X117945000Y-102728665D01*
X117945000Y-103011335D01*
X118000147Y-103288574D01*
X118108320Y-103549727D01*
X118265363Y-103784759D01*
X118368604Y-103888000D01*
X115311396Y-103888000D01*
X115414637Y-103784759D01*
X115571680Y-103549727D01*
X115679853Y-103288574D01*
X115735000Y-103011335D01*
X115735000Y-102728665D01*
X115679853Y-102451426D01*
X115571680Y-102190273D01*
X115414637Y-101955241D01*
X115214759Y-101755363D01*
X114979727Y-101598320D01*
X114718574Y-101490147D01*
X114441335Y-101435000D01*
X114158665Y-101435000D01*
X113881426Y-101490147D01*
X113620273Y-101598320D01*
X113385241Y-101755363D01*
X113185363Y-101955241D01*
X113030000Y-102187759D01*
X112874637Y-101955241D01*
X112674759Y-101755363D01*
X112439727Y-101598320D01*
X112178574Y-101490147D01*
X111901335Y-101435000D01*
X111618665Y-101435000D01*
X111341426Y-101490147D01*
X111080273Y-101598320D01*
X110845241Y-101755363D01*
X110645363Y-101955241D01*
X110490000Y-102187759D01*
X110334637Y-101955241D01*
X110134759Y-101755363D01*
X109899727Y-101598320D01*
X109638574Y-101490147D01*
X109361335Y-101435000D01*
X109078665Y-101435000D01*
X108801426Y-101490147D01*
X108540273Y-101598320D01*
X108305241Y-101755363D01*
X108105363Y-101955241D01*
X107950000Y-102187759D01*
X107794637Y-101955241D01*
X107594759Y-101755363D01*
X107359727Y-101598320D01*
X107098574Y-101490147D01*
X106821335Y-101435000D01*
X106538665Y-101435000D01*
X106261426Y-101490147D01*
X106000273Y-101598320D01*
X105765241Y-101755363D01*
X105565363Y-101955241D01*
X105410000Y-102187759D01*
X105254637Y-101955241D01*
X105054759Y-101755363D01*
X104819727Y-101598320D01*
X104558574Y-101490147D01*
X104281335Y-101435000D01*
X103998665Y-101435000D01*
X103721426Y-101490147D01*
X103460273Y-101598320D01*
X103225241Y-101755363D01*
X103025363Y-101955241D01*
X102870000Y-102187759D01*
X102714637Y-101955241D01*
X102514759Y-101755363D01*
X102279727Y-101598320D01*
X102018574Y-101490147D01*
X101741335Y-101435000D01*
X101458665Y-101435000D01*
X101181426Y-101490147D01*
X100920273Y-101598320D01*
X100685241Y-101755363D01*
X100485363Y-101955241D01*
X100328320Y-102190273D01*
X100323933Y-102200865D01*
X100212385Y-102014869D01*
X100023414Y-101806481D01*
X99797420Y-101638963D01*
X99543087Y-101518754D01*
X99409039Y-101478096D01*
X99187000Y-101600085D01*
X99187000Y-102743000D01*
X99207000Y-102743000D01*
X99207000Y-102997000D01*
X99187000Y-102997000D01*
X99187000Y-104139915D01*
X99409039Y-104261904D01*
X99543087Y-104221246D01*
X99797420Y-104101037D01*
X100023414Y-103933519D01*
X100212385Y-103725131D01*
X100323933Y-103539135D01*
X100328320Y-103549727D01*
X100485363Y-103784759D01*
X100685241Y-103984637D01*
X100920273Y-104141680D01*
X101181426Y-104249853D01*
X101458665Y-104305000D01*
X101741335Y-104305000D01*
X101923886Y-104268688D01*
X101993209Y-104338011D01*
X96268813Y-104338011D01*
X96200328Y-104269526D01*
X96378665Y-104305000D01*
X96661335Y-104305000D01*
X96938574Y-104249853D01*
X97199727Y-104141680D01*
X97434759Y-103984637D01*
X97634637Y-103784759D01*
X97791680Y-103549727D01*
X97796067Y-103539135D01*
X97907615Y-103725131D01*
X98096586Y-103933519D01*
X98322580Y-104101037D01*
X98576913Y-104221246D01*
X98710961Y-104261904D01*
X98933000Y-104139915D01*
X98933000Y-102997000D01*
X98913000Y-102997000D01*
X98913000Y-102743000D01*
X98933000Y-102743000D01*
X98933000Y-101600085D01*
X98710961Y-101478096D01*
X98576913Y-101518754D01*
X98322580Y-101638963D01*
X98096586Y-101806481D01*
X97907615Y-102014869D01*
X97796067Y-102200865D01*
X97791680Y-102190273D01*
X97634637Y-101955241D01*
X97434759Y-101755363D01*
X97199727Y-101598320D01*
X96938574Y-101490147D01*
X96661335Y-101435000D01*
X96378665Y-101435000D01*
X96101426Y-101490147D01*
X95840273Y-101598320D01*
X95605241Y-101755363D01*
X95405363Y-101955241D01*
X95250000Y-102187759D01*
X95094637Y-101955241D01*
X94894759Y-101755363D01*
X94670017Y-101605196D01*
X95809193Y-100466020D01*
X96981069Y-100466020D01*
X97018391Y-100469696D01*
X97055714Y-100466020D01*
X97055724Y-100466020D01*
X97167377Y-100455023D01*
X97310638Y-100411566D01*
X97442667Y-100340994D01*
X97558392Y-100246021D01*
X97582195Y-100217017D01*
X100011212Y-97788000D01*
X106604335Y-97788000D01*
X106623501Y-97786112D01*
X106642667Y-97788000D01*
X112484678Y-97788000D01*
X112522000Y-97791676D01*
X112559322Y-97788000D01*
X112559333Y-97788000D01*
X112670986Y-97777003D01*
X112814247Y-97733546D01*
X112946276Y-97662974D01*
X113062001Y-97568001D01*
X113085804Y-97538997D01*
X113936729Y-96688072D01*
X115100000Y-96688072D01*
X115224482Y-96675812D01*
X115344180Y-96639502D01*
X115454494Y-96580537D01*
X115551185Y-96501185D01*
X115630537Y-96404494D01*
X115689502Y-96294180D01*
X115725812Y-96174482D01*
X115738072Y-96050000D01*
X115738072Y-94450000D01*
X115736593Y-94434988D01*
X118198714Y-94434988D01*
X118108320Y-94570273D01*
G37*
G04 #@! TD.AperFunction*
D26*
X104256525Y-89846632D02*
X104463368Y-90053475D01*
X104637760Y-90170000D01*
X104463368Y-90286525D01*
X104256525Y-90493368D01*
X104094010Y-90736589D01*
X103982068Y-91006842D01*
X103925000Y-91293740D01*
X103925000Y-91586260D01*
X103982068Y-91873158D01*
X104013897Y-91950000D01*
X102512320Y-91950000D01*
X102474997Y-91946324D01*
X102437674Y-91950000D01*
X102437665Y-91950000D01*
X102326012Y-91960997D01*
X102182751Y-92004454D01*
X102050722Y-92075026D01*
X101934997Y-92169999D01*
X101911199Y-92198997D01*
X99974796Y-94135400D01*
X99974759Y-94135363D01*
X99739727Y-93978320D01*
X99478574Y-93870147D01*
X99201335Y-93815000D01*
X98918665Y-93815000D01*
X98641426Y-93870147D01*
X98380273Y-93978320D01*
X98145241Y-94135363D01*
X97945363Y-94335241D01*
X97788320Y-94570273D01*
X97783933Y-94580865D01*
X97672385Y-94394869D01*
X97483414Y-94186481D01*
X97257420Y-94018963D01*
X97003087Y-93898754D01*
X96869039Y-93858096D01*
X96647000Y-93980085D01*
X96647000Y-95123000D01*
X96667000Y-95123000D01*
X96667000Y-95377000D01*
X96647000Y-95377000D01*
X96647000Y-96519915D01*
X96869039Y-96641904D01*
X97003087Y-96601246D01*
X97257420Y-96481037D01*
X97483414Y-96313519D01*
X97672385Y-96105131D01*
X97783933Y-95919135D01*
X97788320Y-95929727D01*
X97945363Y-96164759D01*
X98145241Y-96364637D01*
X98380273Y-96521680D01*
X98458935Y-96554263D01*
X96517190Y-98496009D01*
X95091313Y-98496009D01*
X95053990Y-98492333D01*
X95016667Y-98496009D01*
X95016658Y-98496009D01*
X94905005Y-98507006D01*
X94763270Y-98550000D01*
X94761744Y-98550463D01*
X94629714Y-98621035D01*
X94546074Y-98689677D01*
X94513990Y-98716008D01*
X94490192Y-98745006D01*
X91763887Y-101471312D01*
X91581335Y-101435000D01*
X91298665Y-101435000D01*
X91021426Y-101490147D01*
X90760273Y-101598320D01*
X90525241Y-101755363D01*
X90325363Y-101955241D01*
X90170000Y-102187759D01*
X90014637Y-101955241D01*
X89814759Y-101755363D01*
X89579727Y-101598320D01*
X89321459Y-101491342D01*
X93221004Y-97591798D01*
X93250001Y-97568001D01*
X93307652Y-97497753D01*
X93344974Y-97452277D01*
X93415546Y-97320247D01*
X93421765Y-97299744D01*
X93459003Y-97176986D01*
X93470000Y-97065333D01*
X93470000Y-97065323D01*
X93473676Y-97028000D01*
X93470000Y-96990677D01*
X93470000Y-96591983D01*
X93561426Y-96629853D01*
X93838665Y-96685000D01*
X94121335Y-96685000D01*
X94398574Y-96629853D01*
X94659727Y-96521680D01*
X94894759Y-96364637D01*
X95094637Y-96164759D01*
X95251680Y-95929727D01*
X95256067Y-95919135D01*
X95367615Y-96105131D01*
X95556586Y-96313519D01*
X95782580Y-96481037D01*
X96036913Y-96601246D01*
X96170961Y-96641904D01*
X96393000Y-96519915D01*
X96393000Y-95377000D01*
X96373000Y-95377000D01*
X96373000Y-95123000D01*
X96393000Y-95123000D01*
X96393000Y-93980085D01*
X96348929Y-93955872D01*
X98104802Y-92200000D01*
X99751177Y-92200000D01*
X99788499Y-92203676D01*
X99825821Y-92200000D01*
X99825832Y-92200000D01*
X99937485Y-92189003D01*
X100080746Y-92145546D01*
X100212775Y-92074974D01*
X100328500Y-91980001D01*
X100352303Y-91950997D01*
X102643302Y-89660000D01*
X104131822Y-89660000D01*
X104256525Y-89846632D01*
G04 #@! TA.AperFunction,Conductor*
D27*
G36*
X104256525Y-89846632D02*
G01*
X104463368Y-90053475D01*
X104637760Y-90170000D01*
X104463368Y-90286525D01*
X104256525Y-90493368D01*
X104094010Y-90736589D01*
X103982068Y-91006842D01*
X103925000Y-91293740D01*
X103925000Y-91586260D01*
X103982068Y-91873158D01*
X104013897Y-91950000D01*
X102512320Y-91950000D01*
X102474997Y-91946324D01*
X102437674Y-91950000D01*
X102437665Y-91950000D01*
X102326012Y-91960997D01*
X102182751Y-92004454D01*
X102050722Y-92075026D01*
X101934997Y-92169999D01*
X101911199Y-92198997D01*
X99974796Y-94135400D01*
X99974759Y-94135363D01*
X99739727Y-93978320D01*
X99478574Y-93870147D01*
X99201335Y-93815000D01*
X98918665Y-93815000D01*
X98641426Y-93870147D01*
X98380273Y-93978320D01*
X98145241Y-94135363D01*
X97945363Y-94335241D01*
X97788320Y-94570273D01*
X97783933Y-94580865D01*
X97672385Y-94394869D01*
X97483414Y-94186481D01*
X97257420Y-94018963D01*
X97003087Y-93898754D01*
X96869039Y-93858096D01*
X96647000Y-93980085D01*
X96647000Y-95123000D01*
X96667000Y-95123000D01*
X96667000Y-95377000D01*
X96647000Y-95377000D01*
X96647000Y-96519915D01*
X96869039Y-96641904D01*
X97003087Y-96601246D01*
X97257420Y-96481037D01*
X97483414Y-96313519D01*
X97672385Y-96105131D01*
X97783933Y-95919135D01*
X97788320Y-95929727D01*
X97945363Y-96164759D01*
X98145241Y-96364637D01*
X98380273Y-96521680D01*
X98458935Y-96554263D01*
X96517190Y-98496009D01*
X95091313Y-98496009D01*
X95053990Y-98492333D01*
X95016667Y-98496009D01*
X95016658Y-98496009D01*
X94905005Y-98507006D01*
X94763270Y-98550000D01*
X94761744Y-98550463D01*
X94629714Y-98621035D01*
X94546074Y-98689677D01*
X94513990Y-98716008D01*
X94490192Y-98745006D01*
X91763887Y-101471312D01*
X91581335Y-101435000D01*
X91298665Y-101435000D01*
X91021426Y-101490147D01*
X90760273Y-101598320D01*
X90525241Y-101755363D01*
X90325363Y-101955241D01*
X90170000Y-102187759D01*
X90014637Y-101955241D01*
X89814759Y-101755363D01*
X89579727Y-101598320D01*
X89321459Y-101491342D01*
X93221004Y-97591798D01*
X93250001Y-97568001D01*
X93307652Y-97497753D01*
X93344974Y-97452277D01*
X93415546Y-97320247D01*
X93421765Y-97299744D01*
X93459003Y-97176986D01*
X93470000Y-97065333D01*
X93470000Y-97065323D01*
X93473676Y-97028000D01*
X93470000Y-96990677D01*
X93470000Y-96591983D01*
X93561426Y-96629853D01*
X93838665Y-96685000D01*
X94121335Y-96685000D01*
X94398574Y-96629853D01*
X94659727Y-96521680D01*
X94894759Y-96364637D01*
X95094637Y-96164759D01*
X95251680Y-95929727D01*
X95256067Y-95919135D01*
X95367615Y-96105131D01*
X95556586Y-96313519D01*
X95782580Y-96481037D01*
X96036913Y-96601246D01*
X96170961Y-96641904D01*
X96393000Y-96519915D01*
X96393000Y-95377000D01*
X96373000Y-95377000D01*
X96373000Y-95123000D01*
X96393000Y-95123000D01*
X96393000Y-93980085D01*
X96348929Y-93955872D01*
X98104802Y-92200000D01*
X99751177Y-92200000D01*
X99788499Y-92203676D01*
X99825821Y-92200000D01*
X99825832Y-92200000D01*
X99937485Y-92189003D01*
X100080746Y-92145546D01*
X100212775Y-92074974D01*
X100328500Y-91980001D01*
X100352303Y-91950997D01*
X102643302Y-89660000D01*
X104131822Y-89660000D01*
X104256525Y-89846632D01*
G37*
G04 #@! TD.AperFunction*
D26*
X90325363Y-96164759D02*
X90525241Y-96364637D01*
X90760273Y-96521680D01*
X91021426Y-96629853D01*
X91298665Y-96685000D01*
X91581335Y-96685000D01*
X91858574Y-96629853D01*
X91950000Y-96591983D01*
X91950000Y-96713198D01*
X87118998Y-101544201D01*
X87090000Y-101567999D01*
X87066202Y-101596997D01*
X87066201Y-101596998D01*
X87056124Y-101609276D01*
X87039727Y-101598320D01*
X86778574Y-101490147D01*
X86501335Y-101435000D01*
X86218665Y-101435000D01*
X85941426Y-101490147D01*
X85680273Y-101598320D01*
X85445241Y-101755363D01*
X85245363Y-101955241D01*
X85090000Y-102187759D01*
X84934637Y-101955241D01*
X84734759Y-101755363D01*
X84499727Y-101598320D01*
X84238574Y-101490147D01*
X83961335Y-101435000D01*
X83678665Y-101435000D01*
X83401426Y-101490147D01*
X83140273Y-101598320D01*
X82905241Y-101755363D01*
X82705363Y-101955241D01*
X82550000Y-102187759D01*
X82394637Y-101955241D01*
X82194759Y-101755363D01*
X81959727Y-101598320D01*
X81698574Y-101490147D01*
X81421335Y-101435000D01*
X81138665Y-101435000D01*
X80861426Y-101490147D01*
X80770000Y-101528017D01*
X80770000Y-96834801D01*
X80956114Y-96648688D01*
X81138665Y-96685000D01*
X81421335Y-96685000D01*
X81698574Y-96629853D01*
X81959727Y-96521680D01*
X82194759Y-96364637D01*
X82394637Y-96164759D01*
X82550000Y-95932241D01*
X82705363Y-96164759D01*
X82905241Y-96364637D01*
X83140273Y-96521680D01*
X83401426Y-96629853D01*
X83678665Y-96685000D01*
X83961335Y-96685000D01*
X84238574Y-96629853D01*
X84499727Y-96521680D01*
X84734759Y-96364637D01*
X84934637Y-96164759D01*
X85090000Y-95932241D01*
X85245363Y-96164759D01*
X85445241Y-96364637D01*
X85680273Y-96521680D01*
X85941426Y-96629853D01*
X86218665Y-96685000D01*
X86501335Y-96685000D01*
X86778574Y-96629853D01*
X87039727Y-96521680D01*
X87274759Y-96364637D01*
X87474637Y-96164759D01*
X87630000Y-95932241D01*
X87785363Y-96164759D01*
X87985241Y-96364637D01*
X88220273Y-96521680D01*
X88481426Y-96629853D01*
X88758665Y-96685000D01*
X89041335Y-96685000D01*
X89318574Y-96629853D01*
X89579727Y-96521680D01*
X89814759Y-96364637D01*
X90014637Y-96164759D01*
X90170000Y-95932241D01*
X90325363Y-96164759D01*
G04 #@! TA.AperFunction,Conductor*
D27*
G36*
X90325363Y-96164759D02*
G01*
X90525241Y-96364637D01*
X90760273Y-96521680D01*
X91021426Y-96629853D01*
X91298665Y-96685000D01*
X91581335Y-96685000D01*
X91858574Y-96629853D01*
X91950000Y-96591983D01*
X91950000Y-96713198D01*
X87118998Y-101544201D01*
X87090000Y-101567999D01*
X87066202Y-101596997D01*
X87066201Y-101596998D01*
X87056124Y-101609276D01*
X87039727Y-101598320D01*
X86778574Y-101490147D01*
X86501335Y-101435000D01*
X86218665Y-101435000D01*
X85941426Y-101490147D01*
X85680273Y-101598320D01*
X85445241Y-101755363D01*
X85245363Y-101955241D01*
X85090000Y-102187759D01*
X84934637Y-101955241D01*
X84734759Y-101755363D01*
X84499727Y-101598320D01*
X84238574Y-101490147D01*
X83961335Y-101435000D01*
X83678665Y-101435000D01*
X83401426Y-101490147D01*
X83140273Y-101598320D01*
X82905241Y-101755363D01*
X82705363Y-101955241D01*
X82550000Y-102187759D01*
X82394637Y-101955241D01*
X82194759Y-101755363D01*
X81959727Y-101598320D01*
X81698574Y-101490147D01*
X81421335Y-101435000D01*
X81138665Y-101435000D01*
X80861426Y-101490147D01*
X80770000Y-101528017D01*
X80770000Y-96834801D01*
X80956114Y-96648688D01*
X81138665Y-96685000D01*
X81421335Y-96685000D01*
X81698574Y-96629853D01*
X81959727Y-96521680D01*
X82194759Y-96364637D01*
X82394637Y-96164759D01*
X82550000Y-95932241D01*
X82705363Y-96164759D01*
X82905241Y-96364637D01*
X83140273Y-96521680D01*
X83401426Y-96629853D01*
X83678665Y-96685000D01*
X83961335Y-96685000D01*
X84238574Y-96629853D01*
X84499727Y-96521680D01*
X84734759Y-96364637D01*
X84934637Y-96164759D01*
X85090000Y-95932241D01*
X85245363Y-96164759D01*
X85445241Y-96364637D01*
X85680273Y-96521680D01*
X85941426Y-96629853D01*
X86218665Y-96685000D01*
X86501335Y-96685000D01*
X86778574Y-96629853D01*
X87039727Y-96521680D01*
X87274759Y-96364637D01*
X87474637Y-96164759D01*
X87630000Y-95932241D01*
X87785363Y-96164759D01*
X87985241Y-96364637D01*
X88220273Y-96521680D01*
X88481426Y-96629853D01*
X88758665Y-96685000D01*
X89041335Y-96685000D01*
X89318574Y-96629853D01*
X89579727Y-96521680D01*
X89814759Y-96364637D01*
X90014637Y-96164759D01*
X90170000Y-95932241D01*
X90325363Y-96164759D01*
G37*
G04 #@! TD.AperFunction*
M02*
