M48
INCH,TZ
T1C0.0157
T2C0.0276
T3C0.0295
T4C0.0315
T5C0.0354
T6C0.0394
T7C0.0433
T8C0.0512
%
G90
G05
T1
X31600Y-47200
X33100Y-42100
X33400Y-33000
X35500Y-38400
X36500Y-41800
X37400Y-41000
X37909Y-39540
X39600Y-39000
X40100Y-41900
X42000Y-32200
X42600Y-44700
X43400Y-42300
X45700Y-41900
X47600Y-36200
X47700Y-38500
X48365Y-41663
X51000Y-42100
X51800Y-33000
X52200Y-41300
X52787Y-37813
X53200Y-37400
X59800Y-33000
T2
X45000Y-46500
X47000Y-46500
T3
X32500Y-46500
X33000Y-46500
X33500Y-46500
T4
X32000Y-37500
X32000Y-40500
X33000Y-37500
X33000Y-40500
X34000Y-37500
X34000Y-40500
X34200Y-33000
X34200Y-36000
X35000Y-37500
X35000Y-40500
X35451Y-35900
X35500Y-46500
X35516Y-33000
X35516Y-34100
X36000Y-37500
X36000Y-40500
X36435Y-35900
X36500Y-33000
X36500Y-34100
X36500Y-46500
X37000Y-37500
X37000Y-40500
X37500Y-46500
X38000Y-37500
X38000Y-40500
X38500Y-46500
X39000Y-33571
X39000Y-35500
X39000Y-37500
X39000Y-40500
X39500Y-46500
X40000Y-37500
X40000Y-40500
X40500Y-46500
X41000Y-37500
X41000Y-40500
X41500Y-46500
X42000Y-37500
X42000Y-40500
X42500Y-46500
X43000Y-37500
X43000Y-40500
X43500Y-46500
X44000Y-37500
X44000Y-40500
X45000Y-37500
X45000Y-40500
X47000Y-37500
X47000Y-40500
X48500Y-37500
X48500Y-40500
X48500Y-43000
X48500Y-46000
T5
X32000Y-35700
X32000Y-43500
X33000Y-35700
X33000Y-43500
X34000Y-43500
X35000Y-43500
X36000Y-43500
X37000Y-43500
X38000Y-43500
X39000Y-43500
X40000Y-43500
X41000Y-43500
X42000Y-43500
X43000Y-43500
X44000Y-43500
X45000Y-43500
X46000Y-43500
X47000Y-43500
T6
X32500Y-33000
X32500Y-34000
X41500Y-34000
X41500Y-35000
X41500Y-36000
X43000Y-34000
X43000Y-35000
X43000Y-36000
X51000Y-33000
X51000Y-34000
X51000Y-35000
X51000Y-37500
X51000Y-38500
X51000Y-39500
X51000Y-40500
X53500Y-38500
X53500Y-39500
X53500Y-40500
X53900Y-33000
X53900Y-34000
X53900Y-35000
X54900Y-33000
X54900Y-34000
X54900Y-35000
X56000Y-38500
X56000Y-39500
X57000Y-33000
X57000Y-34000
X57000Y-35000
X58500Y-38500
X58500Y-39500
X58500Y-40500
X59000Y-33000
X59000Y-34000
X61000Y-38500
X61000Y-39500
X61000Y-40500
T7
X54500Y-44000
X54500Y-45772
X57059Y-44000
X57059Y-45772
X58500Y-44000
X58500Y-45772
X61059Y-44000
X61059Y-45772
T8
X50500Y-43531
X50500Y-45500
X52469Y-44516
T0
M30
